<svg t="1712751319393" class="icon" viewBox="0 0 1024 1024" version="1.1" xmlns="http://www.w3.org/2000/svg" p-id="4274" width="200" height="200"><path d="M153.6 902.656a32.256 32.256 0 0 1 0-64h716.8a32.256 32.256 0 0 1 0 64zM743.936 151.04l72.192 72.192a51.2 51.2 0 0 1 0 72.192L358.4 751.616a51.2 51.2 0 0 1-36.352 14.848H226.816a25.6 25.6 0 0 1-25.6-25.6v-97.792a51.2 51.2 0 0 1 14.848-36.352l455.68-455.68a51.2 51.2 0 0 1 72.192 0z m-478.72 497.152v54.272h54.272l442.88-442.88L708.096 204.8z" fill="#8a8a8a" p-id="4275"></path></svg>