<svg t="1709692442399" class="icon" viewBox="0 0 1024 1024" version="1.1" xmlns="http://www.w3.org/2000/svg" p-id="1782" width="200" height="200"><path d="M533.3 469.3H252.4l47.8-47.8c16.7-16.6 16.7-43.7 0-60.3-16.7-16.7-43.7-16.7-60.3 0L120.6 480.4c-8.6 7.8-14 19.1-14 31.6 0 11.3 4.5 22.2 12.5 30.2l120.7 120.7c8.3 8.3 19.2 12.5 30.2 12.5s21.8-4.2 30.2-12.5c16.7-16.7 16.7-43.7 0-60.3l-47.9-47.9h281.1c23.6 0 42.7-19.1 42.7-42.7s-19.2-42.7-42.8-42.7z" fill="#8a8a8a" p-id="1783"></path><path d="M823.5 895.8H420.7c-51.8 0-93.9-42.1-93.9-93.9v-98.1c0-23.6 19.1-42.7 42.7-42.7s42.7 19.1 42.7 42.7v98.1c0 4.7 3.8 8.5 8.5 8.5h402.8c4.7 0 8.5-3.8 8.5-8.5V222.1c0-4.7-3.8-8.5-8.5-8.5H420.7c-4.7 0-8.5 3.8-8.5 8.5v97.6c0 23.6-19.1 42.7-42.7 42.7s-42.7-19.1-42.7-42.7v-97.6c0-51.8 42.1-93.9 93.9-93.9h402.8c51.8 0 93.9 42.1 93.9 93.9v579.8c-0.1 51.8-42.2 93.9-93.9 93.9z" fill="#8a8a8a" p-id="1784"></path></svg>