<svg width="18" height="19" viewBox="0 0 18 19" fill="none" xmlns="http://www.w3.org/2000/svg">
<path d="M6 13V14.5H12V13H6Z" fill="black" fill-opacity="0.9"/>
<path d="M3.75 5.48627V6.99998H1.5C1.08579 6.99998 0.75 7.33576 0.75 7.74998V18.25C0.75 18.6642 1.08579 19 1.5 19H16.5C16.9142 19 17.25 18.6642 17.25 18.25V7.74998C17.25 7.33576 16.9142 6.99998 16.5 6.99998H14.25V5.48627C14.25 2.58677 11.8995 0.236267 9 0.236267C6.10051 0.236267 3.75 2.58677 3.75 5.48627ZM12.75 6.99998H5.25V5.48627C5.25 3.4152 6.92893 1.73627 9 1.73627C11.0711 1.73627 12.75 3.4152 12.75 5.48627V6.99998ZM2.25 8.49998H15.75V17.5H2.25V8.49998Z" fill="black" fill-opacity="0.9"/>
</svg>
