<svg t="1708407944349" class="icon" viewBox="0 0 1024 1024" version="1.1" xmlns="http://www.w3.org/2000/svg" p-id="7500" width="200" height="200"><path d="M884.363636 0a139.636364 139.636364 0 0 1 139.403637 131.444364L1024 139.636364v744.727272a139.636364 139.636364 0 0 1-131.444364 139.403637L884.363636 1024H139.636364a139.636364 139.636364 0 0 1-139.403637-131.444364L0 884.363636V139.636364A139.636364 139.636364 0 0 1 131.444364 0.232727L139.636364 0h744.727272z m-112.034909 346.298182a46.545455 46.545455 0 0 0-65.815272 0l-296.215273 296.168727-98.769455-98.676364a46.545455 46.545455 0 1 0-65.815272 65.768728l131.67709 131.677091a46.545455 46.545455 0 0 0 65.815273 0l329.122909-329.122909a46.545455 46.545455 0 0 0 0-65.861819z" fill="#008df0" p-id="7501"></path></svg>