<svg width="20" height="20" viewBox="0 0 20 20" fill="none" xmlns="http://www.w3.org/2000/svg">
<path d="M10 13.75C11.8619 13.75 13.6331 14.2189 15.25 15.0693V16.75L16.75 16.75V15.0375C16.75 14.5159 16.4819 14.0262 16.0217 13.7807C14.1839 12.7998 12.1488 12.25 10 12.25C7.85122 12.25 5.81612 12.7998 3.97826 13.7807C3.51809 14.0262 3.25 14.5159 3.25 15.0375V16.75H4.75V15.0693C6.36691 14.2189 8.13813 13.75 10 13.75Z" fill="black"/>
<path d="M13.75 7C13.75 4.92893 12.0711 3.25 10 3.25C7.92893 3.25 6.25 4.92893 6.25 7C6.25 9.07107 7.92893 10.75 10 10.75C12.0711 10.75 13.75 9.07107 13.75 7ZM12.25 7C12.25 8.24264 11.2426 9.25 10 9.25C8.75736 9.25 7.75 8.24264 7.75 7C7.75 5.75736 8.75736 4.75 10 4.75C11.2426 4.75 12.25 5.75736 12.25 7Z" fill="black"/>
<path d="M1.75 0.25C0.921573 0.25 0.25 0.921573 0.25 1.75V18.25C0.25 19.0784 0.921573 19.75 1.75 19.75H18.25C19.0784 19.75 19.75 19.0784 19.75 18.25V1.75C19.75 0.921573 19.0784 0.25 18.25 0.25H1.75ZM18.25 1.75V18.25H1.75L1.75 1.75H18.25Z" fill="black"/>
</svg>
