<?xml version="1.0" standalone="no"?><!DOCTYPE svg PUBLIC "-//W3C//DTD SVG 1.1//EN" "http://www.w3.org/Graphics/SVG/1.1/DTD/svg11.dtd"><svg t="1684236688128" class="icon" viewBox="0 0 1024 1024" version="1.1" xmlns="http://www.w3.org/2000/svg" p-id="4491" xmlns:xlink="http://www.w3.org/1999/xlink" width="200" height="200"><path d="M683.281067 68.266667a34.133333 34.133333 0 0 1 24.917333 10.786133l204.151467 217.429333a34.133333 34.133333 0 0 1 9.250133 23.381334V785.066667a170.666667 170.666667 0 0 1-170.666667 170.666666H273.066667a170.666667 170.666667 0 0 1-170.666667-170.666666V238.933333a170.666667 170.666667 0 0 1 170.666667-170.666666z m-14.7456 68.266666H273.066667a102.4 102.4 0 0 0-102.4 102.4v546.133334a102.4 102.4 0 0 0 102.4 102.4h477.866666a102.4 102.4 0 0 0 102.4-102.4V333.380267L668.535467 136.533333z m-2.935467 213.333334a34.133333 34.133333 0 0 1 0 68.266666H546.133333v290.133334a34.133333 34.133333 0 0 1-68.266666 0v-290.133334h-119.466667a34.133333 34.133333 0 0 1 0-68.266666h307.2z" fill="#2B2B36" p-id="4492"></path></svg>