<svg t="1708408164698" class="icon" viewBox="0 0 1024 1024" version="1.1" xmlns="http://www.w3.org/2000/svg" p-id="7923" width="200" height="200"><path d="M884.363636 0H139.636364a139.636364 139.636364 0 0 0-139.636364 139.636364v744.727272a139.636364 139.636364 0 0 0 139.636364 139.636364h744.727272a139.636364 139.636364 0 0 0 139.636364-139.636364V139.636364a139.636364 139.636364 0 0 0-139.636364-139.636364zM139.636364 93.090909h744.727272a46.545455 46.545455 0 0 1 46.545455 46.545455v744.727272a46.545455 46.545455 0 0 1-46.545455 46.545455H139.636364a46.545455 46.545455 0 0 1-46.545455-46.545455V139.636364a46.545455 46.545455 0 0 1 46.545455-46.545455z" fill="#8a8a8a" p-id="7924"></path><path d="M245.76 543.744a46.545455 46.545455 0 0 1 65.768727 0l98.769455 98.722909 296.215273-296.215273a46.545455 46.545455 0 1 1 65.815272 65.861819l-329.122909 329.076363a46.545455 46.545455 0 0 1-65.815273 0l-131.67709-131.630545a46.545455 46.545455 0 0 1 0-65.815273z" fill="#ffffff" p-id="7925" data-spm-anchor-id="a313x.search_index.0.i5.69e93a81E7dHfu" class="selected"></path></svg>