<?xml version="1.0" standalone="no"?><!DOCTYPE svg PUBLIC "-//W3C//DTD SVG 1.1//EN" "http://www.w3.org/Graphics/SVG/1.1/DTD/svg11.dtd"><svg t="1695632715028" class="icon" viewBox="0 0 1024 1024" version="1.1" xmlns="http://www.w3.org/2000/svg" p-id="7541" xmlns:xlink="http://www.w3.org/1999/xlink" width="200" height="200"><path d="M212.992 526.336 212.992 526.336 212.992 526.336 215.04 526.336 212.992 526.336Z" p-id="7542" fill="#ffffff"></path><path d="M51.2 538.624l198.656-192.512 188.416 194.56-139.264-2.048c2.048 51.2 22.528 98.304 57.344 133.12 59.392 61.44 153.6 79.872 233.472 45.056l14.336-6.144 40.96 94.208-14.336 6.144C512 866.304 370.688 839.68 280.576 747.52c-53.248-55.296-83.968-129.024-86.016-206.848L51.2 538.624z" p-id="7543" fill="#ffffff"></path><path d="M225.28 512l0 14.336c-2.048 75.776 24.576 147.456 77.824 200.704 77.824 79.872 198.656 106.496 303.104 65.536l-18.432-40.96c-88.064 32.768-188.416 10.24-251.904-55.296-43.008-45.056-67.584-106.496-65.536-169.984l0-14.336 98.304 0-118.784-122.88-126.976 122.88L225.28 512z" p-id="7544" fill="#ffffff"></path><path d="M948.224 516.096l-198.656 192.512L561.152 512l139.264 2.048c-2.048-51.2-22.528-98.304-57.344-133.12-59.392-61.44-153.6-79.872-233.472-45.056l-14.336 6.144-40.96-94.208 14.336-6.144C487.424 188.416 628.736 215.04 716.8 307.2c53.248 55.296 83.968 129.024 86.016 206.848L948.224 516.096zM774.144 542.72l0-14.336c2.048-75.776-24.576-147.456-77.824-200.704-77.824-79.872-198.656-106.496-303.104-65.536l18.432 40.96c88.064-32.768 188.416-10.24 251.904 55.296 43.008 45.056 67.584 106.496 65.536 169.984l0 14.336-98.304 0 118.784 122.88 126.976-122.88L774.144 542.72z" p-id="7545" fill="#ffffff"></path></svg>