<svg viewBox="0 0 1080 1080" xmlns="http://www.w3.org/2000/svg" id="choice_of_how_to_login"><defs><style>.cls-1{fill:#f9f1cb;}.cls-2{fill:#f37a81;}.cls-3{fill:#e8a1a4;}.cls-4{fill:#9a702d;}.cls-5{fill:#aac3da;}.cls-6{fill:#f2d0b9;}.cls-7{fill:#efca87;}.cls-8{fill:#483613;}</style></defs><title>choice of how to login</title><path d="M1038.45,890.77c0,11.83-98,22.73-255.8,28.45s-350.6,5.37-503.31-.92S38.1,900.76,48.18,889l494.75,1.81h495.52Z" class="cls-1" id="path2210"></path><path d="M599.66,432.63s1.07,12.59-7,38-15.26,43.94-12.85,49.82,15-15.8,28.12-25.18,26.65-21.16,29.2-21.29,12.32,3.88,12.32,3.88-11.65-36.16-11.65-38.3,6.56-3.22,11.78,10.58,21.84,57.72,33.35,77,14.47,24.1,13.13,35.89a132.4,132.4,0,0,0-.81,20.63s12.86,13.39,42.86,19.82,60.27-2.95,68.57-15,10.41-16.91,5.29-29.61-11.06-19.7-10-39.21-3.89-23.51-3.89-23.51l-13.53-20.62s2.27-4.92,18.94,9.1,43,39.39,47.54,43,4,10,12.31,3,15-12.12,22.16-13.07,7.57-2.46,7.57-2.46-5.49,1.52-20.83-19.13-44.32-63.64-57.58-74.44-15.72-10.6-33.33-18.94-31.82-14.58-34.48-18.18-8.43-15.07-8.43-15.07-23.71,11.92-24.65,18.89,7.5,19,1.34,31.07-23.84,24-25.71,28.66-11.79-4.55-14.07-12.72-13.26-20.76-18.61-27.59-23-5.63-25.05-4-7.36,16.47-14.46,22.9-17.54,6-17.54,6Z" class="cls-2" id="path2815"></path><path d="M529.23,516.5s-14.4,31.44-2.65,65.15,7.19,130.31-14.4,173.5-75,54.17-75,54.17-10.29,23-21.27,25S389.66,818,389.66,818s-38.84,14.33-87.59-1.48-42.06,14.2-35.63,25.72,26,10.71,26,10.71L511.26,851s36.16,1.47,43.13-11.52,3.35-29.87,3.35-29.87V544.53s-27.57-6.82-28.52-28Z" class="cls-1" id="path2702"></path><path d="M686.78,330.13a7.55,7.55,0,0,1-7.55,7.55h0a7.55,7.55,0,1,1,7.55-7.55Z" class="cls-3" id="path7004-5-5-1-7-6-7-12-0-1-2-5-0-8-9"></path><path d="M325.1,345.85s-.78,59.21,58.13,75,98.84-30.27,103.12-64.29S467.6,281.29,462,279.42s11.52,19.55,6.7,55.18S450.73,393,411.62,398.35,333.94,386,325.1,345.85Z" class="cls-1" id="path2700"></path><path d="M638.79,320.09s-10.32-10.42-10.6-15.63,7.67-4.92,7.67-2S638.79,320.09,638.79,320.09Z" class="cls-4" id="path2769"></path><path d="M635,299c-2.55.14-17.28-8.43-7-27.32s31.07-27.45,45.27-27.59,18.89-1.74,23.44-.13,18,2.81,21.7,6.56,9.1,10.72,7.76,21.3a252.22,252.22,0,0,1-4.68,25.31c-.67,2.41-1.48,6.3-1.48,6.3s-9.1-3.35-12.19,3.75-2.54,15.53-11.11,16.47-17.55-12.45-14.06-19.69,11-10.85,4.55-13.66-18.89-.67-23.3-8.84-7-13.93-8.31-10-4.28,15.67-8.31,19.69S635,299,635,299Z" class="cls-4" id="path2771"></path><path d="M714,324.62c1.61,1.48,14.07,9.51,11,16.27s-12.73,9.11-13.87-3.41S714,324.62,714,324.62Z" class="cls-4" id="path2773"></path><path d="M800.33,623.8s-5.75,16-41.36,15.82-62.88-20.08-68-20.08-10.23,5.87-19.89,5.11-9.66,1-15.72,8.33-40.53,58.72-45.84,67.44-4.36,22-2.27,39.76,16.1,53.42,16.67,61.19,4.35,14.39,18.18,14.39,21.78-13.63,19.13-20.26-15-31.83-14.58-51.33-1.9-23.49,15.53-38.07,50.57-41.86,50.57-41.86S731.7,675,745.53,676.36s28.79,22.92,30.11,24.81,60.8,68,81.25,87.7,25.57,31.44,33.91,34.66S911,821.71,921.29,815s12.12-27.84,9.47-30.49-10.8,2.65-29.35-17-54.93-70.83-60.23-88.06S841.75,646.06,830,648s-25.76-1.52-29.93-7,0-12.88,0-12.88Z" class="cls-5" id="path2817"></path><path d="M894.17,535.89c-3.22,1.88-18.62,9.11-17.28,22.9s4.42,19.42,4.42,19.42-20.62-25.31-20.49-30.67,11.78-14.46,19.56-17.14,12.45.54,13.79,5.49Z" class="cls-6" id="path3586"></path><path d="M574.75,486.88s-6,17.14-17.68,25-24.78.94-24.91,1.61S530,535.62,543,537.1s18.48-2,22.23-15.94,9.51-34.29,9.51-34.29Z" class="cls-6" id="path3588"></path><path d="M281.26,156.72c-24.3,0-42.2.19-43.44.5-10.48,2.66-19.31,12.15-22.31,24-.64,2.56-1.22,63.24-1.6,169.49-.33,91.5-1.08,176.23-1.67,189.5-1.25,27.89-1.35,92-.17,108,.45,6,.4,24.95-.1,42-.62,20.93-.54,42.2.23,65.5.65,19.95.85,48,.47,66.5-.59,28.41-.46,32.89,1.1,40,1.87,8.52,5.36,16.56,8.8,20.25l4.19,4.14h8.65l-6-5.84c-4.63-4.47-6.17-7.4-8.54-15-1.56-5-1.74-15-2.07-111-.2-58-.66-118.77-1-135-.38-17.44-.17-41.36.52-58.5.71-17.74,1.33-95.4,1.6-200,.24-94.05.66-172.91.92-175.24,1.06-9.32,9.43-20.19,17-22.11,5.59-1.41,19.15-1.52,98.51-.78,149.55,1.4,215.1,2.68,221,4.31,14.31,4,21.51,12,24.11,26.94.85,4.85,1,12.35.45,25.39-.41,10.17-.9,29.3-1.07,42.5s-.62,32.19-1,42.2-.1,35,.57,55.52l1.22,42.79h0l6-7.57L587,384.43c-.53-9-.71-80.14.6-114.44.69-18,1.24-43.35,1.24-56.28,0-22.24-.13-23.81-2.32-29.25-3.37-8.38-8.84-14.76-15.85-18.5-10.31-5.49-14.66-6.12-46.14-6.71-15.77-.29-42.85-.87-60.18-1.28s-44.78-.77-61-.8-59.43-.19-96-.37c-9.15,0-18-.06-26.06-.06v0Zm33.74,20c-3.21,0-8.18.28-17,.81-11.11.66-23.43,1.19-27.39,1.19-9.94,0-20.92,2.44-25.12,5.65a21.35,21.35,0,0,0-5.42,7.11c-1.89,4.27-2,7.26-2.4,56.61-.52,66.2-2.08,148.17-3.5,183.61-.6,15.12-1.2,72.72-1.34,128s-.58,118-1,139.5c-.72,37.21-.54,45.6,2.38,113.66.81,18.81,1,19.91,3.72,25.43,3.54,7.11,8.27,12,14.28,14.78,4.35,2,5.87,2.11,29.09,1.82,13.48-.17,76.7-.64,140.5-1l116-.74c6.66,0,13.76-6.24,15.82-8.45,5.89-6.34,8.09-10.6,8.14-24.9.13-37.55-1.75-249.6-2.3-259.8l-.66-13.49h0L554,544.75l.25,82.31c.13,44.6.42,81.36.63,81.7s.44,27.83.52,61.09c.14,67,.35,64.64-6.4,70.57-7.7,6.77-2.12,6.44-127.16,7.31h0c-62.15.43-123.57,1.06-136.5,1.39-25.65.65-28.85.22-35.45-4.82-4.66-3.55-8.73-12.48-9.15-20.07-.19-3.32-.85-22.68-1.47-43-1.48-48.21.39-327.63,2.54-380.73,1.29-31.9,2-90.35,2-174.77,0-30.48.2-31.68,5.34-36.34,3-2.71,16.12-4.36,44.15-5.57,23.94-1,24.55-1,28.81,1.05,2.73,1.32,6.24,4.46,9.41,8.41a34.2,34.2,0,0,0,11,9.46c5.89,3.14,6.1,3.17,27.14,4.15,11.66.54,31.77.84,44.7.66l17.18-.23a27.82,27.82,0,0,0,12.3-3.09c4.59-2.2,7.41-4.76,12-10.39,3.31-4.06,7.14-7.82,8.52-8.35,2.81-1.08,35.85-.32,59.5,1.38,17.1,1.22,22.86,3,27,8.45,8.3,10.88,10.52,35.79,8.53,95.66-1,30-1,45.27-.09,70.75.64,17.87,1.42,42.63,1.74,55l.57,27.26h0l6-12.07-.91-26.23c-.64-18.8-.88-66.83-.29-151,.32-45.6-4.24-62.26-19.1-69.77-5.45-2.75-8.36-3.47-18-4.44-11.67-1.17-43.26-1.52-59.57-1-5.5.19-11.27,1.2-18,9.35-3.34,4-7.35,8.85-9.45,9.64a28.83,28.83,0,0,1-11.18,2.24l-36.75-.24L355,200.23a17.31,17.31,0,0,1-9.74-2.72,45.9,45.9,0,0,1-8.5-7.5c-5.26-6.45-8-8.75-13.71-11.44a14.9,14.9,0,0,0-8-1.85Zm80.28,1.14c-4.89,0-9.86.22-15.91.65-16.94,1.21-21.08,2.25-19,4.75,1,1.15,7,1.47,32.81,1.71v0c41.68.39,38.57.51,38.94-1.41.48-2.57-4.78-3.81-21.45-5.06-5.71-.44-10.5-.66-15.39-.66Zm-3.68,55c-10.33.11-15.35,1.8-26.34,7.46-21.71,11.19-33.11,27-40.45,55.91-3.1,12.2-4.78,31.45-3.52,40.21,3.69,25.62,14.3,44.37,31.38,55.43,9.65,6.26,15.67,8.1,29.15,8.93,35.57,2.19,54.34-2.87,70.59-19,5.61-5.58,8.54-9.5,11.23-15,9.92-20.45,12-48.78,5.54-74.5-3.34-13.25-14.32-34.71-22.05-43.09-8.93-9.69-25.56-15.35-47.39-16.15C396.65,232.86,394,232.8,391.6,232.83Zm6.21,5.5c17.86,0,35.86,6,44.71,15.06,8.35,8.53,17.77,27.5,21.39,43.07,3.46,14.86,3.47,36.64,0,53a60.79,60.79,0,0,1-11.35,24.05c-3.42,4.18-13.19,12.57-13.86,11.9-.19-.19.32-2.52,1.13-5.19a52.38,52.38,0,0,0,1.46-12.17c0-22-16.67-35.46-44-35.52-23.88-.06-39.68,12-43.1,32.85a30.35,30.35,0,0,0,.32,13.54h0c.86,4,1,6.75.47,6.75s-4.17-3.26-8.08-7.25c-8.17-8.32-13.08-16.92-17.15-30.07-2.63-8.47-2.71-9.43-2.19-24.5.46-13,1.07-17.69,3.61-27.56,6.52-25.4,17-40.06,35.68-49.78,12.38-6.46,18.87-8.18,30.94-8.21Zm1,24.37c-4.63,0-6.19.57-11.67,4.25-5.1,3.43-6.91,5.4-9.34,10.18-2.62,5.16-3,7-3,14,0,11.11,3.48,17.43,12,21.91,3.57,1.88,12.23,2.12,17.65.5a27.37,27.37,0,0,0,8-4.69c11.62-9.94,12-30.19.73-40.83C408.89,264,405.52,262.7,398.84,262.7Zm-1.19,6A17,17,0,0,1,412,277.36c6,10.15,2.43,23.74-7.56,29-8.3,4.39-18.13,1.86-21.79-5.6-2.69-5.47-2.33-15.48.75-21C386.53,274,393.42,268.69,397.65,268.72Zm-.25,69.48a49.72,49.72,0,0,1,6.84.49c13.83,2,23.7,7.66,28.36,16.37,1.82,3.41,2.22,5.73,2.19,13.14,0,8.2-.32,9.61-3.41,15.8-1.86,3.75-4.13,7.2-5,7.69s-5.66,1.59-10.58,2.44c-14.5,2.54-37.09,1.71-46.94-1.72-3.52-1.22-4.29-2.09-6.45-7.3-3.32-8-3.4-19.67-.18-26.91C367.67,345.88,381.64,338.18,397.4,338.2ZM358.65,426c-1.24-.19-2.33,1.19-2.33,4.26,0,3.4-.05,3.44-4.41,3.44-8.6,0-18.55,4.19-25.94,10.91-3.25,3-7.65,11.05-7.65,14.06,0,1.86-.63,2-7.35,2h-7.36l-.6-8.64c-.78-11-3.54-17.05-9-19.72-3.43-1.67-4.19-1.72-7.49-.46-7,2.68-9.74,10.21-10.89,30.44-1,17.2,2.05,27.35,9.46,31.68,8.32,4.86,16.33-4.75,18-21.55l.56-5.75h6.89c4.67,0,7,.41,7.23,1.25,3.8,13.95,8.56,21.64,16.61,26.85,2.74,1.78,5,3.27,5.09,3.32s.28,7.86.48,17.36c.38,17.46.82,19.69,4.65,23.9l2,2.18-2.73,3.58c-3.38,4.42-4.33,11-2.19,15.16.83,1.61,4,5.29,7.05,8.16h0c5.85,5.53,8.93,6.44,14,4.13,4.58-2.09,4.8-4,4.58-40.39L367,498.07l2.4-2.43a75.26,75.26,0,0,0,12.44-16.94c2.18-4.3,2.89-7.31,3.24-13.77.43-7.74.25-8.69-2.71-14.72C378.8,442.9,374,438.4,367.14,436c-4-1.42-4.77-2.17-5.28-4.87-.59-3.16-2-4.91-3.21-5.1Zm138,1c-1.24-.19-2.33,1.19-2.33,4.26,0,3.4-.06,3.44-4.41,3.44-8.6,0-18.55,4.19-25.94,10.91-3.25,3-7.65,11.05-7.65,14.06,0,1.86-.63,2-7.35,2h-7.36l-.61-8.64c-.77-11-3.53-17.05-9-19.72-3.42-1.67-4.19-1.72-7.48-.46-7,2.68-9.74,10.21-10.9,30.44-1,17.2,2.05,27.35,9.47,31.68,8.32,4.86,16.32-4.75,18-21.55l.56-5.75h6.89c4.67,0,7,.41,7.23,1.25,4,14.79,8.46,21.59,18.12,27.84,6.35,4.11,10.48,9,10.48,12.33a20.06,20.06,0,0,1-2.1,5.88c-5.44,10.91-5.54,18.41-.3,24.63l2.54,3-2.69,3.53c-3.34,4.37-4.29,11-2.16,15.11.83,1.61,4,5.29,7.05,8.17h0c5.85,5.53,8.93,6.44,14,4.12,4.58-2.08,4.8-4,4.58-40.39L505,499.07l2.41-2.44a75.16,75.16,0,0,0,12.43-16.93c2.18-4.3,2.89-7.31,3.25-13.78.43-7.73.25-8.69-2.72-14.71-3.6-7.32-8.41-11.81-15.26-14.26-4-1.42-4.77-2.16-5.27-4.86-.6-3.16-2-4.91-3.22-5.1Zm-207,10.73A5.23,5.23,0,0,1,293.8,440c.84,1.28,2,5.67,2.49,9.75,1.34,10.29,1.29,10.91-.78,10.91a7.32,7.32,0,0,0-3.59,1.3c-1.46,1.07-1.54,1.5-.44,2.4a8.94,8.94,0,0,0,3.34,1.48c1.76.34,2,1,1.66,5.85a43.12,43.12,0,0,1-2.5,11c-3.66,9.31-8.24,7.66-11.26-4-2.86-11.1-.67-34.31,3.74-39.62a3.84,3.84,0,0,1,3.16-1.31Zm138,1A5.2,5.2,0,0,1,431.8,441c.84,1.28,2,5.67,2.49,9.75,1.34,10.28,1.29,10.91-.78,10.91a7.32,7.32,0,0,0-3.59,1.3c-1.46,1.07-1.54,1.5-.44,2.4a9.1,9.1,0,0,0,3.34,1.48c1.76.34,2,1,1.66,5.86a43.31,43.31,0,0,1-2.5,11c-3.66,9.3-8.24,7.65-11.26-4-2.86-11.1-.67-34.31,3.74-39.62a3.84,3.84,0,0,1,3.16-1.31Zm-73,.21c1.07,0,1.77.13,1.95.44a29.61,29.61,0,0,1,1.17,5.58l.69,4.75h-5.31c-9.53,0-15.82,6.08-15.82,15.29,0,9.56,5.46,14.7,15.62,14.7,7.47,0,11.79-2.48,14.42-8.27,2.53-5.57,2.44-8.33-.43-14.28-2.27-4.7-4.39-16.45-3-16.45,2.12,0,9.37,5.43,11.62,8.69,7.66,11.11,4.36,27.08-8.7,42.05l-5.3,6.09-.73,14.08c-.4,7.75-.4,22.41,0,32.57.54,13.93.42,19.22-.53,21.5h0c-.69,1.66-1.72,3-2.29,3s-3.67-2.63-6.88-5.84c-6.77-6.77-7.17-8.82-2.81-14.59,3.77-5,3.73-7.21-.21-12.66l-3.19-4.39.23-15.65c.13-8.6-.06-16.79-.41-18.21-.41-1.62-2.25-3.53-4.91-5.09-11.69-6.85-18.79-22.55-15.58-34.44,1.61-6,9-13.21,16.1-15.87a50.3,50.3,0,0,1,14.25-3Zm138,1c1.07,0,1.78.13,1.95.44a29.61,29.61,0,0,1,1.17,5.58l.69,4.75h-5.31c-9.53,0-15.81,6.08-15.81,15.29,0,9.56,5.45,14.7,15.61,14.7,7.47,0,11.79-2.49,14.42-8.27,2.53-5.57,2.45-8.33-.43-14.28-2.27-4.7-4.39-16.45-2.95-16.45,2.1,0,9.36,5.43,11.61,8.69,7.66,11.11,4.36,27.08-8.7,42.06l-5.3,6.08-.73,14.09c-.4,7.75-.4,22.39,0,32.56.55,13.93.42,19.22-.53,21.5h0c-.69,1.67-1.72,3-2.29,3s-3.67-2.63-6.88-5.84c-6.77-6.78-7.17-8.83-2.81-14.59,3.62-4.79,3.71-7,.47-11.79-3.59-5.29-3.4-11.46.57-18.39,6.19-10.84,2.76-19.85-10-26.38-10.82-5.52-18.23-22.18-15.07-33.88,1.62-6,9-13.22,16.1-15.87a50.84,50.84,0,0,1,14.26-3Zm-141,15.81a17.8,17.8,0,0,1,2.34.12c3.6.42,3.46,3.33-.32,6.47-1.41,1.18-2.26,2.64-1.88,3.25,1.21,2,5.59,1.19,8-1.41,1.95-2.11,2.44-2.26,2.94-.94.85,2.2-1.8,8.08-4.22,9.38a16.28,16.28,0,0,1-6.13,1.08c-7.74,0-11.42-7.14-7.29-14.13a7,7,0,0,1,6.55-3.82Zm138,1a17.8,17.8,0,0,1,2.34.12c3.6.42,3.46,3.33-.32,6.47-1.41,1.18-2.26,2.65-1.88,3.25,1.21,2,5.59,1.19,8-1.41,1.95-2.1,2.44-2.26,2.94-.94.85,2.21-1.8,8.09-4.23,9.39a16.38,16.38,0,0,1-6.12,1.08c-7.74,0-11.42-7.15-7.29-14.14a7,7,0,0,1,6.56-3.82ZM583,530.18c-1.9,6.09-5.22,8.72-5.22,8.72l-.31.94c1,.65.9,11.58,1,52,.07,27.72.38,75.38.7,105.9.79,73.59.35,146.7-.94,156-2.06,14.91-9.65,25.48-21,29.73l-5.7,2.14h17.7l3.33-3.63c6.06-6.58,8.26-11.38,11.27-24.49,1.85-8.09,2.11-49.07,1.22-191.26-.54-86.68-1.13-127.18-2-136h0ZM356.65,618c-1.24-.19-2.33,1.19-2.33,4.26,0,3.4-.05,3.44-4.41,3.44-8.6,0-18.55,4.19-25.93,10.91-3.26,3-7.66,11-7.66,14.06,0,1.86-.63,2-7.35,2h-7.36l-.61-8.64c-.77-11-3.53-17-9-19.72-3.43-1.67-4.19-1.73-7.49-.47-7,2.69-9.74,10.22-10.89,30.45-1,17.19,2.05,27.35,9.46,31.68,8.32,4.86,16.33-4.75,18-21.55l.56-5.75h6.89c4.67,0,7,.4,7.24,1.25,3.8,13.95,8.55,21.63,16.6,26.85,2.75,1.78,5,3.27,5.1,3.32s.27,7.86.47,17.36c.38,17.45.82,19.69,4.65,23.89l2,2.19L341.88,737c-2.92,3.83-4.17,9.11-3.14,13.23.77,3,9.6,12.82,14.08,15.58,3.63,2.25,5.39,2.32,8.17.38,3.71-2.6,4.55-9.31,3.47-27.65-.88-14.86-1.25-17-3.72-22.09l-2.75-5.6,2.57-3.06c2.06-2.44,2.72-4.59,3.29-10.67.43-4.57,1.21-7.8,2-8.09,2.11-.81,11.1-12.55,14.05-18.36,2.19-4.31,2.9-7.29,3.25-13.77.43-7.73.25-8.68-2.71-14.71-3.61-7.31-8.41-11.81-15.26-14.26-4-1.42-4.77-2.16-5.28-4.87-.59-3.16-2-4.9-3.21-5.09Zm138,1c-1.24-.19-2.33,1.19-2.33,4.26,0,3.4-.05,3.44-4.41,3.44-8.6,0-18.55,4.19-25.93,10.91-3.26,3-7.66,11-7.66,14.06,0,1.86-.63,2-7.35,2h-7.36l-.6-8.64c-.78-11-3.54-17-9-19.72-3.43-1.67-4.19-1.72-7.49-.47-7,2.69-9.74,10.22-10.89,30.45-1,17.2,2.05,27.35,9.47,31.68,8.31,4.86,16.32-4.75,17.94-21.55l.56-5.75h6.89c4.67,0,7,.4,7.24,1.25,3.8,13.94,8.55,21.64,16.6,26.85,5,3.23,5,3.24,5,8.7,0,5,.32,5.77,3.59,8.85l3.59,3.38-3.09,3.52c-2.57,2.94-3.09,4.36-3.09,8.55,0,5.31,1,8,4.23,11.58l2,2.18-2.73,3.58c-3.37,4.43-4.33,11-2.19,15.16.84,1.61,4,5.28,7.05,8.17,5.85,5.53,8.93,6.44,14,4.12,4.58-2.09,4.8-4,4.58-40.39L503,691.08l2.41-2.44a74.9,74.9,0,0,0,12.43-16.94c2.19-4.3,2.89-7.31,3.25-13.77.43-7.73.25-8.69-2.72-14.72-3.6-7.31-8.41-11.8-15.26-14.25-4-1.42-4.77-2.16-5.27-4.86-.6-3.17-2-4.92-3.22-5.1Zm-207,10.73A5.2,5.2,0,0,1,291.8,632c.84,1.28,2,5.67,2.49,9.75,1.34,10.29,1.29,10.91-.78,10.91a7.32,7.32,0,0,0-3.59,1.3c-1.46,1.07-1.54,1.5-.44,2.4a9.1,9.1,0,0,0,3.34,1.48c1.76.34,2,1,1.66,5.86a43.24,43.24,0,0,1-2.5,11c-3.66,9.31-8.25,7.66-11.26-4-2.86-11.1-.67-34.31,3.73-39.62A3.87,3.87,0,0,1,287.62,629.73Zm138,1a5.22,5.22,0,0,1,4.18,2.3c.84,1.29,2,5.68,2.49,9.75,1.34,10.29,1.29,10.92-.78,10.92a7.32,7.32,0,0,0-3.59,1.3c-1.46,1.07-1.54,1.5-.44,2.4a9.1,9.1,0,0,0,3.34,1.48c1.76.34,2,1,1.66,5.86a43.24,43.24,0,0,1-2.5,11c-3.66,9.31-8.25,7.66-11.26-4-2.86-11.1-.67-34.31,3.73-39.62A3.87,3.87,0,0,1,425.62,630.73Zm-73,.21c1.07,0,1.78.13,1.95.44a29.63,29.63,0,0,1,1.17,5.57l.69,4.75h-5.31c-9.53,0-15.81,6.09-15.81,15.3,0,9.56,5.45,14.7,15.61,14.7,7.47,0,11.79-2.48,14.42-8.27,2.53-5.58,2.45-8.34-.43-14.28-2.27-4.7-4.39-16.45-2.95-16.45,2.11,0,9.36,5.43,11.61,8.69,7.83,11.36,4,28.69-9.52,42.65l-5.75,6v6.28c0,5.69-.29,6.56-3.12,9.39-2.63,2.63-3,3.62-2.48,6.31a24.22,24.22,0,0,0,3.12,6.94c2.43,3.67,2.48,4.17,2.48,23.27h0c0,15.66-.27,19.52-1.34,19.52-2.34,0-13.66-12.6-13.63-15.16,0-1.29,1.36-4.11,3-6.27,3.77-5,3.73-7.21-.21-12.66l-3.19-4.4.23-15.63c.13-8.61-.06-16.8-.41-18.23-.41-1.61-2.25-3.52-4.92-5.08-11.68-6.85-18.79-22.55-15.57-34.44,1.61-6,9-13.21,16.1-15.87a50.84,50.84,0,0,1,14.26-3Zm138,1c1.07,0,1.78.13,1.95.44a29.63,29.63,0,0,1,1.17,5.57l.69,4.75h-5.31c-9.53,0-15.81,6.08-15.81,15.3,0,9.56,5.45,14.7,15.61,14.7,7.47,0,11.79-2.49,14.42-8.27,2.53-5.58,2.45-8.34-.43-14.28-2.27-4.7-4.39-16.45-2.95-16.45,2.11,0,9.36,5.43,11.61,8.69,7.66,11.11,4.36,27.08-8.7,42.05l-5.3,6.08-.73,14.09c-.4,7.75-.4,22.4,0,32.56.54,13.94.42,19.23-.53,21.51h0c-.69,1.66-1.72,3-2.29,3s-3.67-2.63-6.88-5.84c-6.78-6.78-7.17-8.83-2.81-14.59,3.74-4.94,3.73-7.22,0-12.41-4.22-5.83-3.91-8.81,1.64-15.49,3.2-3.84,3-6-1.14-10.54-2.9-3.2-3.5-4.64-3.5-8.31,0-5-1-6.62-6.18-9.7-11.08-6.6-18-22.41-14.86-34,1.61-6,9-13.21,16.1-15.87a50.29,50.29,0,0,1,14.26-3Zm-141,15.81a17.8,17.8,0,0,1,2.34.12c3.6.41,3.46,3.33-.32,6.47-1.41,1.18-2.26,2.64-1.88,3.25,1.21,2,5.59,1.19,8-1.41,1.95-2.11,2.44-2.26,2.94-.94.85,2.2-1.8,8.08-4.22,9.38a16.3,16.3,0,0,1-6.14,1.08c-7.73,0-11.41-7.14-7.27-14.13a7,7,0,0,1,6.54-3.82h0Zm138,1a17.8,17.8,0,0,1,2.34.12c3.6.41,3.46,3.33-.32,6.47-1.41,1.18-2.26,2.64-1.88,3.25,1.21,2,5.59,1.19,8-1.41,1.95-2.1,2.44-2.26,2.94-.94.85,2.21-1.8,8.09-4.22,9.39a16.5,16.5,0,0,1-6.14,1.08c-7.73,0-11.41-7.15-7.27-14.14a7,7,0,0,1,6.55-3.82Zm-79.43,135c-12.85.1-23.22,10.07-23.22,24,0,10.17,5.52,18.43,14,21,11.63,3.49,24.33-6.11,27.35-20.67,2.15-10.32-2.85-21-10.83-23.27A26.71,26.71,0,0,0,408.18,783.75Zm.56,6.21a12.3,12.3,0,0,1,6.92,2.79c7.69,6.06,4.48,21.82-5.71,28-4.13,2.52-7.59,2.42-11.73-.35a16.17,16.17,0,0,1-6.9-12.46c0-4.25,3-10,4.81-11.79,4.87-4.86,9.09-6.4,12.61-6.22ZM765.5,806.13c-9,.41-21.19,24.57-21.19,46.27v5.53l-2.46-1.61c-3.36-2.21-6.85-2-9.1.45-2.63,2.9-3.17,13.9-1,21.22.88,3,2.54,8.73,2.54,9.06l6.9.6L738.6,881c-2-5.31-3.06-20.25-1.11-20.25,2.42,0,7.71,6.32,9.37,11.19s4.82,8.64,5.89,6.91c.35-.56-.11-4.75-1-9.3-3-14.77-.6-34.6,5.67-46.91,2.1-4.14,6.72-9.89,7.93-9.89,1.44,0,3,12.87,4.45,36.21.76,12.49,1.65,23.13,2,23.64s.16,2.21-.33,3.79-1.18,4.1-1.51,5.61l.33,5.7,5.57-.44a10.25,10.25,0,0,1-1-4.76c1.1-3.86,8.26-18.13,10.4-20.75,1.89-2.31,2-2.35,2.08-.5,0,1.1-.76,6.83-1.72,12.75l-.82,13.69,7.81-.72c-1.09-.25-2.26-3.53-2.26-4,0-1,.68-5.28,1.5-9.59,1.81-9.45,1.94-17.83.3-19.46-3.19-3.2-8.9-.11-14.05,7.63-1.46,2.2-1.58,1.8-2.13-7.5-2-33.28-3.11-42-5.86-45.53a5.37,5.37,0,0,0-4.57-2.38h0ZM126.37,823.92a4.34,4.34,0,0,0-3.49,2.09c-3.17,4.51-.76,18.59,5.73,33.58l3.37,7.77-3,2.73c-2.92,2.67-2.91,2.87-2.41,10.2l.46,6.84,7.82-.57c-2.29-.7-2.56-2.58-2.56-7.3,0-7.18,3.12-8,10,2.77l3.05,4.79,4.4-.21c.27-.71-3.32-7.24-6.88-13.17a152.15,152.15,0,0,1-9.62-18.93c-3.39-8.79-6.69-22.32-5.68-23.33,1.28-1.28,12.83,9.14,30.56,27.56,10.08,10.47,19,19,19.75,19,2.29,0,1.64-3.3-1.48-7.55-2.79-3.81-6.83-17.69-8.56-29.45l-.66-4.5,2.1,2.5c7.42,8.84,14.88,22.25,21.44,38.53,2,4.87,3.57,9,3.57,9.17l6.49.3L198.42,880c-8.83-25.1-24.94-50.25-32.19-50.25-5,0-6.22,6-3.44,17.5a72.09,72.09,0,0,1,1.48,7.18c0,.65-5.7-4.55-12.71-11.56-13.5-13.48-20.83-19.18-25.19-19Z" class="cls-7" id="path7101"></path><path d="M701.07,355.16s2.35,12.19-2.62,19a17.33,17.33,0,0,1-13,6.84L685,370.25Z" class="cls-6" id="path2904"></path><path d="M676.63,233.75c-12.47.16-26.19,4-36.19,11.37a102.19,102.19,0,0,0-11.54,10.72c-13.31,14.37-18,32-11.38,42.69a17.05,17.05,0,0,1,2.38,8.18,21.31,21.31,0,0,0,1.84,7.86c2.62,5.05,9.06,11.6,13.31,13.54,3.39,1.54,4,2.46,6.14,8.91,5.41,16.45,13.89,27.89,24.29,32.76l5,2.33-5.32,2.71c-7.1,3.62-10.1,6.55-9.49,9.25.28,1.18.76,3.49,1.09,5.14l.6,3-12.51,4c-11.21,3.6-12.51,3.83-12.51,2.22a2.66,2.66,0,0,1,1.75-2.35c9.85-3.11,13.15-7.31,9.59-12.2a18.29,18.29,0,0,0-5.63-4.5c-4.85-2.41-15.85-3.94-22.71-3.17-10.9,1.24-14,2.6-23.77,10.31a71.73,71.73,0,0,0-14.14,19.69l-7,14.95-2.79,6-21.57,43.17c-17.48,35-20,42.33-17.94,52.13a31.58,31.58,0,0,0,4.07,9.56c3,4.39,11.59,10.37,18.22,12.72L554,546h0l4.85,1.73h4.28c4.6,0,10.54-2.08,13.43-4.69.28-.26,7.67-7.57,6.24-14.31-1-4.57,9.67-15.34,36.17-36.63,9.28-7.45,17.56-13.92,18.39-14.37,1.56-.84,12,4.64,12,6.3s11.64,28,18.09,40.7c3.77,7.42,9.45,17.52,12.63,22.43l5.78,8.93.06,8.31c.07,7.93-.06,8.43-2.86,11.06a25.36,25.36,0,0,0-4.71,6.77c-1,2.2-8.77,13.34-17.33,24.75-40.4,53.87-63.13,88.13-65.62,98.91-3.42,14.86,1.51,45.79,12.34,77.4,3.55,10.36,4.36,13.93,3.91,17.25-.83,6.19,1.94,12.65,6.81,15.88,2.14,1.41,3.9,3,3.9,3.54s2.47,6.57,5.5,13.4,5.5,12.82,5.5,13.3-9.7,6.4-21.55,13.16c-23,13.11-28.44,17-30.44,21.87-1.17,2.82-1.63,3-6.32,3H212.74L84,886l-43.18.26s-4.11.75-4.15,2.36,4.15,2.64,4.15,2.64l35.51.53c19.52.29,244.39.6,499.71.71,416,.16,464.38,0,465.75-1.36a5.14,5.14,0,0,0,1.54-2.34c0-2.76-4.32-3-56.5-3.79L933,884.2l9.41-7.67c14.74-12,23.91-22.4,23.91-27.07,0-6.78-15.6-27.14-24.87-32.47a33.6,33.6,0,0,1-7.24-5.68l-2.6-3,2-4.46c2.26-5.12,2.07-16-.36-19.9-1.77-2.83-6.47-5.07-12.34-5.87-4.19-.58-5.37-1.44-13.33-9.77-16.28-17-33.39-38.44-44.44-55.59-8.37-13-18.85-31.6-19.84-35.24-.49-1.79-1.81-11.13-2.93-20.76-3.53-30.29-6.37-42.19-12.48-52.35-3.31-5.5-3.46-6.11-2.46-10.1,1.44-5.72-.21-11.57-4.65-16.48-3-3.36-3.44-4.45-3.44-9.27,0-4.54-.86-7.23-5.05-15.8-6.51-13.31-7.87-19.21-8.65-37.49l-.63-15,7.41,6.86c7.43,6.88,20.88,17.92,30.66,25.17,4.19,3.1,5.25,4.46,5.25,6.72a14.65,14.65,0,0,0,1.46,5.65c1.38,2.68,6.79,6.07,9.69,6.09.74,0,2.32,1.72,3.51,3.8,8.89,15.57,48.73,62.91,54.48,64.74a2.2,2.2,0,0,1,1.67,2.62c-.23,1.51-2.89,3-10.81,6.25-19.31,7.82-36.48,16-38.89,18.56-2.87,3-6.73,11.17-7.62,16.07-.48,2.69-.18,4.13,1.27,5.91,1.74,2.15,2.65,2.36,9.87,2.26,9.76-.13,12.68-1.17,18.12-6.48l4.25-4.15,4.75,1.38a39.65,39.65,0,0,0,8.25,1.46c3.36.08,3.63-.19,6.73-6.67,2.41-5.05,3.73-6.75,5.25-6.75,1.31,0,2,.66,2,1.87,0,3.48,2.88,8.82,6.44,11.94,5.59,4.91,17.81,7.73,22.52,5.21,3.05-1.63,4.2-6.53,2.6-11.16-1.26-3.65-1.23-3.94.28-3.31,10.16,4.21,21.25,2.52,28.5-4.36,12.56-11.89,10.6-41-3.45-51.15-5.75-4.17-10.17-5.37-17.57-4.77-8,.64-13.36,3.93-16.58,10.26l-2.3,4.51L937.14,605c-2.23-2.32-5-7.19-7.25-12.59-7.17-17.47-16.67-34.64-29.36-53-7.3-10.59-7.46-10.94-6-13.5,4.2-7.33,2.8-12.33-4.16-14.81-4.08-1.44-5.75-3.12-14.66-14.73-5.53-7.2-15.38-20.74-21.89-30.09-30.05-43.15-38.64-51.48-65.65-63.6-20-9-28.7-13.62-36.48-19.43-6.85-5.12-7.19-5.57-8.9-11.9-1-3.62-2.39-7.09-3.15-7.71s-3.39-.93-6.68-.59l-5.32.55L724,357.23c-4.7-8.17-4.75-8.58-1.19-9.77a21.71,21.71,0,0,0,6.33-4.12c3.06-2.87,3.3-3.52,2.9-7.89-.36-3.78-1.31-5.79-4.64-9.73l-4.18-5,2.24-3a10.79,10.79,0,0,0,0-13c-2.23-3-2.24-3.17-.58-7.27,5.8-14.28,7.85-29.75,4.94-37.41-3.79-10-11.61-16.05-19.46-15-3.36.45-4.23.1-7.06-2.81-5.62-5.8-15.64-8.55-26.65-8.41Zm.87,6.07c9.1,0,14.82,1.79,22.56,6.8,4.9,3.16,6.83,3.87,9.46,3.49,4.58-.66,10.55,3,13.21,8.09,3.18,6.09,2.74,16.14-1.35,30.75l-3.29,11.75h-3.34c-7,0-9.3,2.31-11.42,11.5-.63,2.75-2.1,6-3.26,7.25-3,3.26-6.45,2.85-10.29-1.22a15.46,15.46,0,0,1-.75-20.59c1.39-1.66.11-4.06-2.19-4.21-1.77-.11-4-.19-6.29-.22-17.92-.21-26.13-7.12-23.31-19.64,1.13-5,.64-6.25-1.94-4.87-2.06,1.11-4,6.67-4,11.61,0,2.4-1.23,4.39-5.3,8.63-6.61,6.88-12.41,10-17.92,9.56-6.21-.46-8.24-3.79-8.06-13.19.16-8.68,1.64-12.65,7.6-20.39,12.49-16.23,26.71-24,45.74-25,1.46-.07,2.83-.11,4.12-.12Zm-23,49.86c.5,0,.77.33.77,1,0,3,14.85,9,22.25,9,3.6,0,3.82.16,3.06,2.25-2.42,6.67.7,17.06,6.62,22,4.3,3.62,8.29,4.26,12.76,2,5.17-2.57,7.45-6.17,8.18-12.95.6-5.48.81-5.85,3.85-6.72,3.63-1.05,8.76.55,9.71,3,1,2.65-2.48,6.76-10.51,12.39-3.08,2.16-3.8,11-1.48,18.06,2,6.23,7.63,18.16,10.6,22.64,1.25,1.88,2,4.35-3.91,8.16a73.47,73.47,0,0,0-10.6,9.13c-6.43,6.75-6.45,6.94-2,16.82,2.73,6,3.1,9.66,1.06,10.44-6.64,2.55-14.08,1.16-18.21-3.4-1.56-1.72-1.6-2.47-.43-7.37.86-3.57,1.12-8.69.75-14.82l-.56-9.36,3.48-1.87c4.37-2.35,9.07-7.66,11.41-12.88,3.32-7.43,0-7.72-5.56-.49-7.54,9.89-15.51,12.44-26.42,8.47-9.61-3.5-15.06-10.56-21.56-27.87-2.3-6.14-9.53-32.49-9.53-34.74,0-.5,1.26-1.57,2.8-2.37a38.49,38.49,0,0,0,7.23-6c2.9-3,5.11-4.59,6.2-4.6h0Zm-23.9,14.7c1.45,0,1.9.49,2.18,1.77s1.15,5.15,2,9,1.39,7,1.21,7.23c-.53.52-8.36-7.89-9.6-10.31a12.2,12.2,0,0,1-1.11-4.64c0-2.07.56-2.52,3.53-2.87a15,15,0,0,1,1.8-.13Zm28.23,16.32c-.71,0-2.29,2.73-3.5,6.06-1.75,4.78-2,6.36-1,7.5,1.6,1.94,5.86,1.83,8.12-.21a7.15,7.15,0,0,0,1.82-4.87c0-3.39-3.25-8.48-5.43-8.48Zm59.12,3c1.69,0,8,8,8.83,11.17.58,2.33.11,3.08-3.57,5.75-2.34,1.69-4.84,3.07-5.57,3.07-2.59,0-4.62-6-4.16-12.24.41-5.69,1.57-7.71,4.47-7.75Zm16.53,44c.71,0,2.36,2.73,3.65,6.07,3.56,9.17,12.47,17.31,27.86,25.43a28.56,28.56,0,0,1-1.68,5.14c-4.08,10.74-6.29,25.91-6.8,46.64s.41,33.6,3.82,53.69c5.31,31.29,19,75.54,27.35,88.09l2.47,3.73-4.4,1.11a132.3,132.3,0,0,1-13.69,2.09c-19.82,2.08-40.68-.42-58-7l-5.75-2.16-.19-5.18c-.11-2.85.12-10.6.11-17.23,0-5.86,1.11-10-2-17.79l-5.46-13.71c-15.65-39.31-23.87-66.38-26.94-88.73-2-14.55-2-14.85.94-7.72,2.43,6,9.63,14,11.9,13.2.59-.19,1.34-1.67,1.68-3.28,1.15-5.42,10-21.62,14.48-26.37,8.15-8.71,9.2-15.06,4.75-28.72l-2.7-8.3,2.87-3c5-5.21,22.37-16,25.75-16Zm-56,9.69c2.13-.08,2.3.43,2.56,3.5.26,3.23-.07,3.9-2.63,5.22-4.33,2.24-9.18,6.56-9.18,8.18,0,1.93,2.68,1.74,7.75-.56l4.25-1.93v2.46a9.49,9.49,0,0,1-1.13,4.27c-1.67,2.67,1.55,8.75,6.27,11.88,4.41,2.92,11.36,4,15.79,2.46,4.18-1.46,3.87-.15-1.35,5.73a82.11,82.11,0,0,0-13.14,21.34c-1.07,2.61-2.27,4.75-2.67,4.75-1.48,0-3.71-4.85-8.24-18-2.57-7.43-5.51-15.31-6.54-17.5-1.58-3.37-9-24.2-9-25.28s13.32-6.23,16.21-6.46ZM624,382.29c5.68,0,8,.5,10.76,1.91,2.16,1.1,3.84,2.45,3.75,3-.14.95-7.35,3.59-13.47,4.95-3.4.75-3.35,3.88.08,4.37,2.4.34,2.4.26,0,9.68-2.12,8.39-9.64,18.82-16,22.08-4.1,2.12-12.73,1.82-16.35-.58-4.64-3.07-5.86-2.65-5.16,1.75.46,2.9-.77,8.2-5.37,23.25-3.28,10.73-8,27.15-10.47,36.5-10.74,40.57-10.92,41.05-16.82,43.85h0c-7.09,3.37-15.22,1.25-18-4.7-2.67-5.62-3.19-15.25-1.19-22.1.93-3.21,9.7-21.86,19.5-41.45s19-38.75,20.56-42.6c7.07-18,17.83-31.49,29.2-36.69,6-2.73,7.92-3.11,16.29-3.21H624ZM659.83,398c.08.13,1.8,5.18,3.82,11.23,3.24,9.72,3.69,12.17,3.69,21,0,28.83,8.76,60.64,31.31,114.19L704,557.2l-.5,14.75c-.27,8.11-.81,14.75-1.21,14.75s-2.52-2-4.74-4.44c-4.47-4.91-6.9-12.29-6-18.1.79-4.89-.66-9.06-6.46-18.55-5.16-8.44-15.88-30.63-24.16-50-9-21-21.26-56.16-20.22-57.84.28-.46-.17-1.38-1-2.06-1.19-1-1.82-1-3.11.11-2.43,2-1.27,9.18,4,24.73l4.52,13.33-4.69-3.81c-2.59-2.09-7.31-5.94-10.5-8.57s-6.23-4.78-6.75-4.78c-2.66,0-.35,4.8,5,10.34l5.92,6.16-4.67,3.11c-4.67,3.1-27.1,20.9-37,29.39a97.47,97.47,0,0,0-10.44,11c-4.2,5.27-5.2,7.27-5.31,10.57-.27,8.69-5.33,14.43-12.72,14.43-4.28,0-9.67-1-9.67-1.87,0-.35,2.26-1.9,5-3.45s5.65-3.8,6.42-5c1.32-2.06,3.59-10,11-38.68,1.79-6.87,5.76-20.82,8.83-31s6-20,6.43-21.93l.84-3.44,7.46-.06c6.24-.06,8.2-.51,12.09-2.8,6.81-4,13.3-11.76,16.55-19.8,1.7-4.2,3.4-6.95,4.31-7s7.1-2,13.94-4.49,12.5-4.35,12.58-4.23Zm113.51,5a.74.74,0,0,1,.28.06c.65.29,8.62,3.67,17.69,7.52,15.13,6.4,16.91,7.43,21.36,12.31a334.75,334.75,0,0,1,29.17,36.82c5.94,8.52,12.44,17.52,14.44,20s6.22,8.15,9.4,12.61c8.44,11.89,17.5,21.42,21.62,22.76,3.65,1.17,4.62,3.09,3.62,7.06-.46,1.84-1.49,2.41-5.29,2.94a36.46,36.46,0,0,0-9.1,2.76c-5,2.42-15.1,11.4-17.17,15.27-1.73,3.23-2.14,3.23-5.41,0a8.05,8.05,0,0,1-2.64-6.44c0-3-.52-4.09-2.39-5.12-5.25-2.85-38.95-32.09-52.49-45.53-7.9-7.85-14.54-14.27-14.75-14.27s-.37,1.1-.37,2.46c0,2.43,5.39,9.9,13,18l3.74,4,.58,17.5c.75,22.37,1.7,27.2,7.86,40,6,12.49,6.36,16.33,2.32,26-3,7.07-5.53,10.42-9.72,12.59a16.1,16.1,0,0,1-3.23,1.41c-2,0-12.12-26-17.91-46C766.77,509,761.89,471.5,764.21,442.1c1.53-19.38,6.17-39.06,9.12-39.09h0ZM886.6,531.18c2,0,3.19,1.87,9.34,11.3,11.55,17.7,19.07,31.15,26.58,47.56,6.88,15,7.79,16.34,20.3,29.37,11.59,12.07,12.73,16,7,23.94-7.73,10.71-8.66,12.29-8,13.39a2.41,2.41,0,0,0,2.53.66c1.9-.49,3,1.06,3,4.39,0,2.33-3.3,2.46-10,.38-9.83-3-11.37-6.63-14-32.62l-1.06-10.66L911,607.55c-11.23-11.31-25.29-28-40.14-47.74L863,549.41l1.9-3.52c3.13-5.81,13.43-13.23,20.13-14.51a7.39,7.39,0,0,1,1.55-.2ZM687.52,578.63l2.79,4.4a32.3,32.3,0,0,0,6.22,7c3.77,2.88,18.66,10.1,23.11,11.2,2.51.63,2.74,1,2,3.33a43.52,43.52,0,0,0-.83,9.37v6.72s-3.19-1.3-7.1-2.84c-13.25-5.23-26.34-14.9-30.28-22.36-1.78-3.38-.73-10.71,2-14.23Zm127.94,2.07c1.41,0,3.93,4.64,4.53,8.37.75,4.6-3,12.66-8.37,17.79-6.23,6-18.94,14.56-24.91,16.79s-20.4,4-20.4,2.45c0-.5-.45-3.6-1-6.9a34.78,34.78,0,0,1-.41-9.12c.57-3.09.63-3.11,8.28-3.75,8.17-.68,20.41-3.69,25.31-6.22A34.76,34.76,0,0,0,812,586C813.46,583.1,815,580.7,815.46,580.7ZM677.68,595.57c.36,0,.58.43.82,1.1a36.45,36.45,0,0,0,4.91,7.14c2.23,2.67,3.74,5.36,3.35,6s-2.55,2-4.82,3c-5.3,2.41-8.51,2.19-14.44-1-2.17-1.16-2.1-1.32,4-9.3,3.94-5.17,5.41-7,6.21-6.93Zm283.57,4.15a19.54,19.54,0,0,1,8.56,1.87c8.18,3.77,12.83,12.32,12.83,23.61,0,13.62-4.3,21.23-13.6,24a29.08,29.08,0,0,1-6.66,1.36c-5.14-.53-8.07-1-8.07-1.36a44.8,44.8,0,0,1,2.35-4.79,43.07,43.07,0,0,0,2.91-6.56c.42-1.61,1.33-2.14,3.7-2.14,6.62,0,10.81-8.48,7.56-15.32-3.14-6.61-11-8.22-17-3.49l-2.6,2-2.52-2.36c-2-1.86-2.4-3-1.93-5.32,1.42-7.06,7.43-11.4,14.5-11.53ZM822,604.42l2.73,5.56c2.61,5.35,6.51,18.39,6.54,21.92,0,1.07-1.7,2.46-4.61,3.75-4.94,2.19-8.48,2.48-12.15,1-3.19-1.28-9.49-6.48-12.06-9.95l-2.14-2.91,7.46-5.62a80.64,80.64,0,0,0,10.85-9.69Zm-91.07.4c.72,0,1.63.13,2.81.28,2.77.33,9.81.89,15.62,1.24L760,607l-.94,4.11c-.69,3-.53,5.66.57,9.87l1.51,5.75-4.15-.15c-9-.32-28.63-3.66-30.52-5.18-1.57-1.27-.93-9.84,1.07-14.24.86-1.87,1.28-2.4,3.44-2.31ZM691.9,613a5.79,5.79,0,0,1,2.31,1.16c12.64,8.3,36.58,16.06,53,17.17a75.43,75.43,0,0,1,11.9,1.59c4.81,1.46,23.33-.75,30.48-3.63l5.76-2.32,3,3.83c4.45,5.62,12,10.75,17.73,12.08,4.13.95,5.82.89,9.38-.34,2.39-.82,5-1.68,5.77-1.89,1.11-.32,1.8,2.47,3.21,13.09,2.48,18.7,4.41,27.57,7.08,32.6,1.26,2.36,4,7.54,6.13,11.52,13.17,24.72,36,55,58,77.06,7,7,8.19,7.79,13.42,8.87,9.52,2,9.58,2,9,10.58-.42,6.54-.93,8.07-4.2,12.83a40.77,40.77,0,0,1-18.45,14c-5.85,2-7.73,1.93-13.66-.84-4.52-2.1-10.46-7.53-10.46-9.56s-15-17.32-30.11-30.81c-9.14-8.16-18.78-17.53-21.43-20.81s-8.06-9.56-12-14-13.59-15.65-21.4-25c-17.27-20.67-33.4-38.08-38.69-41.75-2.16-1.49-7.36-3.6-11.56-4.67-17.16-4.39-34.41-12.5-42-19.74-2.69-2.58-4.83-2.46-4.83.27,0,.81,2,3.63,4.48,6.27l4.48,4.79-8.7,5.92c-10.9,7.41-32.17,25-43,35.52S643,723,642.47,734.77c-.54,13.57,5.08,39.7,11,51,3.14,6,4.84,13.78,3.92,17.9-.43,1.91-2.4,3.42-8.37,6.43-6.8,3.43-8.9,4-16.26,4.38l-8.44.44-3.49-3.7c-3.25-3.44-4.22-6.7-3.6-12.12.06-.59-2.58-10.66-5.88-22.38-8.31-29.56-11.22-44.76-11.28-59,0-9.2.31-12.2,1.75-15,5.69-11,36.37-56,54.73-80.25l5.82-7.71,4.64,2.46c7.51,4,16.88,2.91,22.39-2.59,1.21-1.21,1.79-1.74,2.52-1.69h0Zm269.17,6.93a5.14,5.14,0,0,1,2.68,1.18c2.94,1.92,3.32,5.11,1,8.41-2.46,3.51-5,2.76-7.81-2.32l-2.54-4.54L957.8,621A8.3,8.3,0,0,1,961.07,619.89Zm-45.23,11.35c2.47-.09,2.34,2.23,2.4,7.21.06,4.1-.26,5.25-1.47,5.25-2,0-6.16,4.51-8.68,9.5-1.11,2.2-2.15,4.15-2.31,4.33s-2.75-.45-5.75-1.39c-7-2.22-10-1.43-15.13,4-3.9,4.14-4.42,4.37-11.35,5-8.74.8-9.23.21-6.28-7.55,2.86-7.54,2.71-7.4,11.05-10.75,4.12-1.65,14.47-6.13,23-10C909.46,633.27,913.66,631.32,915.84,631.24ZM712.72,668.67c1.17.07,3.08,1,7.37,3.13,8.9,4.39,23.7,8.9,29.26,8.9,3.59,0,4.52.75,15.82,12.75,6.6,7,17.92,19.72,25.16,28.25,29.93,35.23,44.56,51.08,60.31,65.29s21.42,20.12,25.18,26.21c2.78,4.49,7.63,9.48,10.88,11.18a35,35,0,0,0,8.92,2.36c5.43.77,6.55,1.36,11.25,6l5.22,5.16-6.6,9.64a159,159,0,0,1-17.26,20.15c-5.85,5.77-11.39,12-12.3,13.75l-1.66,3.25h-42c-28.58,0-37.76-.06-40.65-.73,0,0-70.25.73-84.82.73s-26.51-.34-26.51-.75c-.06-8.24-7.43-33.84-11.06-38.43-2.44-3.09-3.4-6.19-6-19.21-2.85-14.46-2.95-15.73-1.51-18.52,3-5.7.91-19.32-4-26.84-3-4.64-8.5-29.12-9.13-40.94-.54-10.15-.38-11.69,1.71-16.85s3.77-6.93,16.9-18.19c8-6.88,20.67-17.14,28.09-22.79s14.3-11.16,15.28-12.24c.77-.84,1.22-1.32,2.12-1.27Zm215.4,144,4.17,5,4.18,5-2.79,5.12a25.3,25.3,0,0,1-7,8c-2.32,1.6-4.81,2.85-5.54,2.78s-4-2.73-7.18-5.92l-5.87-5.8,4.51-2.06a48.9,48.9,0,0,0,10-7.09Zm-273.41,1.21a.14.14,0,0,1,.12,0c.14.16.94,4.11,1.79,8.79s2.28,11.65,3.19,15.5c2.3,9.68,2.31,9.49-.55,11.66s-12.25,3.35-15.61,1.9a5.89,5.89,0,0,1-2.87-3.25c-.4-1.27-3.5-8.17-6.9-15.32l-6.19-13,3.68.35c4.54.44,15.25-2.22,19.81-4.91a17,17,0,0,1,3.52-1.73ZM942,823.54l5.68,6.15c8.31,9,14,17.67,13.29,20.39-.73,2.94-14.59,16.54-27.09,26.6-9.27,7.46-10.3,8-14.64,8-4,0-4.75-.32-5.24-2.25-.91-3.56-9.37-12.52-13.09-13.87l-3.39-1.22,4.07-4.83c2.24-2.66,4.6-4.83,5.24-4.83,3.43,0,12,3.47,14.92,6,3.88,3.41,5.6,3.75,5.6,1.1,0-4.22-5.83-9-14-11.5l-3.73-1.14,3-5.23c2.69-4.74,3.12-5.09,4.53-3.68,1.64,1.63,4,1.39,9.71-1,5.31-2.22,9.8-6.84,12.55-12.89ZM635.18,853.12c.75,0,1.38.55,2.73,1.9,5.06,5.06,13.15,5.29,23.9.68,2.63-1.12,5-1.85,5.24-1.6.75.76,5.93,20.77,6.68,25.85l.71,4.75h-48l-2-4.25a23.76,23.76,0,0,0-9.39-11L611.46,867l6.57-3.66,6.58-3.64,4.54,2.66a36.72,36.72,0,0,1,6.8,5.1c2.4,2.59,4.36,2.3,4.36-.66,0-2-3-5.5-7.35-8.65l-2.86-2.06,2.68-1.76a6,6,0,0,1,2.39-1.2h0Zm-29.73,18a7.3,7.3,0,0,1,3.21,1c3.59,1.71,7.3,5.27,10.15,9.76l1.74,2.75-17.36,0-17.37,0,4.58-4.21a58.77,58.77,0,0,1,9.73-7c2.81-1.53,4.12-2.21,5.32-2.23ZM894.8,873.5c4,0,5.74,1.14,10.94,7l3.81,4.25H878.92l3.45-3.59c5.3-5.52,8.72-7.61,12.43-7.61Z" class="cls-8" id="path2623"></path></svg>