<svg t="1710672535788" class="icon" viewBox="0 0 1024 1024" version="1.1" xmlns="http://www.w3.org/2000/svg" p-id="1696" width="200" height="200"><path d="M512 172s52 8.044 52 48v52h40s24 2.384 24 36-20 55.244-20 100 39.432 83.72 83.72 83.72 78.116-46.588 78.116-78.116S756 320.52 756 300c0-20.52 14.4-27.456 27.456-27.456H820s-0.444-80.36 84.936-94.448a19.988 19.988 0 0 1 23.176 22.76C910.676 313.204 840 768 840 768H184L95.864 200.86a20 20 0 0 1 23.204-22.792C204.444 192.184 204 272.544 204 272.544h36.544C253.6 272.544 268 279.48 268 300s-13.836 82.076-13.836 113.604c0 31.528 33.828 78.116 78.116 78.116S416 452.756 416 408s-20-66.384-20-100 24-36 24-36h40V220c0-39.956 52-48 52-48z" fill="#FFB41F" p-id="1697"></path><path d="M174.676 708L95.864 200.86a20 20 0 0 1 23.204-22.792C204.444 192.184 204 272.544 204 272.544h36.544C253.6 272.544 268 279.48 268 300s-13.836 82.076-13.836 113.604c0 31.528 33.828 78.116 78.116 78.116S416 452.756 416 408s-20-66.384-20-100 24-36 24-36h40V220c0-39.956 52-48 52-48s52 8.044 52 48v52h40s24 2.384 24 36-20 55.244-20 100 39.432 83.72 83.72 83.72c4.496 0 8.884-0.48 13.136-1.376l-7.94 168.312c0 27.232-21.452 49.344-47.872 49.344H174.676z" fill="#FFC556" p-id="1698"></path><path d="M492.944 440.584a22.904 22.904 0 0 1 38.112 0l52.476 78.712a22.904 22.904 0 0 1 0 25.408l-52.476 78.712a22.904 22.904 0 0 1-38.112 0l-52.476-78.712a22.904 22.904 0 0 1 0-25.408l52.476-78.712z" fill="#FF2A5C" p-id="1699"></path><path d="M462.412 528a7.14 7.14 0 0 1-5.676-11.464l42.448-55.716c1.856-2.436 5.06-3.416 7.96-2.436a7.136 7.136 0 0 1 4.856 6.764v55.712a7.124 7.124 0 0 1-7.14 7.14h-42.448z" fill="#FFFFFF" fill-opacity=".3" p-id="1700"></path><path d="M862 777a25.016 25.016 0 0 0-25-25H187a25.016 25.016 0 0 0-25 25v50a25.016 25.016 0 0 0 25 25h650a25.016 25.016 0 0 0 25-25v-50z" fill="#FFA652" p-id="1701"></path><path d="M638 777a25.016 25.016 0 0 0-25-25H187a25.016 25.016 0 0 0-25 25v50a25.016 25.016 0 0 0 25 25h426a25.016 25.016 0 0 0 25-25v-50z" fill="#FFB443" p-id="1702"></path><path d="M394 777a25.016 25.016 0 0 0-25-25h-182a25.016 25.016 0 0 0-25 25v50a25.016 25.016 0 0 0 25 25h182a25.016 25.016 0 0 0 25-25v-50z" fill="#FFCD61" p-id="1703"></path></svg>