<?xml version="1.0" standalone="no"?><!DOCTYPE svg PUBLIC "-//W3C//DTD SVG 1.1//EN" "http://www.w3.org/Graphics/SVG/1.1/DTD/svg11.dtd"><svg height="1080" node-id="1" sillyvg="true" template-height="1080" template-width="1080" version="1.1" viewBox="0 0 1080 1080" width="1080" xmlns="http://www.w3.org/2000/svg" xmlns:xlink="http://www.w3.org/1999/xlink"><defs node-id="66"></defs><g node-id="230"><path d="M 879.07 701.88 C 879.07 701.88 855.07 663.63 903.07 584.61 C 951.07 505.59 951.97 250.89 726.53 322.74 C 501.09 394.60 391.40 436.52 246.10 349.13 C -37.38 178.61 162.11 701.88 162.11 701.88 L 879.07 701.88" fill="#cce9ff" fill-opacity="0.3" fill-rule="nonzero" group-id="1" node-id="72" stroke="none" target-height="523.273" target-width="989.34796" target-x="-37.381" target-y="178.609"></path></g><g node-id="231"><g node-id="238"><path d="M 341.85 263.52 L 398.06 395.41 L 439.14 367.30 L 462.95 401.90 L 467.25 343.54 L 516.97 313.24 Z" fill="#cce9ff" fill-opacity="0.5" fill-rule="nonzero" group-id="2,9" node-id="79" stroke="none" target-height="138.379" target-width="175.12097" target-x="341.849" target-y="263.519"></path></g><g node-id="239"><path d="M 448.25 361.06 L 398.06 395.41 L 439.14 367.30 L 462.95 401.90 L 467.25 343.54 L 388.02 296.35 Z" fill="#0b4870" fill-opacity="0.1" fill-rule="nonzero" group-id="2,10" node-id="84" stroke="none" target-height="105.54401" target-width="79.229004" target-x="388.02" target-y="296.354"></path></g><path d="M 466.20 357.84 L 388.02 296.35 L 467.25 343.54 Z" fill="#0b4870" fill-opacity="0.1" fill-rule="nonzero" group-id="2,11" node-id="89" stroke="none" target-height="61.488983" target-width="79.229004" target-x="388.02" target-y="296.354"></path></g><g node-id="232"><g node-id="241"><path d="M 463.96 418.35 C 463.52 415.78 462.95 413.21 462.29 410.73 L 466.14 409.69 C 466.84 412.30 467.43 414.98 467.89 417.67 L 463.96 418.35 Z" fill="#cce9ff" fill-rule="nonzero" group-id="3,12" node-id="97" stroke="none" target-height="8.652985" target-width="5.6019897" target-x="462.289" target-y="409.694"></path><path d="M 417.42 507.93 C 411.62 507.54 406.08 505.70 401.39 502.58 L 403.60 499.26 C 407.71 501.99 412.58 503.61 417.68 503.95 L 417.42 507.93 Z M 433.99 504.68 L 432.23 501.10 C 436.38 499.06 440.39 495.89 444.17 491.70 L 447.13 494.36 C 443.02 498.94 438.60 502.41 433.99 504.68 Z M 390.29 489.84 C 388.03 485.28 386.84 480.27 386.85 475.35 C 386.85 474.94 386.85 474.54 386.87 474.13 L 386.92 473.27 L 390.90 473.56 L 390.86 474.29 C 390.84 474.65 390.84 475.00 390.84 475.35 C 390.83 479.66 391.88 484.06 393.86 488.08 L 390.29 489.84 Z M 544.66 488.93 L 544.65 484.94 C 549.84 484.92 555.19 484.70 560.54 484.31 L 560.83 488.29 C 555.39 488.69 549.96 488.91 544.66 488.93 Z M 528.48 488.41 L 525.93 488.21 C 521.03 487.81 516.58 487.25 512.35 486.52 L 513.02 482.59 C 517.15 483.30 521.48 483.84 526.26 484.24 L 528.76 484.43 L 528.48 488.41 Z M 576.91 486.60 L 576.37 482.64 C 581.50 481.94 586.79 481.07 592.09 480.05 L 592.85 483.96 C 587.48 485.00 582.12 485.88 576.91 486.60 Z M 496.49 482.56 C 491.80 480.97 487.40 479.02 483.42 476.77 C 482.80 476.42 482.17 476.05 481.56 475.68 L 483.62 472.26 C 484.20 472.62 484.78 472.96 485.38 473.29 C 489.15 475.42 493.32 477.27 497.77 478.79 L 496.49 482.56 Z M 456.67 480.97 L 453.21 478.98 C 455.80 474.49 458.01 469.70 459.79 464.76 L 463.55 466.11 C 461.68 471.27 459.37 476.27 456.67 480.97 Z M 608.62 480.53 L 607.68 476.65 C 612.67 475.44 617.87 474.07 623.11 472.56 L 624.21 476.40 C 618.91 477.92 613.66 479.31 608.62 480.53 Z M 639.63 471.69 L 638.39 467.90 C 643.47 466.25 648.51 464.53 653.53 462.75 L 654.87 466.51 C 649.82 468.31 644.73 470.04 639.63 471.69 Z M 468.23 466.44 C 464.56 463.76 460.62 460.95 456.35 458.62 L 455.02 457.91 L 456.85 454.37 C 457.32 454.61 457.80 454.86 458.27 455.12 C 462.75 457.57 466.97 460.58 470.58 463.21 L 468.23 466.44 Z M 396.49 460.44 L 393.70 457.58 C 397.21 454.14 402.01 451.56 408.38 449.70 L 409.73 453.47 C 403.86 455.18 399.48 457.50 396.49 460.44 Z M 440.44 452.64 C 435.91 451.63 431.26 451.11 426.62 451.11 L 425.00 451.13 L 424.90 447.14 C 430.39 447.01 435.94 447.54 441.32 448.75 L 440.44 452.64 Z M 467.76 450.29 L 463.83 449.60 C 464.75 444.44 465.22 439.18 465.25 433.97 L 469.24 433.99 C 469.21 439.43 468.71 444.91 467.76 450.29 Z" fill="#cce9ff" fill-rule="nonzero" group-id="3,12" node-id="99" stroke="none" target-height="73.96002" target-width="268.023" target-x="386.844" target-y="433.972"></path><path d="M 670.14 460.88 L 668.72 457.15 C 671.21 456.21 673.69 455.25 676.16 454.28 L 677.61 458.00 C 675.13 458.97 672.64 459.93 670.14 460.88 Z" fill="#cce9ff" fill-rule="nonzero" group-id="3,12" node-id="101" stroke="none" target-height="6.602997" target-width="8.888977" target-x="668.724" target-y="454.28"></path></g></g><path d="M 836.06 538.41 C 834.03 538.41 832.29 536.87 832.09 534.80 C 831.88 532.61 833.48 530.66 835.67 530.45 C 859.79 528.11 881.97 516.60 898.14 498.04 C 899.59 496.37 902.11 496.20 903.77 497.65 C 905.43 499.09 905.61 501.61 904.16 503.28 C 886.65 523.39 862.60 535.86 836.45 538.39 C 836.31 538.41 836.18 538.41 836.06 538.41 Z" fill="#cce9ff" fill-rule="nonzero" node-id="105" stroke="none" target-height="42.208008" target-width="73.731995" target-x="831.875" target-y="496.203"></path><path d="M 747.13 555.33 L 608.12 637.30 L 469.11 555.33 C 469.11 555.26 469.11 555.17 469.13 555.10 C 469.24 554.58 476.92 548.18 488.62 538.67 C 488.73 538.58 488.82 538.49 488.93 538.40 C 527.32 507.24 608.12 443.41 608.12 443.41 C 608.12 443.41 688.92 507.24 727.30 538.40 C 739.18 548.04 746.99 554.56 747.11 555.10 C 747.13 555.17 747.13 555.26 747.13 555.33 Z" fill="#00aef0" fill-rule="nonzero" node-id="107" stroke="none" target-height="193.89398" target-width="278.02002" target-x="469.107" target-y="443.411"></path><path d="M 747.13 555.33 L 608.12 637.30 L 469.11 555.33 C 469.11 555.26 469.11 555.17 469.13 555.10 C 469.24 554.58 476.92 548.18 488.62 538.67 C 488.73 538.58 488.82 538.49 488.93 538.40 C 527.32 507.24 608.12 443.41 608.12 443.41 C 608.12 443.41 688.92 507.24 727.30 538.40 C 739.18 548.04 746.99 554.56 747.11 555.10 C 747.13 555.17 747.13 555.26 747.13 555.33 Z" fill="#0b4870" fill-opacity="0.4" fill-rule="nonzero" group-id="4" node-id="111" stroke="none" target-height="193.89398" target-width="278.02002" target-x="469.107" target-y="443.411"></path><path d="M 665.29 375.52 L 515.30 375.52 C 502.44 375.52 492.01 385.95 492.01 398.81 L 492.01 625.59 C 492.01 638.45 502.44 648.88 515.30 648.88 L 703.24 648.88 C 716.10 648.88 726.53 638.45 726.53 625.59 L 726.53 436.77 L 665.29 375.52 Z" fill="#cce9ff" fill-rule="nonzero" node-id="114" stroke="none" target-height="273.35803" target-width="234.52002" target-x="492.01" target-y="375.521"></path><path d="M 665.29 413.47 C 665.29 426.34 675.72 436.76 688.58 436.76 L 726.53 436.76 L 665.29 375.52 L 665.29 413.47 Z" fill="#cce9ff" fill-rule="nonzero" node-id="116" stroke="none" target-height="61.24402" target-width="61.24402" target-x="665.286" target-y="375.521"></path><path d="M 587.53 413.85 L 535.78 413.85 C 531.20 413.85 527.49 417.57 527.49 422.15 L 527.49 473.89 C 527.49 478.48 531.20 482.19 535.78 482.19 L 587.53 482.19 C 592.11 482.19 595.83 478.48 595.83 473.89 L 595.83 422.15 C 595.83 417.57 592.11 413.85 587.53 413.85 Z" fill="#00aef0" fill-rule="nonzero" node-id="118" stroke="none" target-height="68.34" target-width="68.339966" target-x="527.486" target-y="413.853"></path><path d="M 658.41 501.18 L 534.25 501.18 C 530.56 501.18 527.57 504.18 527.57 507.87 L 527.57 507.87 C 527.57 511.56 530.56 514.55 534.25 514.55 L 658.41 514.55 C 662.10 514.55 665.10 511.56 665.10 507.87 L 665.10 507.87 C 665.10 504.18 662.11 501.18 658.41 501.18 Z" fill="#00aef0" fill-rule="nonzero" node-id="120" stroke="none" target-height="13.371002" target-width="137.53003" target-x="527.568" target-y="501.184"></path><path d="M 658.41 534.49 L 534.25 534.49 C 530.56 534.49 527.57 537.48 527.57 541.17 L 527.57 541.17 C 527.57 544.87 530.56 547.86 534.25 547.86 L 658.41 547.86 C 662.10 547.86 665.10 544.87 665.10 541.17 L 665.10 541.17 C 665.10 537.48 662.11 534.49 658.41 534.49 Z" fill="#00aef0" fill-rule="nonzero" node-id="122" stroke="none" target-height="13.371033" target-width="137.53003" target-x="527.568" target-y="534.488"></path><path d="M 602.02 566.80 L 534.25 566.80 C 530.56 566.80 527.57 569.79 527.57 573.48 L 527.57 573.48 C 527.57 577.17 530.56 580.17 534.25 580.17 L 602.02 580.17 C 605.72 580.17 608.71 577.17 608.71 573.48 L 608.71 573.48 C 608.71 569.79 605.72 566.80 602.02 566.80 Z" fill="#00aef0" fill-rule="nonzero" node-id="124" stroke="none" target-height="13.370972" target-width="81.143005" target-x="527.568" target-y="566.796"></path><path d="M 747.14 555.32 L 747.14 688.69 C 747.14 698.01 739.52 705.62 730.20 705.62 L 486.02 705.62 C 476.70 705.62 469.12 698.01 469.12 688.69 L 469.12 555.32 L 608.13 637.29 L 747.14 555.32 Z" fill="#00aef0" fill-rule="nonzero" group-id="5" node-id="128" stroke="none" target-height="150.302" target-width="278.018" target-x="469.123" target-y="555.323"></path><path d="M 742.44 700.32 L 652.97 610.85 L 608.13 637.28 L 563.27 610.83 L 473.80 700.31 C 476.88 703.56 481.20 705.62 486.02 705.62 L 730.20 705.62 C 735.02 705.62 739.35 703.57 742.44 700.32 Z" fill="#0b4870" fill-opacity="0.2" fill-rule="nonzero" group-id="5,13" node-id="132" stroke="none" target-height="94.791016" target-width="268.647" target-x="473.796" target-y="610.834"></path><path d="M 819.86 341.93 C 779.85 345.86 747.88 378.84 745.01 418.94 C 743.59 438.91 749.25 457.44 759.66 472.44 C 763.59 478.10 764.23 485.40 761.59 491.75 L 754.99 507.64 L 781.97 500.64 C 786.36 499.50 791.01 499.86 795.17 501.67 C 807.68 507.09 821.76 509.56 836.56 508.13 C 875.84 504.33 907.62 472.61 911.41 433.33 C 916.50 380.63 872.57 336.75 819.86 341.93 Z" fill="#3c8cf8" fill-opacity="0.5" fill-rule="nonzero" group-id="6,14,17" node-id="142" stroke="none" target-height="172.80899" target-width="172.91296" target-x="743.59" target-y="336.754"></path><path d="M 830.37 467.22 L 834.96 462.63 C 834.96 462.63 831.32 454.04 846.60 439.55 C 855.70 430.93 857.73 422.58 856.99 415.75 C 855.82 404.89 846.94 396.01 836.08 394.84 C 829.25 394.10 820.90 396.13 812.28 405.23 C 797.79 420.51 789.20 416.87 789.20 416.87 L 784.61 421.46 L 830.37 467.22 Z" fill="#3c8cf8" fill-rule="nonzero" group-id="6,14,18" node-id="147" stroke="none" target-height="73.125" target-width="73.127014" target-x="784.607" target-y="394.097"></path><path d="M 794.96 439.19 C 791.33 444.14 791.74 451.13 796.22 455.61 C 800.70 460.09 807.69 460.50 812.64 456.87 L 794.96 439.19 Z" fill="#3c8cf8" fill-rule="nonzero" group-id="6,14,18" node-id="149" stroke="none" target-height="21.30899" target-width="21.309021" target-x="791.331" target-y="439.19"></path><path d="M 860.20 400.41 L 857.34 403.26 C 855.12 399.73 852.10 396.71 848.53 394.50 L 851.41 391.62 C 853.85 389.18 857.79 389.19 860.22 391.62 C 862.64 394.03 862.64 397.97 860.20 400.41 Z" fill="#3c8cf8" fill-rule="nonzero" group-id="6,14,18" node-id="151" stroke="none" target-height="14.081024" target-width="14.103027" target-x="848.534" target-y="389.184"></path><path d="M 346.61 302.63 L 364.85 344.47 C 365.77 346.60 364.79 349.08 362.66 350.00 L 362.01 350.28 C 359.86 351.21 357.38 350.21 356.47 348.06 L 338.88 305.94 C 337.95 303.73 339.06 301.19 341.30 300.36 L 341.30 300.36 C 343.39 299.59 345.73 300.58 346.61 302.63 Z" fill="#cce9ff" fill-rule="nonzero" node-id="156" stroke="none" target-height="51.62198" target-width="27.819" target-x="337.955" target-y="299.588"></path><path d="M 977.86 728.30 C 977.86 742.89 966.03 754.72 951.44 754.72 L 143.19 754.72 C 128.60 754.72 116.78 742.89 116.78 728.30 L 116.78 728.30 C 116.78 713.71 128.60 701.88 143.19 701.88 L 951.44 701.88 C 966.03 701.88 977.86 713.71 977.86 728.30 L 977.86 728.30 Z" fill="#cce9ff" fill-rule="nonzero" node-id="158" stroke="none" target-height="52.836" target-width="861.086" target-x="116.776" target-y="701.882"></path><path d="M 430.97 667.09 C 430.00 666.23 428.94 665.35 427.76 664.40 C 415.88 654.88 344.44 615.17 324.31 605.91 C 322.93 605.28 321.14 605.39 319.26 606.08 C 317.69 606.37 316.00 607.14 314.17 608.57 C 298.35 620.89 210.45 679.34 212.21 682.56 C 216.81 690.93 266.00 671.26 296.16 654.56 C 305.39 649.45 312.72 645.56 320.74 641.28 C 325.68 644.87 336.03 653.58 347.83 663.08 C 365.49 677.28 386.22 693.17 396.33 695.98 C 409.45 699.60 419.00 699.42 426.11 694.50 C 440.31 684.63 445.38 679.65 430.97 667.09 Z" fill="#0b4870" fill-rule="nonzero" group-id="7" node-id="162" stroke="none" target-height="94.31897" target-width="234.93901" target-x="210.446" target-y="605.283"></path><path d="M 426.11 694.50 C 419.00 699.43 409.45 699.60 396.33 695.98 C 386.22 693.18 365.49 677.29 347.83 663.08 C 379.02 663.37 415.05 666.91 428.05 667.06 C 429.02 667.09 430.00 667.09 430.97 667.09 C 445.38 679.65 440.31 684.63 426.11 694.50 Z" fill="#0b4870" fill-rule="nonzero" group-id="7" node-id="164" stroke="none" target-height="36.526" target-width="97.55002" target-x="347.835" target-y="663.078"></path><path d="M 395.14 609.74 C 391.36 606.58 382.19 597.46 377.46 592.70 C 374.71 589.94 374.12 585.50 376.50 582.42 C 376.72 582.13 376.96 581.85 377.24 581.58 C 379.24 579.62 380.50 581.65 382.58 583.03 C 392.21 589.45 411.80 598.26 421.40 600.99 C 431.48 603.86 434.83 611.02 427.65 621.35 C 423.59 627.19 406.11 618.90 395.14 609.74 Z" fill="#cce9ff" fill-rule="nonzero" group-id="7" node-id="166" stroke="none" target-height="47.57599" target-width="60.705994" target-x="374.121" target-y="579.615"></path><path d="M 483.36 606.20 C 483.36 606.35 483.33 606.50 483.33 606.64 C 482.85 613.28 482.24 619.79 481.59 625.98 C 479.20 648.92 476.22 667.05 476.22 667.05 L 417.02 667.05 C 405.68 667.05 397.01 656.97 398.75 645.76 C 400.34 635.41 402.08 621.97 403.23 607.00 C 403.35 605.37 403.46 603.75 403.58 602.10 C 404.32 591.28 404.67 579.82 404.41 568.20 L 404.41 568.08 C 404.26 561.30 403.91 554.46 403.29 547.68 C 403.61 543.50 396.71 524.78 420.03 523.83 L 453.82 522.42 C 465.90 521.89 475.48 530.41 480.02 541.23 C 480.47 542.26 480.85 543.38 481.23 544.59 C 485.42 558.38 485.12 582.79 483.36 606.20 Z" fill="#cce9ff" fill-rule="nonzero" group-id="7" node-id="168" stroke="none" target-height="145.16095" target-width="88.70599" target-x="396.713" target-y="521.887"></path><path d="M 483.36 606.20 C 483.36 606.35 483.33 606.50 483.33 606.64 L 473.15 602.04 L 467.91 540.46 L 481.23 544.59 C 485.42 558.38 485.12 582.79 483.36 606.20 Z" fill="#0b4870" fill-opacity="0.1" fill-rule="nonzero" group-id="7,15" node-id="172" stroke="none" target-height="66.18298" target-width="17.511017" target-x="467.908" target-y="540.46"></path><path d="M 483.37 606.19 C 482.88 612.97 482.25 619.66 481.59 625.98 C 479.00 624.78 476.50 623.45 474.24 622.04 C 471.65 620.44 466.77 616.92 462.16 613.51 L 452.16 606.07 C 452.50 607.10 452.31 607.91 451.71 608.33 L 451.71 608.36 C 451.35 608.63 450.84 608.73 450.27 608.69 L 405.72 603.97 C 404.67 603.78 403.98 603.09 403.58 602.10 C 404.31 591.29 404.67 579.81 404.40 568.19 L 404.40 568.10 L 444.75 586.86 C 445.18 586.95 445.60 587.04 446.02 587.16 C 449.54 588.12 452.16 592.25 454.30 595.65 C 455.42 595.68 456.56 596.68 458.04 597.37 C 464.30 600.38 474.27 603.72 483.37 606.19 Z" fill="#0b4870" fill-opacity="0.1" fill-rule="nonzero" group-id="7,16" node-id="177" stroke="none" target-height="57.88501" target-width="79.78" target-x="403.585" target-y="568.096"></path><path d="M 370.62 563.41 C 370.65 563.70 370.72 564.00 370.83 564.31 L 384.74 597.93 C 385.39 599.49 387.21 600.78 388.79 600.80 L 447.54 602.54 C 448.12 602.52 448.62 602.39 448.98 602.11 L 448.98 602.07 C 449.53 601.59 449.66 600.77 449.26 599.79 L 435.35 566.14 C 434.73 564.62 432.91 563.33 431.33 563.30 L 372.58 561.57 C 371.31 561.54 370.56 562.30 370.62 563.41 Z" fill="#3c8cf8" fill-rule="nonzero" group-id="7" node-id="180" stroke="none" target-height="41.000977" target-width="79.099" target-x="370.561" target-y="561.538"></path><path d="M 218.54 678.58 C 219.56 679.03 220.86 681.59 220.77 682.70 C 220.50 686.38 217.59 689.10 215.89 690.76 C 214.07 692.53 195.93 686.44 186.78 681.21 C 181.84 678.38 199.14 680.57 203.25 680.47 C 206.38 680.39 212.31 679.54 214.13 678.78 C 216.04 677.98 216.94 677.87 217.79 678.25 L 218.54 678.58 Z" fill="#0b4870" fill-rule="nonzero" group-id="7" node-id="182" stroke="none" target-height="14.66803" target-width="39.021988" target-x="181.835" target-y="677.865"></path><path d="M 468.94 701.23 C 468.94 710.18 403.45 717.44 322.65 717.44 C 241.86 717.44 176.36 710.18 176.36 701.23 C 176.36 692.28 241.86 685.02 322.65 685.02 C 403.45 685.02 468.94 692.28 468.94 701.23 Z" fill="#cce9ff" fill-rule="nonzero" group-id="7" node-id="184" stroke="none" target-height="32.41803" target-width="292.582" target-x="176.362" target-y="685.021"></path><path d="M 224.42 702.19 C 225.15 703.03 225.24 705.90 224.69 706.87 C 222.87 710.08 219.08 711.31 216.83 712.09 C 214.44 712.92 200.61 699.68 194.56 691.05 C 191.29 686.39 206.02 695.74 209.78 697.39 C 212.65 698.66 218.38 700.41 220.35 700.50 C 222.42 700.59 223.27 700.86 223.89 701.57 L 224.42 702.19 Z" fill="#0b4870" fill-rule="nonzero" group-id="7" node-id="186" stroke="none" target-height="26.528015" target-width="33.944992" target-x="191.292" target-y="686.389"></path><path d="M 473.97 678.31 C 473.99 678.24 474.01 678.17 474.03 678.10 C 475.23 673.91 476.11 668.89 476.68 662.84 C 448.04 663.57 404.69 659.90 398.67 646.21 C 396.22 650.95 394.11 658.05 393.60 665.29 C 369.13 666.35 338.17 668.48 317.94 671.73 C 298.16 675.07 216.91 699.11 218.17 702.57 C 221.35 711.30 240.38 708.11 274.88 706.01 C 288.89 705.16 320.38 700.65 335.49 696.45 C 355.42 696.54 437.14 704.11 445.61 702.43 C 466.24 698.35 468.39 695.14 473.39 680.21 C 473.45 680.04 473.49 679.88 473.54 679.72 C 473.69 679.26 473.83 678.79 473.97 678.31 Z" fill="#0b4870" fill-rule="nonzero" group-id="7" node-id="188" stroke="none" target-height="65.093994" target-width="259.772" target-x="216.909" target-y="646.21"></path><path d="M 441.59 578.35 C 446.86 579.40 450.72 587.56 453.53 589.95 C 456.94 592.85 453.24 595.51 448.45 596.35 C 444.16 597.11 438.34 596.52 435.73 594.46 C 433.52 592.71 430.76 590.66 428.33 583.81 C 426.35 578.22 434.72 576.96 441.59 578.35 Z" fill="#ffe3ca" fill-rule="nonzero" group-id="7" node-id="190" stroke="none" target-height="20.143982" target-width="30.591003" target-x="426.352" target-y="576.964"></path><path d="M 379.21 574.76 C 384.48 575.82 388.34 583.97 391.16 586.36 C 394.56 589.26 390.87 591.92 386.08 592.76 C 381.79 593.52 382.74 595.98 380.13 593.91 C 377.92 592.17 375.16 590.11 372.73 583.27 C 370.75 577.68 372.34 573.38 379.21 574.76 Z" fill="#ffe3ca" fill-rule="nonzero" group-id="7" node-id="192" stroke="none" target-height="22.60199" target-width="23.812988" target-x="370.752" target-y="573.377"></path><path d="M 508.27 606.97 C 508.25 606.69 508.25 606.41 508.22 606.15 C 507.72 599.37 504.67 590.73 502.30 583.76 C 498.62 572.96 493.08 555.41 482.00 534.87 C 476.73 525.08 469.12 521.90 456.28 522.44 C 451.23 522.65 463.67 545.67 466.40 552.00 C 469.33 558.78 479.70 570.41 487.33 589.33 C 488.01 591.00 492.58 600.61 493.33 602.54 C 483.26 600.71 461.57 590.55 454.28 587.68 C 451.95 586.76 450.55 585.24 448.75 587.39 C 444.99 591.85 447.50 596.49 447.50 596.49 C 447.50 596.49 466.17 607.99 472.18 611.14 C 484.84 617.78 503.67 622.20 506.41 615.64 C 506.71 614.90 506.98 614.18 507.21 613.49 C 508.09 611.75 508.38 609.50 508.27 606.97 Z" fill="#cce9ff" fill-rule="nonzero" group-id="7" node-id="194" stroke="none" target-height="100.304016" target-width="63.384003" target-x="444.991" target-y="521.899"></path><path d="M 425.56 523.59 C 426.77 528.60 431.10 531.88 437.15 531.63 C 443.20 531.38 451.79 527.55 455.70 522.32 L 425.56 523.59 Z" fill="#ffe3ca" fill-rule="nonzero" group-id="7" node-id="196" stroke="none" target-height="9.56604" target-width="30.139008" target-x="425.564" target-y="522.319"></path><path d="M 411.95 461.54 C 400.63 471.21 409.66 503.79 414.54 503.29 L 424.92 496.01 C 432.89 494.75 430.53 445.67 411.95 461.54 Z" fill="#3c8cf8" fill-rule="nonzero" group-id="7" node-id="198" stroke="none" target-height="58.119995" target-width="32.257996" target-x="400.634" target-y="445.668"></path><path d="M 429.75 525.38 C 432.10 513.79 426.52 499.94 424.35 489.48 C 422.99 482.99 426.77 476.42 433.52 474.98 C 440.88 473.40 448.30 478.06 449.81 485.01 C 450.56 488.48 453.73 501.31 448.50 525.38" fill="#ffe3ca" fill-rule="nonzero" group-id="7" node-id="200" stroke="none" target-height="51.974" target-width="30.739014" target-x="422.994" target-y="473.401"></path><path d="M 409.66 487.22 C 410.23 506.08 426.75 521.42 435.35 521.42 C 443.17 521.42 462.21 506.01 461.63 487.15 C 461.06 468.29 448.36 453.05 433.27 453.11 C 418.19 453.17 409.08 468.36 409.66 487.22 Z" fill="#ffe3ca" fill-rule="nonzero" group-id="7" node-id="202" stroke="none" target-height="68.370026" target-width="53.121002" target-x="409.085" target-y="453.048"></path><path d="M 460.80 485.76 C 467.45 489.64 469.83 446.94 453.45 454.25 C 440.00 460.25 452.83 487.02 460.80 485.76" fill="#3c8cf8" fill-rule="nonzero" group-id="7" node-id="204" stroke="none" target-height="42.70398" target-width="29.834015" target-x="440" target-y="446.937"></path><path d="M 442.85 472.81 C 420.15 488.47 407.95 474.73 400.52 466.21 C 400.52 466.21 404.03 466.14 407.61 463.57 C 407.61 463.57 404.06 461.52 399.92 459.20 C 399.92 459.20 404.10 458.24 408.39 455.89 C 408.39 455.89 410.42 455.99 405.16 453.19 C 405.16 453.19 415.99 447.68 430.29 444.25 C 440.01 441.93 464.46 440.89 460.37 455.79 C 460.04 456.98 459.60 458.11 459.08 459.17 C 455.96 465.54 450.94 467.22 442.85 472.81 Z" fill="#3c8cf8" fill-rule="nonzero" group-id="7" node-id="206" stroke="none" target-height="47.574005" target-width="64.54401" target-x="399.918" target-y="440.892"></path><path d="M 456.43 484.24 C 454.99 489.94 456.32 495.21 459.40 496.02 C 462.48 496.83 466.14 492.87 467.57 487.18 C 469.01 481.48 467.68 476.21 464.60 475.40 C 461.52 474.59 457.86 478.55 456.43 484.24 Z" fill="#ffe3ca" fill-rule="nonzero" group-id="7" node-id="208" stroke="none" target-height="22.241974" target-width="14.019989" target-x="454.991" target-y="474.588"></path><path d="M 450.71 512.35 C 450.71 512.35 446.73 519.90 441.55 521.42 C 436.38 522.94 434.06 523.83 430.31 520.10 C 430.31 520.10 443.92 521.47 450.71 512.35 Z" fill="#fcd2b1" fill-rule="nonzero" node-id="211" stroke="none" target-height="11.4869995" target-width="20.39801" target-x="430.31" target-y="512.346"></path><path d="M 736.31 411.03 C 736.31 435.16 716.75 454.72 692.63 454.72 C 668.50 454.72 648.94 435.16 648.94 411.03 C 648.94 386.91 668.50 367.35 692.63 367.35 C 716.75 367.35 736.31 386.91 736.31 411.03 Z" fill="#3c8cf8" fill-rule="nonzero" node-id="213" stroke="none" target-height="87.36801" target-width="87.36798" target-x="648.942" target-y="367.349"></path><path d="M 687.51 437.39 L 663.91 417.90 L 669.64 410.96 L 686.06 424.52 L 714.91 387.05 L 722.04 392.54 Z" fill="#cce9ff" fill-rule="nonzero" group-id="8" node-id="217" stroke="none" target-height="50.346985" target-width="58.138977" target-x="663.906" target-y="387.048"></path><path d="M 322.65 797.70 C 322.65 799.98 318.96 801.83 314.40 801.83 L 211.59 801.83 C 207.03 801.83 203.34 799.98 203.34 797.70 L 203.34 797.70 C 203.34 795.42 207.03 793.58 211.59 793.58 L 314.40 793.58 C 318.96 793.58 322.65 795.42 322.65 797.70 L 322.65 797.70 Z" fill="#cce9ff" fill-rule="nonzero" node-id="220" stroke="none" target-height="8.25" target-width="119.31702" target-x="203.336" target-y="793.578"></path><path d="M 458.18 861.20 C 458.18 863.48 454.49 865.33 449.93 865.33 L 347.12 865.33 C 342.56 865.33 338.87 863.48 338.87 861.20 L 338.87 861.20 C 338.87 858.92 342.56 857.08 347.12 857.08 L 449.93 857.08 C 454.49 857.08 458.18 858.92 458.18 861.20 L 458.18 861.20 Z" fill="#cce9ff" fill-rule="nonzero" node-id="222" stroke="none" target-height="8.25" target-width="119.31601" target-x="338.866" target-y="857.077"></path><path d="M 788.77 873.00 C 788.77 876.08 785.07 878.58 780.52 878.58 L 677.70 878.58 C 673.14 878.58 669.45 876.08 669.45 873.00 L 669.45 873.00 C 669.45 869.92 673.14 867.42 677.70 867.42 L 780.52 867.42 C 785.07 867.42 788.77 869.92 788.77 873.00 L 788.77 873.00 Z" fill="#cce9ff" fill-rule="nonzero" node-id="224" stroke="none" target-height="11.160034" target-width="119.31604" target-x="669.451" target-y="867.42"></path><path d="M 928.26 801.83 C 928.26 804.91 924.57 807.41 920.01 807.41 L 817.20 807.41 C 812.64 807.41 808.95 804.91 808.95 801.83 L 808.95 801.83 C 808.95 798.75 812.64 796.25 817.20 796.25 L 920.01 796.25 C 924.57 796.25 928.26 798.75 928.26 801.83 L 928.26 801.83 Z" fill="#cce9ff" fill-rule="nonzero" node-id="226" stroke="none" target-height="11.159973" target-width="119.31598" target-x="808.947" target-y="796.247"></path><path d="M 677.61 800.49 C 677.61 804.31 670.31 807.41 661.31 807.41 L 458.17 807.41 C 449.16 807.41 441.87 804.31 441.87 800.49 L 441.87 800.49 C 441.87 796.67 449.16 793.58 458.17 793.58 L 661.31 793.58 C 670.31 793.58 677.61 796.67 677.61 800.49 L 677.61 800.49 Z" fill="#cce9ff" fill-rule="nonzero" node-id="228" stroke="none" target-height="13.830017" target-width="235.746" target-x="441.866" target-y="793.578"></path></svg>