<?xml version="1.0" standalone="no"?><!DOCTYPE svg PUBLIC "-//W3C//DTD SVG 1.1//EN" "http://www.w3.org/Graphics/SVG/1.1/DTD/svg11.dtd"><svg height="1080" node-id="1" sillyvg="true" template-height="1080" template-width="1080" version="1.1" viewBox="0 0 1080 1080" width="1080" xmlns="http://www.w3.org/2000/svg" xmlns:xlink="http://www.w3.org/1999/xlink"><defs node-id="76"></defs><g node-id="265"><path d="M 828.50 570.57 C 800.09 534.94 745.79 529.78 711.67 499.59 C 674.73 466.89 665.12 420.70 633.39 382.93 C 620.15 367.18 605.07 344.86 587.06 334.56 C 570.85 325.27 553.35 317.17 533.88 315.60 C 509.49 313.63 483.00 322.60 462.79 339.67 C 442.91 356.47 428.60 380.77 405.55 392.08 C 376.60 406.29 345.50 396.12 317.22 394.05 C 284.17 391.63 249.87 410.76 238.63 443.00 C 233.59 457.45 233.58 473.25 235.89 488.38 C 238.25 503.79 243.25 519.40 253.01 531.78 C 263.33 544.85 276.95 554.82 286.01 569.05 C 296.75 585.92 295.89 608.70 292.36 629.99 C 288.82 651.29 282.93 672.89 284.69 693.72 C 287.28 724.34 307.75 750.55 336.31 759.84 C 372.97 771.76 415.83 756.75 454.80 741.26 C 489.69 727.39 530.00 711.15 566.41 713.75 C 604.83 716.49 636.49 741.90 673.00 750.35 C 719.72 761.15 776.42 745.71 812.27 706.97 C 848.11 668.23 857.40 606.80 828.50 570.57 Z" fill="#2a94f4" fill-opacity="0.22" fill-rule="nonzero" group-id="1" node-id="82" stroke="none" target-height="458.13" target-width="623.82404" target-x="233.576" target-y="313.633"></path></g><g node-id="266"><path d="M 717.84 482.99 L 731.50 474.14 C 737.15 465.99 741.45 457.82 744.34 451.13 C 738.40 449.61 726.10 455.88 726.10 455.88 C 738.27 448.46 742.65 447.56 746.64 445.15 C 750.13 434.96 748.82 423.73 748.91 414.12 C 736.27 426.19 732.57 428.31 732.57 428.31 C 740.56 421.84 744.70 414.88 748.87 410.00 C 748.23 386.09 740.60 378.46 740.60 378.46 C 734.69 382.55 722.61 393.43 717.84 397.44 C 716.35 408.68 716.55 422.79 716.55 422.79 C 715.07 416.38 714.83 406.87 714.90 399.97 C 708.11 405.96 709.27 405.06 704.60 411.03 C 702.69 422.51 704.24 442.27 704.24 442.27 C 701.96 434.74 701.22 422.63 700.98 415.91 C 693.40 426.77 688.71 437.81 685.54 449.49 C 686.84 459.29 689.20 469.09 689.20 469.09 C 687.26 465.16 685.59 459.72 684.27 454.56 C 681.17 467.95 679.76 482.24 678.08 498.13 L 680.26 511.68 L 696.80 505.60 C 709.33 499.61 719.68 489.72 727.76 479.25 L 717.84 482.99 Z" fill="#3c8cf8" fill-opacity="0.55" fill-rule="nonzero" group-id="2" node-id="87" stroke="none" target-height="133.215" target-width="72.050964" target-x="678.083" target-y="378.464"></path></g><g node-id="267"><path d="M 705.17 528.83 L 721.33 526.98 C 730.02 522.19 737.51 516.78 743.07 512.08 C 738.42 508.08 724.62 508.22 724.62 508.22 C 738.82 506.98 743.14 508.13 747.79 507.74 C 755.45 500.16 759.27 489.52 763.62 480.96 C 746.93 486.14 742.67 486.40 742.67 486.40 C 752.71 484.16 759.51 479.76 765.41 477.25 C 775.47 455.54 772.03 445.32 772.03 445.32 C 764.92 446.36 749.26 450.72 743.21 452.20 C 736.87 461.61 730.78 474.33 730.78 474.33 C 732.30 467.93 736.32 459.31 739.45 453.16 C 730.70 455.50 732.14 455.21 725.30 458.48 C 718.49 467.92 711.09 486.31 711.09 486.31 C 712.40 478.55 717.12 467.37 719.89 461.25 C 708.27 467.61 699.16 475.40 691.13 484.46 C 687.94 493.82 685.70 503.64 685.70 503.64 C 685.71 499.26 686.63 493.65 687.74 488.44 C 679.01 499.05 671.39 511.23 662.83 524.72 L 658.76 537.82 L 676.27 539.73 C 690.16 539.93 703.83 535.67 715.72 529.89 L 705.17 528.83 Z" fill="#3c8cf8" fill-opacity="0.55" fill-rule="nonzero" group-id="3" node-id="92" stroke="none" target-height="94.610016" target-width="116.71503" target-x="658.758" target-y="445.322"></path></g><g node-id="268"><path d="M 355.46 479.25 C 363.54 489.72 373.89 499.61 386.42 505.60 L 402.96 511.68 L 405.14 498.13 C 403.47 482.24 402.05 467.94 398.95 454.56 C 397.63 459.72 395.96 465.15 394.02 469.08 C 394.02 469.08 396.38 459.29 397.68 449.49 C 394.52 437.80 389.82 426.77 382.24 415.91 C 382.00 422.63 381.26 434.74 378.98 442.27 C 378.98 442.27 380.53 422.50 378.63 411.03 C 373.95 405.06 375.11 405.95 368.32 399.97 C 368.39 406.87 368.16 416.38 366.67 422.79 C 366.67 422.79 366.88 408.68 365.38 397.44 C 360.62 393.42 348.53 382.55 342.62 378.46 C 342.62 378.46 334.99 386.09 334.35 410.00 C 338.52 414.87 342.66 421.83 350.66 428.31 C 350.66 428.31 346.95 426.18 334.31 414.12 C 334.40 423.73 333.09 434.96 336.58 445.15 C 340.57 447.56 344.95 448.46 357.12 455.88 C 357.12 455.88 344.82 449.61 338.88 451.13 C 341.77 457.81 346.07 465.99 351.73 474.14 L 365.38 482.98 L 355.46 479.25 Z" fill="#3c8cf8" fill-opacity="0.55" fill-rule="nonzero" group-id="4" node-id="97" stroke="none" target-height="133.215" target-width="72.04999" target-x="333.088" target-y="378.462"></path></g><g node-id="269"><path d="M 367.51 529.89 C 379.39 535.67 393.06 539.93 406.95 539.73 L 424.46 537.82 L 420.39 524.72 C 411.83 511.23 404.21 499.05 395.48 488.44 C 396.59 493.65 397.51 499.26 397.52 503.64 C 397.52 503.64 395.28 493.82 392.09 484.46 C 384.06 475.40 374.95 467.61 363.33 461.25 C 366.10 467.38 370.82 478.55 372.13 486.31 C 372.13 486.31 364.73 467.92 357.92 458.48 C 351.08 455.22 352.52 455.50 343.77 453.16 C 346.90 459.31 350.92 467.93 352.44 474.33 C 352.44 474.33 346.35 461.61 340.01 452.20 C 333.96 450.72 318.30 446.36 311.19 445.32 C 311.19 445.32 307.75 455.54 317.81 477.25 C 323.71 479.76 330.51 484.16 340.55 486.40 C 340.55 486.40 336.29 486.14 319.60 480.96 C 323.95 489.53 327.77 500.16 335.43 507.74 C 340.08 508.13 344.40 506.98 358.60 508.22 C 358.60 508.22 344.80 508.08 340.15 512.08 C 345.71 516.78 353.20 522.20 361.89 526.98 L 378.05 528.83 L 367.51 529.89 Z" fill="#3c8cf8" fill-opacity="0.55" fill-rule="nonzero" group-id="5" node-id="102" stroke="none" target-height="94.60901" target-width="116.715" target-x="307.749" target-y="445.323"></path></g><path d="M 845.64 734.89 C 845.64 757.53 708.82 775.88 540.04 775.88 C 371.27 775.88 234.45 757.53 234.45 734.89 C 234.45 712.24 371.27 693.89 540.04 693.89 C 708.82 693.89 845.64 712.24 845.64 734.89 Z" fill="#d3d3d3" fill-rule="nonzero" node-id="105" stroke="none" target-height="81.99597" target-width="611.19" target-x="234.446" target-y="693.888"></path><path d="M 694.82 410.90 L 694.82 669.97 C 694.82 688.07 680.15 702.75 662.04 702.75 L 418.05 702.75 C 399.94 702.75 385.26 688.07 385.26 669.97 L 385.26 410.90 C 385.45 392.96 400.06 378.46 418.05 378.46 L 662.04 378.46 C 680.04 378.46 694.63 392.96 694.82 410.90 Z" fill="#ffffff" fill-rule="nonzero" group-id="6,19" node-id="111" stroke="none" target-height="324.28796" target-width="309.55902" target-x="385.261" target-y="378.463"></path><path d="M 694.82 410.90 L 385.26 410.90 C 385.45 392.96 400.06 378.46 418.05 378.46 L 662.04 378.46 C 680.04 378.46 694.63 392.96 694.82 410.90 Z" fill="#3c8cf8" fill-rule="nonzero" group-id="6,20" node-id="116" stroke="none" target-height="32.441986" target-width="309.55902" target-x="385.261" target-y="378.463"></path><path d="M 424.46 394.68 C 424.46 391.38 421.78 388.70 418.48 388.70 C 415.17 388.70 412.49 391.38 412.49 394.68 C 412.49 397.99 415.17 400.67 418.48 400.67 C 421.78 400.67 424.46 397.99 424.46 394.68 Z" fill="#ffffff" fill-rule="nonzero" group-id="6,21,24" node-id="123" stroke="none" target-height="11.975006" target-width="11.975983" target-x="412.488" target-y="388.697"></path><path d="M 443.03 394.68 C 443.03 391.38 440.35 388.70 437.04 388.70 C 433.74 388.70 431.06 391.38 431.06 394.68 C 431.06 397.99 433.74 400.67 437.04 400.67 C 440.35 400.67 443.03 397.99 443.03 394.68 Z" fill="#ffffff" fill-rule="nonzero" group-id="6,21,25" node-id="128" stroke="none" target-height="11.975006" target-width="11.975006" target-x="431.056" target-y="388.697"></path><path d="M 461.60 394.68 C 461.60 391.38 458.92 388.70 455.61 388.70 C 452.30 388.70 449.62 391.38 449.62 394.68 C 449.62 397.99 452.31 400.67 455.61 400.67 C 458.92 400.67 461.60 397.99 461.60 394.68 Z" fill="#ffffff" fill-rule="nonzero" group-id="6,21,26" node-id="133" stroke="none" target-height="11.975006" target-width="11.975006" target-x="449.624" target-y="388.697"></path><path d="M 598.64 400.67 L 485.77 400.67 C 482.46 400.67 479.78 397.99 479.78 394.68 L 479.78 394.68 C 479.78 391.38 482.46 388.70 485.77 388.70 L 598.64 388.70 C 601.95 388.70 604.63 391.38 604.63 394.68 L 604.63 394.68 C 604.63 397.99 601.95 400.67 598.64 400.67 Z" fill="#ffffff" fill-rule="nonzero" group-id="6,22" node-id="139" stroke="none" target-height="11.974976" target-width="124.84802" target-x="479.781" target-y="388.696"></path><path d="M 654.81 620.29 L 654.81 608.66 C 654.81 601.44 648.96 595.58 641.74 595.58 L 490.13 595.58 C 482.91 595.58 477.06 601.44 477.06 608.66 L 477.06 644.46 C 477.06 651.68 482.91 657.54 490.13 657.54 L 641.74 657.54 C 648.96 657.54 654.81 651.68 654.81 644.46 L 654.81 629.46 L 671.39 635.62 L 654.81 620.29 Z" fill="#3c8cf8" fill-rule="nonzero" group-id="7" node-id="145" stroke="none" target-height="61.955994" target-width="194.33801" target-x="477.055" target-y="595.583"></path><path d="M 584.15 644.25 C 584.15 646.25 582.53 647.87 580.53 647.87 C 578.53 647.87 576.91 646.25 576.91 644.25 C 576.91 642.26 578.53 640.64 580.53 640.64 C 582.53 640.64 584.15 642.26 584.15 644.25 Z" fill="#ffffff" fill-rule="nonzero" group-id="8" node-id="150" stroke="none" target-height="7.2319946" target-width="7.2319946" target-x="576.915" target-y="640.637"></path><path d="M 599.62 644.25 C 599.62 646.25 598.00 647.87 596.00 647.87 C 594.01 647.87 592.39 646.25 592.39 644.25 C 592.39 642.26 594.01 640.64 596.00 640.64 C 598.00 640.64 599.62 642.26 599.62 644.25 Z" fill="#ffffff" fill-rule="nonzero" group-id="9" node-id="155" stroke="none" target-height="7.2319946" target-width="7.2319946" target-x="592.388" target-y="640.637"></path><path d="M 615.09 644.25 C 615.09 646.25 613.47 647.87 611.48 647.87 C 609.48 647.87 607.86 646.25 607.86 644.25 C 607.86 642.26 609.48 640.64 611.48 640.64 C 613.47 640.64 615.09 642.26 615.09 644.25 Z" fill="#ffffff" fill-rule="nonzero" group-id="10" node-id="160" stroke="none" target-height="7.2319946" target-width="7.2319946" target-x="607.861" target-y="640.637"></path><path d="M 630.57 644.25 C 630.57 646.25 628.95 647.87 626.95 647.87 C 624.95 647.87 623.34 646.25 623.34 644.25 C 623.34 642.26 624.95 640.64 626.95 640.64 C 628.95 640.64 630.57 642.26 630.57 644.25 Z" fill="#ffffff" fill-rule="nonzero" group-id="11" node-id="165" stroke="none" target-height="7.2319946" target-width="7.2319946" target-x="623.335" target-y="640.637"></path><path d="M 516.67 517.52 C 516.67 518.98 516.14 520.13 515.09 520.97 C 514.04 521.81 512.58 522.23 510.70 522.23 C 508.98 522.23 507.45 521.91 506.12 521.26 L 506.12 518.07 C 507.21 518.56 508.14 518.90 508.89 519.10 C 509.65 519.30 510.34 519.40 510.97 519.40 C 511.72 519.40 512.30 519.25 512.70 518.97 C 513.10 518.68 513.30 518.25 513.30 517.68 C 513.30 517.37 513.22 517.08 513.04 516.84 C 512.86 516.59 512.60 516.35 512.26 516.12 C 511.92 515.89 511.22 515.53 510.16 515.03 C 509.17 514.56 508.43 514.12 507.94 513.69 C 507.44 513.26 507.05 512.76 506.75 512.19 C 506.46 511.62 506.31 510.96 506.31 510.20 C 506.31 508.77 506.80 507.64 507.77 506.83 C 508.74 506.01 510.08 505.60 511.79 505.60 C 512.63 505.60 513.43 505.70 514.20 505.90 C 514.96 506.10 515.76 506.38 516.59 506.74 L 515.49 509.40 C 514.62 509.05 513.91 508.80 513.35 508.66 C 512.78 508.52 512.23 508.45 511.68 508.45 C 511.03 508.45 510.53 508.60 510.19 508.91 C 509.84 509.21 509.66 509.60 509.66 510.09 C 509.66 510.39 509.73 510.66 509.87 510.88 C 510.01 511.11 510.24 511.32 510.54 511.54 C 510.85 511.75 511.57 512.12 512.72 512.67 C 514.23 513.39 515.27 514.12 515.83 514.84 C 516.39 515.57 516.67 516.46 516.67 517.52 Z" fill="#a8a8a8" fill-rule="nonzero" group-id="12" node-id="170" stroke="none" target-height="16.633026" target-width="10.546997" target-x="506.123" target-y="505.598"></path><path d="M 527.19 522.01 L 526.54 520.33 L 526.45 520.33 C 525.88 521.04 525.30 521.54 524.70 521.82 C 524.10 522.09 523.31 522.23 522.35 522.23 C 521.16 522.23 520.22 521.89 519.54 521.21 C 518.86 520.53 518.52 519.57 518.52 518.31 C 518.52 517.00 518.98 516.03 519.90 515.41 C 520.81 514.78 522.20 514.44 524.05 514.37 L 526.20 514.31 L 526.20 513.77 C 526.20 512.51 525.56 511.88 524.27 511.88 C 523.28 511.88 522.12 512.18 520.79 512.78 L 519.67 510.50 C 521.09 509.76 522.67 509.38 524.40 509.38 C 526.07 509.38 527.34 509.75 528.22 510.47 C 529.11 511.19 529.55 512.29 529.55 513.76 L 529.55 522.01 L 527.19 522.01 Z M 526.20 516.28 L 524.89 516.32 C 523.91 516.35 523.18 516.53 522.70 516.85 C 522.22 517.18 521.98 517.67 521.98 518.34 C 521.98 519.29 522.53 519.76 523.62 519.76 C 524.40 519.76 525.03 519.54 525.50 519.09 C 525.96 518.64 526.20 518.04 526.20 517.30 L 526.20 516.28 Z" fill="#a8a8a8" fill-rule="nonzero" group-id="12" node-id="172" stroke="none" target-height="12.847015" target-width="11.031982" target-x="518.518" target-y="509.384"></path><path d="M 531.25 509.64 L 534.95 509.64 L 537.29 516.60 C 537.49 517.20 537.62 517.92 537.70 518.74 L 537.76 518.74 C 537.84 517.98 538.00 517.27 538.24 516.60 L 540.53 509.64 L 544.15 509.64 L 538.91 523.59 C 538.43 524.88 537.75 525.85 536.86 526.49 C 535.97 527.13 534.93 527.45 533.75 527.45 C 533.16 527.45 532.59 527.39 532.03 527.27 L 532.03 524.59 C 532.44 524.68 532.88 524.73 533.36 524.73 C 533.96 524.73 534.48 524.55 534.92 524.18 C 535.37 523.82 535.72 523.27 535.97 522.53 L 536.17 521.92 L 531.25 509.64 Z" fill="#a8a8a8" fill-rule="nonzero" group-id="12" node-id="174" stroke="none" target-height="17.815979" target-width="12.893005" target-x="531.255" target-y="509.638"></path><path d="M 565.33 522.01 L 561.91 522.01 L 561.91 515.03 L 555.50 515.03 L 555.50 522.01 L 552.07 522.01 L 552.07 505.83 L 555.50 505.83 L 555.50 512.17 L 561.91 512.17 L 561.91 505.83 L 565.33 505.83 L 565.33 522.01 Z" fill="#a8a8a8" fill-rule="nonzero" group-id="12" node-id="176" stroke="none" target-height="16.178009" target-width="13.257019" target-x="552.07" target-y="505.832"></path><path d="M 569.00 506.44 C 569.00 505.34 569.61 504.79 570.84 504.79 C 572.06 504.79 572.68 505.34 572.68 506.44 C 572.68 506.96 572.52 507.37 572.22 507.66 C 571.91 507.95 571.45 508.10 570.84 508.10 C 569.61 508.10 569.00 507.55 569.00 506.44 Z M 572.52 522.01 L 569.15 522.01 L 569.15 509.64 L 572.52 509.64 L 572.52 522.01 Z" fill="#a8a8a8" fill-rule="nonzero" group-id="12" node-id="178" stroke="none" target-height="17.219025" target-width="3.6740112" target-x="569.002" target-y="504.791"></path><path d="M 575.59 520.43 C 575.59 519.81 575.75 519.34 576.08 519.02 C 576.42 518.71 576.90 518.55 577.53 518.55 C 578.14 518.55 578.62 518.71 578.96 519.03 C 579.29 519.36 579.46 519.82 579.46 520.43 C 579.46 521.01 579.29 521.47 578.95 521.80 C 578.61 522.14 578.14 522.31 577.53 522.31 C 576.91 522.31 576.43 522.14 576.10 521.82 C 575.75 521.49 575.59 521.02 575.59 520.43 Z M 578.89 516.64 L 576.20 516.64 L 575.63 505.83 L 579.46 505.83 L 578.89 516.64 Z" fill="#a8a8a8" fill-rule="nonzero" group-id="12" node-id="180" stroke="none" target-height="16.475983" target-width="3.8740234" target-x="575.586" target-y="505.832"></path><path d="M 405.06 585.52 C 405.06 585.52 417.48 613.90 428.59 608.20 C 439.69 602.51 442.54 599.09 442.54 599.09 L 446.95 603.22 C 446.95 603.22 436.28 617.52 426.88 618.98 C 417.48 620.45 406.81 616.17 406.81 616.17 L 405.06 585.52 Z" fill="#3c8cf8" fill-rule="nonzero" group-id="13" node-id="185" stroke="none" target-height="34.926025" target-width="41.89801" target-x="405.056" target-y="585.519"></path><path d="M 434.18 606.14 C 432.71 606.36 431.27 606.73 430.68 606.75 C 430.43 606.76 429.77 606.59 429.57 606.56 C 429.00 606.45 428.12 606.20 427.58 606.41 L 425.27 607.27 C 424.16 607.71 423.11 607.50 422.68 606.40 L 422.68 606.40 C 422.20 605.20 423.01 604.25 424.26 603.92 L 425.86 603.29 C 426.86 603.02 427.64 602.34 428.45 601.69 C 430.09 600.38 432.49 599.99 434.44 599.86 C 435.66 599.77 436.87 600.90 438.40 602.48 C 439.16 603.26 440.09 604.70 438.73 604.54 C 437.60 604.40 435.13 602.16 432.50 604.15 C 432.37 604.25 432.06 604.53 432.12 604.72 C 432.33 605.27 433.59 604.89 434.29 604.92 C 435.27 604.96 435.85 605.42 435.90 605.81 C 435.95 606.23 435.22 605.99 434.18 606.14 Z" fill="#fab9af" fill-rule="nonzero" group-id="13" node-id="187" stroke="none" target-height="7.93396" target-width="17.88498" target-x="422.204" target-y="599.775"></path><path d="M 446.08 602.82 C 446.67 601.98 447.59 601.49 448.47 600.95 C 450.27 599.87 451.47 597.76 452.27 595.97 C 452.78 594.86 452.14 593.33 451.19 591.34 C 450.72 590.37 449.70 589.00 449.38 590.32 C 449.11 591.43 450.35 594.53 447.57 596.30 C 447.43 596.39 447.07 596.58 446.91 596.46 C 446.46 596.07 447.26 595.02 447.47 594.35 C 447.77 593.42 447.55 592.72 447.20 592.54 C 446.82 592.34 446.79 593.11 446.29 594.04 C 445.58 595.34 444.73 596.56 444.50 597.10 C 444.40 597.33 444.33 598.01 444.30 598.21 C 444.20 598.79 444.13 599.70 443.75 600.13" fill="#fab9af" fill-rule="nonzero" group-id="13,23" node-id="191" stroke="none" target-height="13.828003" target-width="9.031006" target-x="443.745" target-y="588.996"></path><path d="M 412.59 642.70 L 404.44 585.43 L 382.45 582.42 L 371.02 642.28 Z" fill="#fab9af" fill-rule="nonzero" group-id="13,23,27,28" node-id="197" stroke="none" target-height="60.278015" target-width="41.569977" target-x="371.019" target-y="582.417"></path><path d="M 395.60 731.42 L 395.62 737.87 C 395.62 739.19 395.44 740.49 395.09 741.76 L 394.53 743.75 C 394.07 745.38 395.29 747.00 396.99 746.99 C 401.39 746.98 408.90 746.99 410.83 746.99 C 411.15 746.99 411.46 746.78 411.49 746.46 C 411.65 744.58 406.21 743.32 402.11 741.73 C 398.99 740.52 399.15 734.91 399.54 731.63 C 399.69 730.39 398.65 729.34 397.41 729.44 L 397.41 729.44 C 396.38 729.53 395.59 730.39 395.60 731.42 Z" fill="#0e538c" fill-rule="nonzero" group-id="13,23,27,28" node-id="199" stroke="none" target-height="17.659973" target-width="17.58603" target-x="394.067" target-y="729.338"></path><path d="M 365.38 729.61 L 363.16 736.99 C 363.06 737.32 362.91 737.63 362.72 737.91 L 361.15 740.25 C 360.15 741.74 360.87 743.77 362.58 744.29 C 362.58 744.29 365.76 745.41 369.04 746.49 C 372.39 747.59 376.61 746.67 376.61 745.78 C 376.61 743.82 374.77 745.38 371.70 743.32 C 370.68 742.64 369.61 741.92 368.67 741.17 C 366.02 739.10 368.33 733.84 369.95 730.89 C 370.53 729.82 369.91 728.50 368.73 728.25 L 367.96 728.09 C 366.84 727.85 365.71 728.51 365.38 729.61 Z" fill="#0e538c" fill-rule="nonzero" group-id="13,23,27,28" node-id="201" stroke="none" target-height="19.744019" target-width="16.462006" target-x="360.147" target-y="727.845"></path><path d="M 388.10 643.25 L 412.46 641.20 C 412.46 641.20 414.91 658.93 408.76 691.03 C 405.87 706.08 399.85 734.85 399.85 734.85 C 398.36 735.50 396.84 735.66 395.30 735.28 C 395.30 735.28 394.84 722.59 394.56 708.93 C 394.30 695.82 394.22 681.82 393.39 677.24 C 391.68 667.88 388.10 643.25 388.10 643.25 Z" fill="#0e538c" fill-rule="nonzero" group-id="13,23,27,28" node-id="203" stroke="none" target-height="94.46002" target-width="26.815002" target-x="388.098" target-y="641.204"></path><path d="M 393.13 643.56 C 395.64 657.06 401.26 677.24 390.44 696.21 C 379.62 715.17 368.25 734.88 368.25 734.88 C 366.78 734.94 365.45 734.41 364.22 733.47 C 364.22 733.47 366.12 724.88 368.86 714.84 C 372.00 703.36 375.97 689.85 374.84 682.81 C 372.72 669.61 370.28 652.03 371.02 643.49 C 371.76 634.96 391.80 636.46 393.13 643.56 Z" fill="#0e538c" fill-rule="nonzero" group-id="13,23,27,28" node-id="205" stroke="none" target-height="99.98505" target-width="37.040985" target-x="364.22" target-y="634.957"></path><path d="M 413.43 641.24 L 404.44 585.43 L 382.45 582.42 L 370.64 641.34 C 370.42 642.45 371.13 643.52 372.24 643.73 C 376.34 644.51 386.21 646.13 397.26 646.13 C 405.51 646.13 410.14 644.52 412.25 643.51 C 413.11 643.10 413.58 642.17 413.43 641.24 Z" fill="#ffffff" fill-rule="nonzero" group-id="13,23,27,28" node-id="207" stroke="none" target-height="63.712036" target-width="43.164" target-x="370.417" target-y="582.417"></path><path d="M 389.32 585.89 C 389.32 589.91 388.59 593.89 387.22 597.67 C 384.53 605.06 380.50 619.04 382.90 631.35 C 386.35 649.08 390.78 656.25 385.03 660.38 C 379.29 664.52 368.26 657.62 367.95 655.32 C 367.63 653.02 370.09 624.79 372.88 612.56 C 375.67 600.32 383.49 582.74 383.49 582.74 L 386.80 583.09 C 388.24 583.24 389.32 584.45 389.32 585.89 L 389.32 585.89 Z" fill="#3c8cf8" fill-rule="nonzero" group-id="13,23,27,28" node-id="209" stroke="none" target-height="81.78003" target-width="23.149994" target-x="367.629" target-y="582.738"></path><path d="M 398.48 584.62 C 398.48 584.62 402.29 592.86 400.96 604.70 C 399.63 616.53 396.55 652.59 407.32 658.03 C 410.73 659.76 418.52 652.12 418.52 649.29 C 418.52 646.46 415.92 636.98 413.46 628.36 C 410.99 619.74 405.06 585.52 405.06 585.52 L 398.48 584.62 Z" fill="#3c8cf8" fill-rule="nonzero" group-id="13,23,27,28" node-id="211" stroke="none" target-height="75.13995" target-width="21.975006" target-x="396.547" target-y="584.616"></path><path d="M 395.41 559.08 C 390.50 559.08 388.67 562.57 388.57 569.03 C 388.54 571.45 389.63 573.85 390.50 575.38 C 391.16 576.52 391.33 577.86 390.96 579.12 L 389.89 582.77 C 389.15 586.15 390.76 588.00 393.13 588.68 C 394.31 589.01 395.71 588.75 396.74 588.09 C 397.96 587.30 398.06 585.61 397.83 584.17 L 397.56 583.13 C 397.18 581.73 397.99 580.22 399.41 579.91 C 403.19 579.09 403.73 575.15 404.74 569.03 C 405.79 562.65 400.31 559.08 395.41 559.08 Z" fill="#fab9af" fill-rule="nonzero" group-id="13,23,27,28,29" node-id="215" stroke="none" target-height="29.935974" target-width="17.253998" target-x="388.54" target-y="559.077"></path><path d="M 406.83 556.24 L 404.02 557.10 C 402.98 557.41 401.88 557.42 400.84 557.12 L 395.22 555.49 C 391.82 555.49 386.20 557.41 386.91 562.32 L 387.54 565.79 C 387.79 567.18 388.94 568.22 390.35 568.34 C 390.35 568.34 390.35 568.34 390.35 568.34 C 390.48 568.82 390.92 569.15 391.41 569.15 C 392.02 569.15 392.51 568.66 392.51 568.05 L 392.51 568.05 C 392.51 566.48 393.61 565.14 395.14 564.80 C 397.02 564.38 399.02 564.28 401.11 564.84 C 405.02 565.89 409.14 563.47 409.53 559.45 C 409.55 559.19 409.56 558.93 409.56 558.67 C 409.56 557.05 408.22 555.86 406.83 556.24 Z" fill="#0e538c" fill-rule="nonzero" group-id="13,23,27,28,29" node-id="217" stroke="none" target-height="13.664001" target-width="23.363007" target-x="386.201" target-y="555.485"></path><path d="M 391.28 569.15 C 391.28 570.65 390.72 571.86 389.28 571.86 C 387.84 571.86 386.91 569.80 386.91 568.30 C 386.91 566.81 387.84 566.44 389.28 566.44 C 390.72 566.44 391.28 567.65 391.28 569.15 Z" fill="#fab9af" fill-rule="nonzero" group-id="13,23,27,28,29" node-id="219" stroke="none" target-height="5.424988" target-width="4.3680115" target-x="386.912" target-y="566.437"></path><path d="M 390.68 575.73 C 390.68 575.73 394.35 580.76 398.91 580.08 C 398.91 580.08 397.96 580.53 397.73 581.27 C 397.73 581.27 393.40 580.95 390.68 575.73 Z" fill="#3c8cf8" fill-rule="nonzero" group-id="13,23,27" node-id="223" stroke="none" target-height="5.5440063" target-width="8.224976" target-x="390.683" target-y="575.726"></path><path d="M 383.49 582.74 C 383.49 582.74 381.92 594.96 398.21 599.23 C 414.49 603.50 427.31 602.40 427.31 602.40 L 427.31 607.77 C 427.31 607.77 400.10 614.32 383.45 606.63 C 366.80 598.95 376.83 583.62 383.49 582.74 Z" fill="#3c8cf8" fill-rule="nonzero" group-id="13,23" node-id="226" stroke="none" target-height="31.585999" target-width="60.50702" target-x="366.8" target-y="582.737"></path><path d="M 444.00 584.67 L 450.98 584.67 L 450.23 598.00 L 443.18 597.83 Z" fill="#0e538c" fill-rule="nonzero" group-id="13,23" node-id="228" stroke="none" target-height="13.334045" target-width="7.7940063" target-x="443.182" target-y="584.67"></path><path d="M 444.62 585.52 L 450.14 585.44 L 449.59 593.36 L 449.54 596.56 L 443.98 596.47 Z" fill="#0e538c" fill-rule="nonzero" group-id="13,23" node-id="230" stroke="none" target-height="11.122986" target-width="6.157013" target-x="443.983" target-y="585.44"></path><path d="M 450.44 594.24 C 450.44 594.24 449.48 593.31 449.05 593.88 C 448.63 594.45 450.66 597.18 450.66 597.18 L 450.98 594.41 L 450.44 594.24 Z" fill="#fab9af" fill-rule="nonzero" group-id="13,23" node-id="232" stroke="none" target-height="3.8789673" target-width="2.348999" target-x="448.627" target-y="593.306"></path><path d="M 443.71 589.28 C 443.71 589.28 445.65 590.00 445.53 591.67 C 445.41 593.34 444.18 595.60 443.06 594.98 C 441.94 594.36 443.27 589.32 443.71 589.28 Z" fill="#fab9af" fill-rule="nonzero" group-id="13,23" node-id="234" stroke="none" target-height="6.3170166" target-width="3.7189941" target-x="441.936" target-y="589.285"></path><path d="M 720.73 655.50 L 753.46 671.12 L 737.85 703.85 L 705.11 688.23 Z" fill="#2a94f4" fill-opacity="0.22" fill-rule="nonzero" group-id="14" node-id="240" stroke="none" target-height="48.3515" target-width="48.351563" target-x="705.11194" target-y="655.50116"></path><path d="M 254.53 511.65 L 287.26 527.27 L 271.64 560.01 L 238.91 544.39 Z" fill="#2a94f4" fill-opacity="0.41" fill-rule="nonzero" group-id="15" node-id="245" stroke="none" target-height="48.351563" target-width="48.351563" target-x="238.90836" target-y="511.65497"></path><path d="M 753.47 599.45 C 753.47 607.63 746.83 614.27 738.64 614.27 C 730.45 614.27 723.81 607.63 723.81 599.45 C 723.81 591.26 730.45 584.62 738.64 584.62 C 746.83 584.62 753.47 591.26 753.47 599.45 Z" fill="#2a94f4" fill-opacity="0.22" fill-rule="nonzero" group-id="16" node-id="250" stroke="none" target-height="29.657959" target-width="29.65802" target-x="723.808" target-y="584.616"></path><path d="M 831.59 696.98 C 831.59 705.17 824.95 711.81 816.76 711.81 C 808.58 711.81 801.94 705.17 801.94 696.98 C 801.94 688.79 808.58 682.15 816.76 682.15 C 824.95 682.15 831.59 688.79 831.59 696.98 Z" fill="#2a94f4" fill-opacity="0.22" fill-rule="nonzero" group-id="17" node-id="255" stroke="none" target-height="29.65802" target-width="29.65802" target-x="801.936" target-y="682.148"></path><path d="M 344.44 555.49 C 344.44 563.67 337.81 570.31 329.62 570.31 C 321.43 570.31 314.79 563.67 314.79 555.49 C 314.79 547.30 321.43 540.66 329.62 540.66 C 337.81 540.66 344.44 547.30 344.44 555.49 Z" fill="#2a94f4" fill-opacity="0.22" fill-rule="nonzero" group-id="18" node-id="260" stroke="none" target-height="29.65802" target-width="29.65802" target-x="314.787" target-y="540.656"></path><path d="M 671.22 729.18 C 671.22 732.33 617.44 734.89 551.10 734.89 C 484.76 734.89 430.98 732.33 430.98 729.18 C 430.98 726.02 484.76 723.47 551.10 723.47 C 617.44 723.47 671.22 726.02 671.22 729.18 Z" fill="#f2f2f2" fill-rule="nonzero" node-id="263" stroke="none" target-height="11.417969" target-width="240.236" target-x="430.981" target-y="723.468"></path></svg>