<?xml version="1.0" standalone="no"?><!DOCTYPE svg PUBLIC "-//W3C//DTD SVG 1.1//EN" "http://www.w3.org/Graphics/SVG/1.1/DTD/svg11.dtd"><svg height="2000" node-id="1" sillyvg="true" template-height="2000" template-width="2000" version="1.1" viewBox="0 0 2000 2000" width="2000" xmlns="http://www.w3.org/2000/svg" xmlns:xlink="http://www.w3.org/1999/xlink"><defs node-id="54"></defs><g node-id="169"><g node-id="173"><path d="M 1145.00 582.00 C 1145.00 582.00 1227.30 513.40 1273.30 508.50 C 1319.30 503.60 1324.20 543.80 1349.70 544.80 C 1375.20 545.80 1390.80 485.00 1435.90 472.30 C 1481.00 459.60 1628.90 580.10 1628.90 580.10 L 1145.00 582.00 Z" fill="#cef5ec" fill-opacity="0.46" fill-rule="nonzero" group-id="1,5" node-id="59" stroke="none" target-height="122.399994" target-width="483.90002" target-x="1145" target-y="459.6"></path></g><g node-id="174"><path d="M 189.00 756.00 L 601.00 756.00 C 601.00 756.00 567.10 688.50 508.10 692.40 C 449.10 696.40 444.30 623.20 366.70 630.00 C 289.20 636.80 189.00 756.00 189.00 756.00 Z" fill="#cef5ec" fill-opacity="0.46" fill-rule="nonzero" group-id="1,6" node-id="64" stroke="none" target-height="132.79999" target-width="412" target-x="189" target-y="623.2"></path></g><path d="M 1812.00 1491.50 C 1812.00 1509.93 1726.45 1527.61 1574.17 1540.64 C 1421.89 1553.68 1215.36 1561.00 1000.00 1561.00 C 784.64 1561.00 578.11 1553.68 425.83 1540.64 C 273.55 1527.61 188.00 1509.93 188.00 1491.50 C 188.00 1473.07 273.55 1455.39 425.83 1442.36 C 578.11 1429.32 784.64 1422.00 1000.00 1422.00 C 1215.36 1422.00 1421.89 1429.32 1574.17 1442.36 C 1726.45 1455.39 1812.00 1473.07 1812.00 1491.50 Z" fill="#0b4870" fill-rule="nonzero" group-id="1" node-id="67" stroke="none" target-height="139" target-width="1624" target-x="188" target-y="1422"></path></g><g node-id="170"><path d="M 1475.20 1470.90 L 524.80 1470.90 C 486.80 1470.90 456.00 1440.10 456.00 1402.10 L 456.00 892.90 C 456.00 854.90 486.80 824.10 524.80 824.10 L 1475.20 824.10 C 1513.20 824.10 1544.00 854.90 1544.00 892.90 L 1544.00 1402.20 C 1544.00 1440.10 1513.20 1470.90 1475.20 1470.90 Z" fill="#2a94f4" fill-rule="nonzero" group-id="2" node-id="71" stroke="none" target-height="646.80005" target-width="1088" target-x="456" target-y="824.1"></path><path d="M 1463.00 574.20 L 1463.00 952.00 L 536.00 952.00 L 536.00 574.20 C 536.00 547.60 558.30 526.00 585.90 526.00 L 1413.10 526.00 C 1440.70 526.00 1463.00 547.60 1463.00 574.20 Z" fill="#f2f2f2" fill-rule="nonzero" group-id="2" node-id="73" stroke="none" target-height="426" target-width="927" target-x="536" target-y="526"></path><path d="M 1463.00 952.00 L 1463.00 1103.90 C 1463.00 1130.50 1440.70 1152.10 1413.10 1152.10 L 1028.00 1292.40 C 1009.70 1299.10 989.40 1299.10 971.10 1292.40 L 585.90 1152.10 C 558.40 1152.10 536.00 1130.50 536.00 1103.90 L 536.00 952.00 L 1463.00 952.00 Z" fill="#f7f7f7" fill-rule="nonzero" group-id="2" node-id="75" stroke="none" target-height="347.09998" target-width="927" target-x="536" target-y="952"></path><path d="M 787.00 1362.00 L 540.00 1362.00 C 533.40 1362.00 528.00 1356.60 528.00 1350.00 L 528.00 1339.00 C 528.00 1332.40 533.40 1327.00 540.00 1327.00 L 787.00 1327.00 C 793.60 1327.00 799.00 1332.40 799.00 1339.00 L 799.00 1350.00 C 799.00 1356.60 793.60 1362.00 787.00 1362.00 Z" fill="#f7f7f7" fill-rule="nonzero" group-id="2" node-id="77" stroke="none" target-height="35" target-width="271" target-x="528" target-y="1327"></path><g node-id="175"><path d="M 792.00 1053.20 L 394.00 1053.20 C 387.40 1053.20 382.00 1047.80 382.00 1041.20 L 382.00 847.00 C 382.00 840.40 387.40 835.00 394.00 835.00 L 792.00 835.00 C 798.60 835.00 804.00 840.40 804.00 847.00 L 804.00 1041.20 C 804.00 1047.80 798.60 1053.20 792.00 1053.20 Z" fill="#cef5ec" fill-rule="nonzero" group-id="2,7" node-id="81" stroke="none" target-height="218.19995" target-width="422" target-x="382" target-y="835"></path><path d="M 737.20 1032.90 L 804.00 1110.40 L 804.00 944.10 Z" fill="#cef5ec" fill-rule="nonzero" group-id="2,7" node-id="83" stroke="none" target-height="166.30005" target-width="66.79999" target-x="737.2" target-y="944.1"></path><path d="M 759.60 895.80 L 441.90 895.80 C 435.90 895.80 430.90 890.80 430.90 884.80 L 430.90 880.60 C 430.90 874.60 435.90 869.60 441.90 869.60 L 759.60 869.60 C 765.60 869.60 770.60 874.60 770.60 880.60 L 770.60 884.80 C 770.60 890.80 765.70 895.80 759.60 895.80 Z" fill="#f7f7f7" fill-rule="nonzero" group-id="2,7" node-id="85" stroke="none" target-height="26.200012" target-width="339.69998" target-x="430.9" target-y="869.6"></path><path d="M 759.60 947.10 L 441.90 947.10 C 435.90 947.10 430.90 942.10 430.90 936.10 L 430.90 931.90 C 430.90 925.90 435.90 920.90 441.90 920.90 L 759.60 920.90 C 765.60 920.90 770.60 925.90 770.60 931.90 L 770.60 936.10 C 770.60 942.10 765.70 947.10 759.60 947.10 Z" fill="#f7f7f7" fill-rule="nonzero" group-id="2,7" node-id="87" stroke="none" target-height="26.199951" target-width="339.69998" target-x="430.9" target-y="920.9"></path><path d="M 613.00 998.30 L 441.90 998.30 C 435.90 998.30 430.90 993.30 430.90 987.30 L 430.90 983.10 C 430.90 977.10 435.90 972.10 441.90 972.10 L 613.00 972.10 C 619.00 972.10 624.00 977.10 624.00 983.10 L 624.00 987.30 C 624.00 993.40 619.00 998.30 613.00 998.30 Z" fill="#f7f7f7" fill-rule="nonzero" group-id="2,7" node-id="89" stroke="none" target-height="26.200012" target-width="193.1" target-x="430.9" target-y="972.1"></path></g><g node-id="176"><path d="M 1168.00 618.50 C 1168.00 717.64 1087.64 798.00 988.50 798.00 C 889.36 798.00 809.00 717.64 809.00 618.50 C 809.00 519.36 889.36 439.00 988.50 439.00 C 1087.64 439.00 1168.00 519.36 1168.00 618.50 Z" fill="#cef5ec" fill-rule="nonzero" group-id="2,8" node-id="94" stroke="none" target-height="359" target-width="359" target-x="809" target-y="439"></path><g node-id="185"><path d="M 954.70 716.40 L 882.10 648.90 C 873.10 640.60 872.60 626.60 880.90 617.60 C 889.20 608.60 903.20 608.10 912.20 616.40 L 955.00 656.20 L 1074.60 547.60 C 1083.70 539.40 1097.70 540.00 1105.90 549.10 C 1114.10 558.20 1113.50 572.20 1104.40 580.40 L 954.70 716.40 Z" fill="#f7f7f7" fill-rule="nonzero" group-id="2,8,17" node-id="98" stroke="none" target-height="177" target-width="241.5" target-x="872.6" target-y="539.4"></path></g></g></g><g node-id="171"><path d="M 1277.30 869.60 C 1277.30 869.60 1242.20 931.60 1221.50 927.50 C 1194.00 922.00 1156.00 915.00 1149.00 907.00 C 1142.00 899.00 1126.50 882.50 1123.50 883.50 C 1120.50 884.50 1130.50 898.50 1129.50 901.50 C 1128.50 904.50 1111.50 906.50 1100.50 911.50 C 1092.80 915.00 1081.70 921.80 1100.50 918.50 C 1123.50 914.50 1107.50 923.50 1142.50 920.50 C 1155.90 919.40 1221.40 960.30 1237.50 956.50 C 1254.50 952.50 1303.50 884.50 1303.50 884.50 L 1277.50 869.50" fill="#efb68f" fill-rule="nonzero" group-id="3" node-id="104" stroke="none" target-height="90.79999" target-width="221.80005" target-x="1081.7" target-y="869.5"></path><g node-id="177"><path d="M 1286.10 1434.70 C 1287.20 1448.40 1288.00 1459.20 1288.50 1464.70 C 1295.10 1465.50 1301.80 1466.60 1308.50 1466.90 L 1312.00 1435.10 C 1303.40 1434.90 1294.70 1434.70 1286.10 1434.70 Z" fill="#efb68f" fill-rule="nonzero" group-id="3,9" node-id="108" stroke="none" target-height="32.200073" target-width="25.900024" target-x="1286.1" target-y="1434.7"></path><path d="M 1288.80 1468.50 C 1288.80 1468.50 1220.00 1479.20 1236.20 1486.00 C 1252.40 1492.80 1305.90 1490.70 1305.90 1490.70 L 1308.50 1466.80 C 1301.80 1466.50 1295.10 1465.40 1288.50 1464.60 C 1288.70 1467.20 1288.80 1468.50 1288.80 1468.50 Z" fill="#0e538c" fill-rule="nonzero" group-id="3,9" node-id="110" stroke="none" target-height="28.200073" target-width="88.5" target-x="1220" target-y="1464.6"></path><path d="M 1345.50 1102.50 L 1358.50 1017.50 L 1283.50 1017.50 C 1283.50 1017.50 1270.50 1246.50 1273.50 1300.50 C 1275.40 1334.90 1280.20 1397.90 1283.40 1438.90 C 1293.50 1438.90 1303.60 1439.10 1313.70 1439.30 L 1327.60 1312.40 L 1345.50 1102.50 Z" fill="#0b4870" fill-rule="nonzero" group-id="3,9" node-id="112" stroke="none" target-height="421.80005" target-width="88" target-x="1270.5" target-y="1017.5"></path><path d="M 1396.50 1467.70 C 1396.50 1467.70 1346.50 1481.70 1343.00 1494.00 L 1421.00 1494.00 C 1421.00 1494.00 1420.00 1484.80 1418.40 1470.60 C 1410.90 1469.70 1403.50 1467.90 1396.00 1466.10 C 1396.30 1467.20 1396.50 1467.70 1396.50 1467.70 Z" fill="#0e538c" fill-rule="nonzero" group-id="3,9" node-id="114" stroke="none" target-height="27.900024" target-width="78" target-x="1343" target-y="1466.1"></path><path d="M 1386.10 1433.90 C 1390.90 1449.80 1394.70 1462.00 1396.00 1466.20 C 1403.50 1468.00 1410.90 1469.80 1418.40 1470.70 C 1417.20 1460.10 1415.80 1446.80 1414.20 1432.40 C 1404.90 1433.10 1395.50 1433.60 1386.10 1433.90 Z" fill="#efb68f" fill-rule="nonzero" group-id="3,9" node-id="116" stroke="none" target-height="38.299927" target-width="32.30005" target-x="1386.1" target-y="1432.4"></path><path d="M 1405.00 1313.00 C 1404.00 1281.00 1403.00 1014.00 1403.00 1014.00 L 1300.50 1023.50 L 1304.50 1065.50 L 1317.50 1097.50 C 1317.50 1097.50 1338.00 1271.00 1352.00 1326.00 C 1360.30 1358.70 1374.50 1406.50 1384.60 1439.90 C 1395.30 1439.60 1406.10 1439.10 1416.70 1438.10 C 1411.60 1389.60 1405.60 1330.90 1405.00 1313.00 Z" fill="#0b4870" fill-rule="nonzero" group-id="3,9" node-id="118" stroke="none" target-height="425.90002" target-width="116.19995" target-x="1300.5" target-y="1014"></path><path d="M 1268.50 873.50 L 1293.50 898.50 C 1293.50 898.50 1331.50 873.50 1327.50 852.50 C 1323.50 831.50 1312.60 835.70 1304.50 841.50 C 1290.50 851.50 1268.50 873.50 1268.50 873.50 Z" fill="#2a94f4" fill-rule="nonzero" group-id="3,9" node-id="120" stroke="none" target-height="67" target-width="63" target-x="1268.5" target-y="831.5"></path><path d="M 1333.50 829.50 C 1333.50 829.50 1309.50 846.50 1300.50 860.50 C 1291.50 874.50 1284.50 928.50 1282.50 946.50 C 1280.50 964.50 1272.50 1025.50 1273.50 1029.50 C 1274.50 1033.50 1384.00 1046.00 1396.00 1036.00 C 1408.00 1026.00 1393.00 989.00 1393.00 949.00 C 1393.00 909.00 1383.50 887.50 1381.50 874.50 C 1379.50 861.50 1367.50 829.50 1350.50 829.50 C 1333.50 829.50 1333.50 829.50 1333.50 829.50 Z" fill="#2a94f4" fill-rule="nonzero" group-id="3,9" node-id="122" stroke="none" target-height="216.5" target-width="135.5" target-x="1272.5" target-y="829.5"></path><path d="M 1308.50 762.50 C 1308.50 762.50 1303.50 819.50 1326.50 822.50 L 1326.50 838.50 C 1326.50 838.50 1338.50 842.50 1352.50 838.60 L 1359.50 769.50 C 1359.50 769.50 1346.50 756.50 1345.50 756.50 C 1344.50 756.50 1308.50 762.50 1308.50 762.50 Z" fill="#efb68f" fill-rule="nonzero" group-id="3,9" node-id="124" stroke="none" target-height="86" target-width="56" target-x="1303.5" target-y="756.5"></path><path d="M 1349.50 786.50 L 1345.50 786.50 C 1345.50 786.50 1349.50 770.50 1344.50 768.50 C 1339.50 766.50 1315.50 783.50 1303.50 770.50 C 1291.50 757.50 1304.50 747.50 1311.50 743.50 C 1318.50 739.50 1346.50 736.50 1351.50 748.50 C 1351.50 748.50 1353.50 746.50 1358.50 749.50 C 1363.50 752.50 1366.50 808.50 1349.50 816.50 L 1350.50 796.50 C 1350.50 796.50 1356.80 791.40 1353.50 781.50 C 1351.50 775.50 1349.50 786.50 1349.50 786.50 Z" fill="#0b4870" fill-rule="nonzero" group-id="3,9" node-id="126" stroke="none" target-height="80" target-width="75" target-x="1291.5" target-y="736.5"></path><path d="M 1374.50 882.30 C 1374.50 882.30 1384.70 947.80 1392.00 989.00 C 1395.00 1006.00 1397.60 1091.50 1399.50 1113.00 C 1399.50 1113.00 1399.50 1124.20 1401.50 1137.60 C 1403.50 1151.00 1404.50 1130.90 1404.50 1128.60 C 1404.50 1126.40 1405.90 1139.00 1408.50 1152.10 C 1410.50 1162.20 1415.50 1171.10 1416.50 1155.50 C 1417.50 1139.80 1417.50 1111.80 1414.50 1102.90 C 1411.50 1094.00 1417.50 1033.50 1414.50 983.10 C 1411.50 932.70 1403.00 881.00 1403.00 881.00 L 1374.50 882.30 Z" fill="#efb68f" fill-rule="nonzero" group-id="3,9" node-id="128" stroke="none" target-height="290.09998" target-width="43" target-x="1374.5" target-y="881"></path><path d="M 1370.50 888.50 C 1370.50 888.50 1359.50 852.50 1370.50 845.50 C 1381.50 838.50 1405.50 861.50 1408.50 884.50 L 1370.50 888.50 Z" fill="#2a94f4" fill-rule="nonzero" group-id="3,9" node-id="130" stroke="none" target-height="50" target-width="49" target-x="1359.5" target-y="838.5"></path></g></g><g node-id="172"><g node-id="178"><path d="M 379.60 1312.20 C 345.20 1310.10 316.00 1280.60 315.80 1255.80 C 315.60 1235.30 335.30 1230.00 335.90 1204.10 C 336.50 1181.80 322.00 1176.80 324.50 1157.80 C 327.10 1137.80 346.60 1114.90 370.20 1114.80 C 397.20 1114.70 415.60 1145.00 417.20 1169.20 C 418.30 1185.70 408.20 1187.90 408.50 1203.50 C 409.10 1235.20 448.70 1244.30 448.10 1268.00 C 447.60 1289.60 413.50 1314.30 379.60 1312.20 Z" fill="#2a94f4" fill-opacity="0.5" fill-rule="nonzero" group-id="4,10" node-id="137" stroke="none" target-height="199.6001" target-width="133.1" target-x="315.6" target-y="1114.7"></path></g><g node-id="179"><path d="M 377.30 1148.30 L 379.30 1148.30 L 379.30 1329.00 L 377.30 1329.00 Z" fill="#f7f7f7" fill-rule="nonzero" group-id="4,11" node-id="142" stroke="none" target-height="180.69995" target-width="2" target-x="377.3" target-y="1148.3"></path></g><g node-id="180"><path d="M 378.10 1211.00 C 361.40 1209.90 359.10 1185.30 359.00 1184.30 L 361.00 1184.10 C 361.00 1184.30 363.30 1208.00 378.30 1209.00 L 378.10 1211.00 Z" fill="#f7f7f7" fill-rule="nonzero" group-id="4,12" node-id="147" stroke="none" target-height="26.900024" target-width="19.299988" target-x="359" target-y="1184.1"></path></g><g node-id="181"><path d="M 354.00 1327.60 L 401.90 1327.60 C 406.60 1327.60 410.30 1331.50 410.10 1336.20 L 403.60 1457.10 C 403.40 1461.30 400.00 1464.70 395.80 1464.80 L 360.90 1466.20 C 356.40 1466.40 352.60 1462.90 352.40 1458.50 L 345.90 1336.20 C 345.60 1331.50 349.30 1327.60 354.00 1327.60 Z" fill="#2a94f4" fill-rule="nonzero" group-id="4,13" node-id="152" stroke="none" target-height="138.80005" target-width="64.69998" target-x="345.6" target-y="1327.6"></path></g><g node-id="182"><path d="M 378.10 1274.10 C 366.10 1273.30 364.50 1255.90 364.40 1255.10 L 366.40 1254.90 C 366.40 1255.10 368.00 1271.40 378.20 1272.10 L 378.10 1274.10 Z" fill="#f7f7f7" fill-rule="nonzero" group-id="4,14" node-id="157" stroke="none" target-height="19.199951" target-width="13.800018" target-x="364.4" target-y="1254.9"></path></g><g node-id="183"><path d="M 377.40 1247.90 L 377.30 1245.90 C 391.30 1245.20 393.40 1229.50 393.40 1229.40 L 395.40 1229.60 C 395.40 1229.80 393.10 1247.20 377.40 1247.90 Z" fill="#f7f7f7" fill-rule="nonzero" group-id="4,15" node-id="162" stroke="none" target-height="18.5" target-width="18.100006" target-x="377.3" target-y="1229.4"></path></g><path d="M 378.10 1294.30 L 378.00 1292.30 C 387.90 1291.80 389.30 1281.00 389.40 1280.60 L 391.40 1280.80 C 391.40 1280.90 389.70 1293.70 378.10 1294.30 Z" fill="#f7f7f7" fill-rule="nonzero" group-id="4,16" node-id="167" stroke="none" target-height="13.700073" target-width="13.399994" target-x="378" target-y="1280.6"></path></g></svg>