<?xml version="1.0" standalone="no"?><!DOCTYPE svg PUBLIC "-//W3C//DTD SVG 1.1//EN" "http://www.w3.org/Graphics/SVG/1.1/DTD/svg11.dtd"><svg height="582" node-id="1" sillyvg="true" template-height="582" template-width="595" version="1.1" viewBox="0 0 595 582" width="595" xmlns="http://www.w3.org/2000/svg" xmlns:xlink="http://www.w3.org/1999/xlink"><defs node-id="160"></defs><g node-id="499"><g node-id="507"><path d="M 185.10 466.70 C 189.80 465.10 195.00 463.30 199.60 464.80 L 199.70 464.50 C 194.10 462.60 190.70 456.70 189.60 450.90 C 188.50 445.10 189.30 439.10 189.10 433.10 C 188.90 427.10 187.70 420.90 183.50 416.70 C 175.70 408.90 161.50 411.50 153.60 403.90 C 150.10 400.50 148.50 395.60 146.90 390.90 C 144.80 384.90 142.40 379.10 139.40 373.50 C 136.20 367.50 131.70 361.50 125.20 359.80 C 120.60 358.60 115.60 359.80 111.30 361.90 C 104.50 365.30 98.70 371.20 96.60 378.50 C 94.90 384.60 95.80 391.40 98.70 397.10 C 101.50 402.80 106.10 407.60 111.40 411.20 C 120.50 417.50 132.10 420.80 138.70 429.80 C 142.80 435.40 144.20 442.40 146.20 449.00 C 148.10 455.60 150.90 462.50 156.60 466.40 C 160.70 469.20 165.80 470.20 170.80 470.00 C 175.60 469.70 180.40 468.30 185.10 466.70 Z" fill="#cdeafb" fill-rule="nonzero" group-id="1,9" node-id="166" stroke="none" target-height="111.600006" target-width="104.799995" target-x="94.9" target-y="358.6"></path><path d="M 118.20 392.70 C 113.90 391.50 109.60 390.40 105.30 389.20 C 104.60 389.00 104.80 387.90 105.50 388.10 C 109.40 389.20 113.30 390.20 117.20 391.30 C 112.10 384.40 107.80 377.00 104.90 368.90 C 104.70 368.20 105.70 367.80 106.00 368.50 C 108.80 376.50 113.10 383.70 118.10 390.50 C 118.50 386.70 119.00 382.90 119.40 379.10 C 119.50 378.40 120.60 378.50 120.50 379.30 C 120.00 383.50 119.50 387.70 119.10 391.90 C 120.20 393.40 121.30 394.80 122.50 396.30 C 126.50 401.30 130.80 406.10 135.20 410.90 C 135.20 407.10 135.30 403.30 135.30 399.50 C 135.30 398.80 136.40 398.60 136.40 399.40 C 136.40 403.60 136.30 407.90 136.30 412.10 C 138.90 414.80 141.40 417.60 144.10 420.20 C 148.70 424.90 153.40 429.40 158.20 433.80 C 157.40 428.50 156.70 423.10 155.90 417.80 C 155.80 417.10 156.90 416.90 157.00 417.70 C 157.80 423.30 158.60 428.90 159.40 434.60 C 159.40 434.70 159.40 434.80 159.30 434.90 C 166.10 441.10 173.10 447.10 180.30 452.80 L 177.10 437.60 C 177.00 436.90 178.10 436.80 178.20 437.50 C 179.30 443.00 180.50 448.50 181.60 453.90 C 185.60 457.00 189.60 460.10 193.80 463.10 C 194.40 463.50 193.70 464.40 193.10 464.00 C 189.20 461.20 185.40 458.30 181.60 455.30 C 181.50 455.40 181.40 455.40 181.20 455.40 C 174.90 455.10 168.70 454.80 162.40 454.50 C 161.70 454.50 161.80 453.30 162.60 453.40 C 168.50 453.70 174.40 454.00 180.30 454.20 C 172.80 448.20 165.50 442.00 158.40 435.50 C 158.30 435.60 158.10 435.70 157.90 435.70 C 153.10 435.10 148.40 434.60 143.60 434.00 C 142.90 433.90 143.00 432.80 143.80 432.90 C 148.30 433.40 152.80 434.00 157.30 434.50 C 152.50 430.10 147.80 425.50 143.20 420.80 C 140.70 418.30 138.30 415.70 135.90 413.20 C 135.90 413.20 135.80 413.20 135.80 413.20 C 135.70 413.40 135.40 413.60 135.10 413.50 C 131.20 412.20 127.20 410.90 123.30 409.70 C 122.60 409.50 123.10 408.40 123.70 408.70 L 135.00 412.40 C 130.10 407.20 125.40 401.80 121.00 396.20 C 119.90 395.00 119.10 393.90 118.20 392.70 Z" fill="#2a94f4" fill-rule="nonzero" group-id="1,9" node-id="168" stroke="none" target-height="96.600006" target-width="89.799995" target-x="104.6" target-y="367.8"></path></g><g node-id="508"><path d="M 150.60 352.20 C 144.10 370.10 145.70 390.60 154.10 407.80 C 162.20 424.40 176.30 437.80 192.90 446.00 L 193.50 444.80 C 197.00 436.50 198.40 427.30 198.80 418.30 C 199.40 402.90 196.90 387.30 190.30 373.30 C 183.70 359.40 172.80 347.30 159.00 340.40 L 158.00 340.00 C 154.40 343.20 152.20 347.70 150.60 352.20 Z" fill="#2a94f4" fill-rule="nonzero" group-id="1,10" node-id="173" stroke="none" target-height="106" target-width="55.299988" target-x="144.1" target-y="340"></path><path d="M 153.80 394.00 C 153.20 393.60 153.70 392.60 154.30 393.00 C 161.70 397.60 169.20 402.20 176.60 406.80 C 173.60 398.70 170.80 390.50 168.20 382.20 C 168.20 382.20 168.10 382.20 168.10 382.20 C 162.90 378.50 157.80 374.80 152.60 371.10 C 152.00 370.70 152.80 369.80 153.40 370.30 C 158.20 373.70 162.90 377.10 167.70 380.50 C 163.80 368.00 160.30 355.40 157.30 342.70 C 157.10 342.00 158.20 341.60 158.40 342.40 C 161.40 355.00 164.80 367.50 168.70 379.80 C 171.30 373.60 173.80 367.50 176.40 361.30 C 176.70 360.60 177.70 361.10 177.40 361.80 C 174.70 368.30 172.00 374.80 169.30 381.30 C 169.30 381.30 169.30 381.40 169.20 381.40 C 172.00 390.20 174.90 398.90 178.10 407.60 C 181.90 400.80 185.70 393.90 189.50 387.10 C 189.90 386.50 190.90 387.00 190.50 387.60 C 186.60 394.60 182.80 401.50 178.90 408.50 C 178.80 408.70 178.70 408.80 178.50 408.80 C 181.10 415.70 183.80 422.50 186.60 429.30 C 189.40 424.30 192.20 419.30 195.00 414.30 C 195.40 413.70 196.40 414.20 196.00 414.80 C 193.10 420.10 190.10 425.30 187.20 430.60 C 189.00 434.90 190.90 439.30 192.80 443.60 C 193.10 444.30 192.00 444.60 191.70 443.90 C 189.90 439.90 188.10 435.80 186.40 431.70 C 186.30 431.80 186.10 431.80 185.90 431.70 L 163.50 418.60 C 162.90 418.20 163.40 417.20 164.00 417.60 C 171.30 421.90 178.60 426.10 185.90 430.40 C 182.90 423.20 180.00 415.90 177.30 408.60 C 169.40 403.60 161.60 398.80 153.80 394.00 Z" fill="#cdeafb" fill-rule="nonzero" group-id="1,10" node-id="175" stroke="none" target-height="103" target-width="44.399994" target-x="152" target-y="341.6"></path></g><g node-id="509"><path d="M 132.60 412.00 C 136.00 421.60 136.60 432.20 134.30 442.20 C 134.00 442.00 133.70 441.80 133.30 441.60 C 128.60 437.00 124.30 431.60 121.80 425.50 C 119.70 420.40 118.60 414.90 119.50 409.50 C 120.00 406.80 121.50 403.70 124.30 403.40 C 125.70 403.30 127.10 403.90 128.20 404.90 C 130.40 406.70 131.60 409.40 132.60 412.00 Z" fill="#2a94f4" fill-rule="nonzero" group-id="1,11" node-id="180" stroke="none" target-height="38.900024" target-width="18.000008" target-x="118.6" target-y="403.3"></path><path d="M 162.90 454.20 L 162.90 454.20 C 151.30 449.40 143.60 439.40 139.90 427.30 C 139.50 425.90 139.10 424.40 139.30 423.00 C 139.50 421.60 140.30 420.10 141.70 419.60 C 142.60 419.20 143.60 419.30 144.50 419.50 C 147.50 420.20 150.00 422.30 152.00 424.70 C 159.20 432.90 160.70 443.60 162.90 454.20 Z" fill="#2a94f4" fill-rule="nonzero" group-id="1,11" node-id="182" stroke="none" target-height="35" target-width="23.799988" target-x="139.1" target-y="419.2"></path><path d="M 163.20 454.70 C 158.10 463.80 151.10 472.30 141.60 476.60 C 139.70 477.50 137.60 478.10 135.50 478.00 C 133.40 477.90 131.30 476.80 130.30 474.90 C 129.20 472.50 130.20 469.70 131.70 467.50 C 135.00 462.70 140.40 459.90 145.90 457.90 C 150.80 456.20 157.20 455.10 162.50 454.50 C 162.70 454.60 163.00 454.70 163.20 454.70 Z" fill="#2a94f4" fill-rule="nonzero" group-id="1,11" node-id="184" stroke="none" target-height="23.600006" target-width="34" target-x="129.2" target-y="454.5"></path><path d="M 115.10 428.20 L 114.80 428.60 C 103.40 423.80 92.70 415.70 88.50 404.10 C 87.50 401.40 87.20 397.70 89.60 396.10 C 90.90 395.20 92.70 395.20 94.20 395.80 C 95.70 396.40 96.90 397.50 98.10 398.60 C 106.40 406.90 111.50 417.90 115.80 428.80 C 115.50 428.60 115.30 428.40 115.10 428.20 Z" fill="#2a94f4" fill-rule="nonzero" group-id="1,11" node-id="186" stroke="none" target-height="33.599976" target-width="28.600006" target-x="87.2" target-y="395.2"></path><path d="M 133.80 442.00 C 133.80 442.00 133.90 442.10 133.90 442.10 C 129.50 445.80 125.80 450.20 121.40 453.90 C 117.00 457.60 111.80 460.80 106.00 461.10 C 104.10 461.20 101.80 460.70 101.20 458.90 C 100.90 457.80 101.30 456.60 101.90 455.70 C 104.10 451.80 107.60 448.80 111.50 446.60 C 115.40 444.50 119.80 443.30 124.20 442.40 C 126.90 442.00 131.00 441.60 133.80 442.00 Z" fill="#2a94f4" fill-rule="nonzero" group-id="1,11" node-id="188" stroke="none" target-height="19.600006" target-width="32.999992" target-x="100.9" target-y="441.6"></path><path d="M 180.80 464.50 C 183.60 462.80 187.90 460.90 191.00 459.70 C 189.70 465.10 188.00 470.30 186.00 475.50 C 184.90 478.40 183.70 481.20 181.90 483.70 C 180.60 485.60 178.90 487.30 176.80 488.20 C 174.70 489.10 172.10 489.00 170.30 487.60 C 168.80 486.40 168.00 484.40 167.90 482.50 C 167.50 478.60 169.20 474.70 171.80 471.70 C 174.40 468.70 177.40 466.60 180.80 464.50 Z" fill="#2a94f4" fill-rule="nonzero" group-id="1,11" node-id="190" stroke="none" target-height="29.399994" target-width="23.5" target-x="167.5" target-y="459.7"></path><path d="M 167.90 421.20 C 170.40 420.30 173.20 421.90 175.20 423.70 C 179.90 428.00 183.20 433.80 185.30 439.80 C 187.40 445.80 189.30 453.30 190.40 459.60 C 190.30 459.60 190.20 459.60 190.00 459.60 C 178.20 454.50 168.80 444.00 165.10 431.60 C 164.50 429.70 164.10 427.70 164.40 425.80 C 164.90 423.80 166.10 421.90 167.90 421.20 Z" fill="#2a94f4" fill-rule="nonzero" group-id="1,11" node-id="192" stroke="none" target-height="39.30002" target-width="26.299988" target-x="164.1" target-y="420.3"></path><path d="M 113.70 427.40 C 135.20 446.90 163.00 458.60 192.00 460.20 C 192.70 460.20 192.80 459.10 192.10 459.10 C 163.40 457.50 135.80 446.00 114.60 426.70 C 114.00 426.20 113.10 426.90 113.70 427.40 Z" fill="#2a94f4" fill-rule="nonzero" group-id="1,11" node-id="194" stroke="none" target-height="34" target-width="79.700005" target-x="113.1" target-y="426.2"></path></g></g><g node-id="500"><g node-id="510"><path d="M 497.30 474.50 C 482.30 487.90 461.50 494.30 441.40 492.80 C 421.90 491.40 403.20 482.70 388.70 469.60 L 389.60 468.60 C 396.40 461.90 404.80 456.90 413.60 453.10 C 428.50 446.50 444.80 442.80 461.10 443.90 C 477.30 444.90 493.50 450.90 505.60 461.70 L 506.40 462.40 C 504.60 467.20 501.10 471.10 497.30 474.50 Z" fill="#cdeafb" fill-rule="nonzero" group-id="2,12" node-id="202" stroke="none" target-height="51.5" target-width="117.69998" target-x="388.7" target-y="442.8"></path><path d="M 455.00 487.70 C 455.60 488.20 456.40 487.30 455.80 486.80 C 448.40 481.30 441.00 475.80 433.60 470.30 C 442.80 470.10 451.90 469.60 461.00 468.90 C 461.00 468.90 461.00 468.90 461.10 469.00 C 466.70 472.60 472.40 476.30 478.00 479.90 C 478.60 480.30 479.20 479.20 478.50 478.80 C 473.30 475.40 468.10 472.10 462.90 468.70 C 476.70 467.70 490.40 466.10 504.10 464.10 C 504.90 464.00 504.80 462.80 504.00 462.90 C 490.50 464.90 476.90 466.40 463.30 467.40 C 468.30 462.50 473.40 457.60 478.40 452.70 C 479.00 452.20 478.00 451.40 477.50 451.90 C 472.20 457.10 466.90 462.30 461.50 467.50 C 461.50 467.50 461.50 467.60 461.40 467.60 C 451.70 468.30 442.00 468.80 432.20 469.10 C 437.40 462.70 442.70 456.30 447.90 449.90 C 448.40 449.30 447.50 448.50 447.00 449.10 C 441.70 455.60 436.30 462.10 431.00 468.60 C 430.90 468.80 430.80 468.90 430.90 469.10 C 423.10 469.30 415.40 469.30 407.60 469.20 C 411.40 464.50 415.20 459.80 419.00 455.10 C 419.50 454.50 418.60 453.70 418.10 454.30 C 414.10 459.20 410.10 464.20 406.10 469.10 C 401.10 469.00 396.10 468.90 391.10 468.70 C 390.30 468.70 390.40 469.90 391.20 469.90 C 395.90 470.10 400.60 470.30 405.20 470.40 C 405.20 470.60 405.20 470.80 405.40 470.90 L 427.00 487.80 C 427.60 488.30 428.40 487.40 427.80 486.90 C 420.80 481.40 413.70 475.90 406.70 470.40 C 415.00 470.50 423.20 470.50 431.50 470.30 C 439.50 476.10 447.30 481.90 455.00 487.70 Z" fill="#004970" fill-rule="nonzero" group-id="2,12" node-id="204" stroke="none" target-height="39.799988" target-width="114.600006" target-x="390.3" target-y="448.5"></path></g><g node-id="511"><path d="M 403.00 465.90 C 398.00 464.40 392.40 462.70 387.60 464.50 L 387.50 464.20 C 393.40 462.00 396.70 455.60 397.60 449.40 C 398.50 443.20 397.50 436.90 397.40 430.60 C 397.30 424.30 398.40 417.60 402.60 413.00 C 410.50 404.50 425.60 406.60 433.60 398.20 C 437.20 394.40 438.70 389.20 440.20 384.20 C 442.20 377.80 444.50 371.50 447.40 365.50 C 450.50 359.10 455.00 352.50 461.90 350.50 C 466.80 349.00 472.10 350.10 476.70 352.20 C 484.10 355.50 490.40 361.50 492.90 369.10 C 495.00 375.50 494.20 382.70 491.50 388.80 C 488.70 395.00 484.10 400.20 478.70 404.20 C 469.30 411.20 457.20 415.20 450.70 425.00 C 446.70 431.10 445.40 438.50 443.60 445.60 C 441.80 452.70 439.20 460.00 433.40 464.40 C 429.20 467.60 423.80 468.80 418.50 468.70 C 413.20 468.80 408.10 467.50 403.00 465.90 Z" fill="#2a94f4" fill-rule="nonzero" group-id="2,13" node-id="209" stroke="none" target-height="119.79999" target-width="107.5" target-x="387.5" target-y="349"></path><path d="M 470.60 385.10 C 475.10 383.70 479.60 382.30 484.10 380.90 C 484.80 380.70 484.60 379.50 483.90 379.70 C 479.80 381.00 475.70 382.20 471.70 383.50 C 476.80 376.00 481.10 368.00 483.80 359.30 C 484.00 358.60 482.90 358.20 482.70 358.90 C 480.10 367.40 475.80 375.30 470.90 382.60 C 470.30 378.60 469.70 374.60 469.00 370.60 C 468.90 369.80 467.70 370.10 467.80 370.80 C 468.50 375.20 469.20 379.60 469.90 384.00 C 468.80 385.60 467.70 387.20 466.50 388.80 C 462.40 394.30 458.20 399.50 453.70 404.70 C 453.50 400.70 453.30 396.70 453.10 392.70 C 453.10 391.90 451.90 391.80 451.90 392.60 C 452.10 397.10 452.30 401.60 452.60 406.00 C 450.00 409.00 447.40 412.00 444.80 414.90 C 440.20 420.00 435.40 425.00 430.50 429.90 C 431.10 424.20 431.70 418.60 432.30 412.90 C 432.40 412.10 431.20 412.00 431.10 412.80 C 430.50 418.80 429.90 424.70 429.20 430.70 C 429.20 430.80 429.20 431.00 429.30 431.10 C 422.40 437.90 415.30 444.50 407.90 450.90 L 410.60 434.70 C 410.70 433.90 409.50 433.90 409.40 434.60 C 408.40 440.40 407.40 446.30 406.50 452.10 C 402.40 455.60 398.30 459.00 394.10 462.30 C 393.50 462.80 394.30 463.70 394.90 463.20 C 398.90 460.10 402.80 456.80 406.70 453.60 C 406.80 453.70 406.90 453.70 407.10 453.70 C 413.70 453.10 420.30 452.50 426.90 452.00 C 427.70 451.90 427.40 450.80 426.70 450.80 C 420.50 451.30 414.30 451.90 408.10 452.40 C 415.80 445.80 423.30 438.90 430.50 431.80 C 430.60 431.90 430.80 432.00 431.00 432.00 C 436.00 431.20 441.00 430.40 446.00 429.60 C 446.80 429.50 446.50 428.30 445.80 428.40 C 441.10 429.20 436.30 429.90 431.60 430.70 C 436.50 425.80 441.30 420.80 445.90 415.70 C 448.40 412.90 450.90 410.20 453.30 407.30 C 453.30 407.30 453.40 407.30 453.40 407.30 C 453.50 407.50 453.80 407.70 454.10 407.60 C 458.20 406.10 462.30 404.60 466.40 403.10 C 467.10 402.80 466.60 401.80 465.90 402.00 L 454.10 406.30 C 459.00 400.60 463.80 394.70 468.20 388.60 C 468.90 387.50 469.80 386.30 470.60 385.10 Z" fill="#cdeafb" fill-rule="nonzero" group-id="2,13" node-id="211" stroke="none" target-height="105.5" target-width="91.29999" target-x="393.5" target-y="358.2"></path></g><g node-id="512"><path d="M 436.10 390.50 C 426.60 395.70 415.70 398.10 404.90 397.40 C 405.00 397.00 405.20 396.70 405.30 396.30 C 409.30 390.60 414.30 385.20 420.20 381.60 C 425.10 378.60 430.80 376.40 436.60 376.50 C 439.50 376.50 443.00 377.60 443.70 380.50 C 444.10 382.00 443.60 383.50 442.80 384.80 C 441.30 387.40 438.70 389.10 436.10 390.50 Z" fill="#cdeafb" fill-rule="nonzero" group-id="2,14" node-id="216" stroke="none" target-height="21.700012" target-width="39.200012" target-x="404.9" target-y="376.4"></path><path d="M 397.10 429.20 L 397.00 429.20 C 400.20 416.30 409.30 406.60 421.30 400.80 C 422.70 400.10 424.20 399.50 425.70 399.50 C 427.20 399.40 428.90 400.10 429.70 401.40 C 430.20 402.30 430.30 403.30 430.30 404.40 C 430.10 407.70 428.30 410.60 426.10 413.10 C 418.80 421.70 407.80 425.10 397.10 429.20 Z" fill="#cdeafb" fill-rule="nonzero" group-id="2,14" node-id="218" stroke="none" target-height="29.800018" target-width="33.299988" target-x="397" target-y="399.4"></path><path d="M 396.60 429.60 C 386.30 425.80 376.20 420.00 370.20 410.70 C 369.00 408.80 367.90 406.80 367.70 404.60 C 367.50 402.40 368.30 400.00 370.10 398.70 C 372.40 397.10 375.60 397.70 378.00 398.90 C 383.50 401.60 387.40 406.70 390.40 412.10 C 393.00 416.90 395.20 423.50 396.70 428.90 C 396.70 429.10 396.70 429.40 396.60 429.60 Z" fill="#5fc1cf" fill-rule="nonzero" group-id="2,14" node-id="220" stroke="none" target-height="32.5" target-width="29.200012" target-x="367.5" target-y="397.1"></path><path d="M 416.30 375.00 L 415.90 374.80 C 419.00 362.10 425.60 349.60 437.00 343.20 C 439.70 341.70 443.40 340.70 445.60 343.00 C 446.80 344.20 447.10 346.10 446.70 347.80 C 446.30 349.50 445.40 350.90 444.40 352.30 C 437.20 362.40 426.50 369.50 415.90 375.90 C 415.90 375.50 416.10 375.20 416.30 375.00 Z" fill="#cdeafb" fill-rule="nonzero" group-id="2,14" node-id="222" stroke="none" target-height="35.19998" target-width="31.200012" target-x="415.9" target-y="340.7"></path><path d="M 405.00 396.80 C 405.00 396.80 404.90 396.90 404.90 396.90 C 400.30 393.00 395.10 389.80 390.50 385.90 C 385.90 382.00 381.70 377.00 380.40 371.10 C 380.00 369.10 380.10 366.60 381.90 365.70 C 383.00 365.20 384.30 365.50 385.40 365.90 C 389.80 367.50 393.60 370.70 396.50 374.40 C 399.30 378.20 401.30 382.50 403.00 386.90 C 403.90 389.60 404.90 393.90 405.00 396.80 Z" fill="#cdeafb" fill-rule="nonzero" group-id="2,14" node-id="224" stroke="none" target-height="31.699982" target-width="25" target-x="380" target-y="365.2"></path><path d="M 389.30 449.60 C 391.60 452.20 394.20 456.40 396.00 459.40 C 390.20 458.90 384.40 458.00 378.70 456.80 C 375.50 456.10 372.30 455.30 369.40 453.90 C 367.20 452.80 365.10 451.40 363.80 449.30 C 362.50 447.30 362.10 444.50 363.30 442.40 C 364.30 440.60 366.20 439.50 368.20 439.00 C 372.20 438.00 376.60 439.10 380.10 441.20 C 383.70 443.40 386.60 446.40 389.30 449.60 Z" fill="#cdeafb" fill-rule="nonzero" group-id="2,14" node-id="226" stroke="none" target-height="21.399994" target-width="33.899994" target-x="362.1" target-y="438"></path><path d="M 432.40 428.90 C 433.80 431.40 432.50 434.50 431.00 436.90 C 427.30 442.60 421.80 446.90 415.90 450.20 C 410.00 453.40 402.50 456.60 396.10 458.90 C 396.10 458.80 396.10 458.60 396.10 458.50 C 399.50 445.30 408.90 433.80 421.10 427.90 C 423.00 427.00 425.00 426.20 427.10 426.20 C 429.10 426.20 431.40 427.10 432.40 428.90 Z" fill="#cdeafb" fill-rule="nonzero" group-id="2,14" node-id="228" stroke="none" target-height="32.69998" target-width="37.69998" target-x="396.1" target-y="426.2"></path><path d="M 416.90 373.40 C 400.10 399.10 392.60 430.10 395.80 460.60 C 395.90 461.40 397.10 461.30 397.00 460.50 C 393.80 430.30 401.20 399.60 417.90 374.20 C 418.20 373.50 417.30 372.70 416.90 373.40 Z" fill="#004970" fill-rule="nonzero" group-id="2,14" node-id="230" stroke="none" target-height="88.69998" target-width="25.600006" target-x="392.6" target-y="372.7"></path></g></g><g node-id="501"><path d="M 376.40 330.50 C 377.50 330.50 378.50 331.40 378.50 332.60 C 378.50 333.20 378.30 333.70 377.90 334.10 C 377.50 334.50 377.00 334.70 376.40 334.70 L 205.50 334.00 C 204.40 334.00 203.40 333.10 203.40 331.90 C 203.40 331.30 203.60 330.80 204.00 330.40 C 204.40 330.00 204.90 329.80 205.50 329.80 L 376.40 330.50 Z" fill="#ececec" fill-rule="nonzero" group-id="3" node-id="236" stroke="none" target-height="4.9000244" target-width="175.1" target-x="203.4" target-y="329.8"></path><path d="M 376.80 246.30 C 377.90 246.30 378.90 247.20 378.90 248.40 C 378.90 249.00 378.70 249.50 378.30 249.90 C 377.90 250.30 377.40 250.50 376.80 250.50 L 206.00 249.90 C 204.90 249.90 203.90 249.00 203.90 247.80 C 203.90 247.20 204.10 246.70 204.50 246.30 C 204.90 245.90 205.40 245.70 206.00 245.70 L 376.80 246.30 Z" fill="#ececec" fill-rule="nonzero" group-id="3" node-id="238" stroke="none" target-height="4.800003" target-width="175" target-x="203.9" target-y="245.7"></path><path d="M 318.60 436.30 C 319.70 436.30 320.70 437.20 320.70 438.40 C 320.70 439.00 320.50 439.50 320.10 439.90 C 319.70 440.30 319.20 440.50 318.60 440.50 L 205.60 440.10 C 204.50 440.10 203.50 439.20 203.50 438.00 C 203.50 437.40 203.70 436.90 204.10 436.50 C 204.50 436.10 205.00 435.90 205.60 435.90 L 318.60 436.30 Z" fill="#ececec" fill-rule="nonzero" group-id="3" node-id="240" stroke="none" target-height="4.600006" target-width="117.20001" target-x="203.5" target-y="435.9"></path><path d="M 376.60 267.70 C 377.70 267.70 378.70 268.60 378.70 269.80 C 378.70 270.40 378.50 270.90 378.10 271.30 C 377.70 271.70 377.20 271.90 376.60 271.90 L 205.80 271.30 C 204.70 271.30 203.70 270.40 203.70 269.20 C 203.70 268.60 203.90 268.10 204.30 267.70 C 204.70 267.30 205.20 267.10 205.80 267.10 L 376.60 267.70 Z" fill="#ececec" fill-rule="nonzero" group-id="3" node-id="242" stroke="none" target-height="4.799988" target-width="175.00002" target-x="203.7" target-y="267.1"></path><path d="M 376.20 310.70 C 377.30 310.70 378.30 311.60 378.30 312.80 C 378.30 313.40 378.10 313.90 377.70 314.30 C 377.30 314.70 376.80 314.90 376.20 314.90 L 205.40 314.30 C 204.30 314.30 203.30 313.40 203.30 312.20 C 203.30 311.60 203.50 311.10 203.90 310.70 C 204.30 310.30 204.80 310.10 205.40 310.10 L 376.20 310.70 Z" fill="#ececec" fill-rule="nonzero" group-id="3" node-id="244" stroke="none" target-height="4.799988" target-width="174.99998" target-x="203.3" target-y="310.1"></path><path d="M 330.30 414.90 C 331.40 414.90 332.40 415.80 332.40 417.00 C 332.40 417.60 332.20 418.10 331.80 418.50 C 331.40 418.90 330.90 419.10 330.30 419.10 L 205.60 418.60 C 204.50 418.60 203.50 417.70 203.50 416.50 C 203.50 415.90 203.70 415.40 204.10 415.00 C 204.50 414.60 205.00 414.40 205.60 414.40 L 330.30 414.90 Z" fill="#ececec" fill-rule="nonzero" group-id="3" node-id="246" stroke="none" target-height="4.700012" target-width="128.9" target-x="203.5" target-y="414.4"></path><path d="M 330.20 395.00 C 331.30 395.00 332.30 395.90 332.30 397.10 C 332.30 397.70 332.10 398.20 331.70 398.60 C 331.30 399.00 330.80 399.20 330.20 399.20 L 205.50 398.70 C 204.40 398.70 203.40 397.80 203.40 396.60 C 203.40 396.00 203.60 395.50 204.00 395.10 C 204.40 394.70 204.90 394.50 205.50 394.50 L 330.20 395.00 Z" fill="#ececec" fill-rule="nonzero" group-id="3" node-id="248" stroke="none" target-height="4.700012" target-width="128.9" target-x="203.4" target-y="394.5"></path><path d="M 318.30 351.70 C 319.40 351.70 320.40 352.60 320.40 353.80 C 320.40 354.40 320.20 354.90 319.80 355.30 C 319.40 355.70 318.90 355.90 318.30 355.90 L 205.30 355.50 C 204.20 355.50 203.20 354.60 203.20 353.40 C 203.20 352.80 203.40 352.30 203.80 351.90 C 204.20 351.50 204.70 351.30 205.30 351.30 L 318.30 351.70 Z" fill="#ececec" fill-rule="nonzero" group-id="3" node-id="250" stroke="none" target-height="4.600006" target-width="117.2" target-x="203.2" target-y="351.3"></path><path d="M 400.90 176.30 L 399.80 483.00 C 399.80 489.90 394.20 495.50 387.20 495.50 L 194.40 494.80 C 187.50 494.80 181.90 489.20 181.90 482.20 L 183.00 175.50 C 183.00 168.60 188.60 163.00 195.60 163.00 L 224.80 163.10 C 223.00 166.70 222.30 170.70 222.10 173.80 L 191.30 173.70 L 190.20 479.00 L 390.50 479.70 L 391.60 174.40 L 361.30 174.30 C 361.10 171.10 360.40 167.20 358.70 163.60 L 388.50 163.70 C 395.30 163.80 400.90 169.40 400.90 176.30 Z" fill="#d9d9d9" fill-rule="nonzero" group-id="3" node-id="252" stroke="none" target-height="332.5" target-width="219" target-x="181.9" target-y="163"></path><path d="M 213.20 163.70 L 372.70 163.70 L 372.70 174.40 L 213.20 174.40 Z" fill="#d9d9d9" fill-rule="nonzero" group-id="3" node-id="254" stroke="none" target-height="10.699997" target-width="159.50002" target-x="213.2" target-y="163.7"></path><path d="M 376.90 205.00 C 378.00 205.00 379.00 205.90 379.00 207.10 C 379.00 207.70 378.80 208.20 378.40 208.60 C 378.00 209.00 377.50 209.20 376.90 209.20 L 206.00 208.50 C 204.90 208.50 203.90 207.60 203.90 206.40 C 203.90 205.80 204.10 205.30 204.50 204.90 C 204.90 204.50 205.40 204.30 206.00 204.30 L 376.90 205.00 Z" fill="#ececec" fill-rule="nonzero" group-id="3" node-id="256" stroke="none" target-height="4.899994" target-width="175.1" target-x="203.9" target-y="204.3"></path><path d="M 376.40 289.20 C 377.50 289.20 378.50 290.10 378.50 291.30 C 378.50 291.90 378.30 292.40 377.90 292.80 C 377.50 293.20 377.00 293.40 376.40 293.40 L 205.60 292.80 C 204.50 292.80 203.50 291.90 203.50 290.70 C 203.50 290.10 203.70 289.60 204.10 289.20 C 204.50 288.80 205.00 288.60 205.60 288.60 L 376.40 289.20 Z" fill="#ececec" fill-rule="nonzero" group-id="3" node-id="258" stroke="none" target-height="4.799988" target-width="175" target-x="203.5" target-y="288.6"></path><path d="M 376.60 226.50 C 377.70 226.50 378.70 227.40 378.70 228.60 C 378.70 229.20 378.50 229.70 378.10 230.10 C 377.70 230.50 377.20 230.70 376.60 230.70 L 205.80 230.00 C 204.70 230.00 203.70 229.10 203.70 227.90 C 203.70 227.30 203.90 226.80 204.30 226.40 C 204.70 226.00 205.20 225.80 205.80 225.80 L 376.60 226.50 Z" fill="#ececec" fill-rule="nonzero" group-id="3" node-id="260" stroke="none" target-height="4.899994" target-width="175.00002" target-x="203.7" target-y="225.8"></path></g><g node-id="502"><path d="M 109.50 206.70 C 109.50 217.90 115.80 227.70 125.10 233.20 C 130.80 239.40 145.90 247.30 148.70 248.70 C 144.10 246.00 142.20 237.70 142.20 237.70 C 160.30 237.70 174.90 223.80 174.90 206.60 C 174.90 189.40 160.30 175.50 142.20 175.50 C 124.20 175.70 109.50 189.60 109.50 206.70 Z" fill="#f5f5f5" fill-rule="nonzero" group-id="4" node-id="265" stroke="none" target-height="73.2" target-width="65.399994" target-x="109.5" target-y="175.5"></path><path d="M 196.60 157.30 L 220.90 178.70 L 211.00 157.30 L 225.10 157.30 C 236.50 157.30 245.70 148.10 245.70 136.70 L 245.70 107.70 C 245.70 106.00 244.30 104.60 242.60 104.60 L 181.60 104.60 C 169.90 104.60 160.50 114.00 160.50 125.70 L 160.50 153.50 C 160.50 155.20 161.90 156.60 163.60 156.60 L 196.60 157.30 Z" fill="#fabb58" fill-rule="nonzero" group-id="4" node-id="267" stroke="none" target-height="74.1" target-width="85.2" target-x="160.5" target-y="104.6"></path></g><g node-id="503"><path d="M 429.30 129.60 C 429.90 137.80 426.60 145.20 420.90 150.50 C 416.40 154.70 410.30 157.60 403.70 158.30 L 403.70 158.30 L 382.30 166.40 C 382.20 166.40 382.20 166.40 382.20 166.30 L 390.00 158.50 C 390.00 158.50 390.00 158.40 390.00 158.40 L 372.70 158.40 C 357.50 158.40 344.40 147.60 343.30 133.40 C 342.70 125.20 346.00 117.80 351.70 112.50 C 356.90 107.60 364.10 104.60 372.00 104.60 L 400.00 104.60 C 415.10 104.60 428.20 115.40 429.30 129.60 Z" fill="#fabb58" fill-rule="nonzero" group-id="5" node-id="272" stroke="none" target-height="61.799995" target-width="87.19998" target-x="342.7" target-y="104.6"></path><path d="M 484.90 200.20 L 484.90 210.80 C 484.90 218.10 479.00 224.10 471.60 224.10 L 429.20 224.10 L 413.00 236.70 L 418.30 224.10 L 417.80 224.10 C 412.70 224.10 408.60 220.00 408.60 214.90 L 408.60 200.90 C 408.60 193.70 414.50 187.80 421.70 187.80 L 472.50 187.80 C 479.30 187.70 484.90 193.30 484.90 200.20 Z" fill="#f5f5f5" fill-rule="nonzero" group-id="5" node-id="274" stroke="none" target-height="49" target-width="76.29999" target-x="408.6" target-y="187.7"></path></g><g node-id="504"><g node-id="513"><g node-id="518"><g node-id="527"><g node-id="536"><path d="M 307.60 500.40 L 310.20 459.00 L 328.20 465.00 L 322.30 507.30 L 306.90 501.90 Z" fill="#f6b7a0" fill-rule="nonzero" group-id="6,15,20,29,38" node-id="287" stroke="none" target-height="48.299988" target-width="21.300018" target-x="306.9" target-y="459"></path><g node-id="546"><path d="M 325.80 499.50 C 325.80 499.50 311.80 503.00 306.90 493.20 L 272.40 505.10 L 327.80 513.50 L 325.80 499.50 Z" fill="#01384f" fill-rule="nonzero" group-id="6,15,20,29,38,48" node-id="291" stroke="none" target-height="20.299988" target-width="55.399994" target-x="272.4" target-y="493.2"></path><path d="M 271.80 510.00 L 327.20 518.40 L 327.90 513.60 L 272.50 505.20 Z" fill="#c6c6c5" fill-rule="nonzero" group-id="6,15,20,29,38,48" node-id="293" stroke="none" target-height="13.200012" target-width="56.100006" target-x="271.8" target-y="505.2"></path><path d="M 306.20 500.70 C 306.10 500.60 306.00 500.50 305.90 500.40 C 304.20 497.30 302.40 495.60 302.40 495.60 C 302.00 495.30 302.00 494.70 302.30 494.30 C 302.60 493.90 303.20 493.90 303.60 494.30 C 303.70 494.40 305.70 496.20 307.50 499.60 C 307.70 500.00 307.60 500.60 307.10 500.80 C 306.80 500.90 306.50 500.90 306.20 500.70 Z" fill="#ffffff" fill-rule="nonzero" group-id="6,15,20,29,38,48" node-id="295" stroke="none" target-height="7" target-width="5.700012" target-x="302" target-y="493.9"></path><path d="M 301.50 502.30 C 301.40 502.20 301.30 502.10 301.20 502.00 C 299.50 498.90 297.70 497.20 297.70 497.20 C 297.30 496.90 297.30 496.30 297.60 495.90 C 297.90 495.50 298.50 495.50 298.90 495.90 C 299.00 496.00 301.00 497.80 302.80 501.20 C 303.00 501.60 302.90 502.20 302.40 502.40 C 302.10 502.50 301.80 502.40 301.50 502.30 Z" fill="#ffffff" fill-rule="nonzero" group-id="6,15,20,29,38,48" node-id="297" stroke="none" target-height="7" target-width="5.700012" target-x="297.3" target-y="495.5"></path><path d="M 296.80 503.80 C 296.70 503.70 296.60 503.60 296.50 503.50 C 294.80 500.40 293.00 498.70 293.00 498.70 C 292.60 498.40 292.60 497.80 292.90 497.40 C 293.20 497.00 293.80 497.00 294.20 497.40 C 294.30 497.50 296.30 499.30 298.10 502.70 C 298.30 503.10 298.20 503.70 297.70 503.90 C 297.40 504.00 297.10 504.00 296.80 503.80 Z" fill="#ffffff" fill-rule="nonzero" group-id="6,15,20,29,38,48" node-id="299" stroke="none" target-height="7" target-width="5.6999817" target-x="292.6" target-y="497"></path></g></g><path d="M 349.10 306.10 L 348.20 308.80 C 339.00 323.90 330.50 342.80 324.70 359.60 L 309.20 404.00 C 307.60 408.60 306.60 413.40 306.10 418.20 L 300.40 483.60 L 331.10 485.80 L 338.90 419.80 L 375.10 349.50 L 373.20 308.40 L 349.10 306.10 Z" fill="#fabb58" fill-rule="nonzero" group-id="6,15,20,29" node-id="303" stroke="none" target-height="179.69998" target-width="74.70001" target-x="300.4" target-y="306.1"></path></g><g node-id="528"><g node-id="537"><path d="M 411.90 489.10 L 389.70 454.40 L 407.50 448.00 L 427.60 485.40 L 412.20 490.70 Z" fill="#f6b7a0" fill-rule="nonzero" group-id="6,15,20,30,39" node-id="310" stroke="none" target-height="42.700012" target-width="37.899994" target-x="389.7" target-y="448"></path><g node-id="547"><path d="M 425.80 477.00 C 425.80 477.00 416.70 488.50 407.10 483.80 L 386.60 514.80 L 435.70 487.00 L 425.80 477.00 Z" fill="#01384f" fill-rule="nonzero" group-id="6,15,20,30,39,49" node-id="314" stroke="none" target-height="37.799988" target-width="49.100006" target-x="386.6" target-y="477"></path><path d="M 389.00 519.00 L 438.00 491.10 L 435.70 486.90 L 386.70 514.70 Z" fill="#c6c6c5" fill-rule="nonzero" group-id="6,15,20,30,39,49" node-id="316" stroke="none" target-height="32.100006" target-width="51.299988" target-x="386.7" target-y="486.9"></path><path d="M 410.90 490.20 C 410.70 490.20 410.60 490.20 410.40 490.10 C 407.30 488.60 404.80 488.50 404.70 488.50 C 404.20 488.50 403.90 488.00 403.90 487.50 C 404.00 487.00 404.40 486.60 404.90 486.70 C 405.00 486.70 407.70 486.90 411.20 488.50 C 411.60 488.70 411.80 489.20 411.60 489.70 C 411.50 490.00 411.20 490.20 410.90 490.20 Z" fill="#ffffff" fill-rule="nonzero" group-id="6,15,20,30,39,49" node-id="318" stroke="none" target-height="3.600006" target-width="7.899994" target-x="403.9" target-y="486.6"></path><path d="M 408.10 494.30 C 407.90 494.30 407.80 494.30 407.60 494.20 C 404.50 492.70 402.00 492.60 401.90 492.60 C 401.40 492.60 401.10 492.10 401.10 491.60 C 401.20 491.10 401.60 490.70 402.10 490.80 C 402.20 490.80 404.90 491.00 408.40 492.60 C 408.80 492.80 409.00 493.30 408.80 493.80 C 408.70 494.10 408.40 494.30 408.10 494.30 Z" fill="#ffffff" fill-rule="nonzero" group-id="6,15,20,30,39,49" node-id="320" stroke="none" target-height="3.5999756" target-width="7.899994" target-x="401.1" target-y="490.7"></path><path d="M 405.30 498.50 C 405.10 498.50 405.00 498.50 404.80 498.40 C 401.70 496.90 399.20 496.80 399.10 496.80 C 398.60 496.80 398.30 496.30 398.30 495.80 C 398.40 495.30 398.80 494.90 399.30 495.00 C 399.40 495.00 402.10 495.20 405.60 496.80 C 406.00 497.00 406.20 497.50 406.00 498.00 C 405.90 498.30 405.60 498.50 405.30 498.50 Z" fill="#ffffff" fill-rule="nonzero" group-id="6,15,20,30,39,49" node-id="322" stroke="none" target-height="3.600006" target-width="7.9000244" target-x="398.3" target-y="494.9"></path></g></g><path d="M 358.20 345.10 L 365.00 411.30 C 365.30 414.40 366.20 417.50 367.50 420.30 L 395.00 481.50 L 422.50 465.90 L 398.80 410.60 L 399.90 362.80 C 399.90 362.80 402.60 319.10 388.60 302.50 L 362.10 306.80 L 358.20 345.10 Z" fill="#fabb58" fill-rule="nonzero" group-id="6,15,20,30,40" node-id="328" stroke="none" target-height="179" target-width="64.29999" target-x="358.2" target-y="302.5"></path></g></g><g node-id="519"><g node-id="529"><g node-id="539"><g node-id="548"><path d="M 296.30 266.10 L 309.30 278.60 L 304.10 287.20 L 290.30 272.30 Z" fill="#f6b7a0" fill-rule="nonzero" group-id="6,15,21,31,41,50" node-id="341" stroke="none" target-height="21.100006" target-width="19" target-x="290.3" target-y="266.1"></path><path d="M 296.30 266.10 L 296.20 250.20 C 296.20 249.40 295.60 248.70 294.80 248.50 L 294.80 248.50 C 293.90 248.30 293.00 248.80 292.80 249.70 L 291.60 254.00 L 281.40 243.00 C 280.50 242.10 279.00 242.30 278.40 243.40 L 275.00 249.70 C 274.70 250.20 274.70 250.80 275.00 251.40 C 276.80 255.10 284.10 269.60 290.30 272.30 L 296.30 266.10 Z" fill="#f6b7a0" fill-rule="nonzero" group-id="6,15,21,31,41,50" node-id="343" stroke="none" target-height="30.199982" target-width="21.599976" target-x="274.7" target-y="242.1"></path></g></g><path d="M 354.90 239.90 C 354.90 239.90 358.30 247.70 341.80 287.30 C 341.80 287.30 332.80 303.80 328.80 304.30 C 322.40 305.10 304.40 295.50 290.70 275.80 L 301.00 268.10 L 321.20 279.80 L 333.10 249.20 C 333.20 249.10 340.20 228.70 354.90 239.90 Z" fill="#cdeafb" fill-rule="nonzero" group-id="6,15,21,31,42" node-id="349" stroke="none" target-height="76.40001" target-width="67.599976" target-x="290.7" target-y="228.7"></path></g><g node-id="530"><path d="M 371.70 226.60 L 398.70 238.60 C 400.60 239.50 401.80 241.50 401.50 243.50 L 394.70 314.00 C 394.70 314.00 367.50 322.10 343.10 317.10 L 338.10 244.60 C 337.90 242.50 338.60 240.40 340.10 238.90 L 357.40 226.80 L 371.70 226.60 Z" fill="#cdeafb" fill-rule="nonzero" group-id="6,15,21,32" node-id="355" stroke="none" target-height="95.5" target-width="63.899994" target-x="337.9" target-y="226.6"></path></g><g node-id="531"><g node-id="541"><path d="M 370.50 295.50 L 388.50 295.10 L 390.90 304.90 L 370.60 304.00 Z" fill="#f6b7a0" fill-rule="nonzero" group-id="6,15,21,33,43" node-id="362" stroke="none" target-height="9.799988" target-width="20.399994" target-x="370.5" target-y="295.1"></path><path d="M 370.50 295.50 L 359.20 284.30 C 358.60 283.70 357.70 283.60 357.10 284.10 L 357.10 284.10 C 356.30 284.60 356.10 285.60 356.50 286.40 L 358.70 290.30 L 348.90 291.50 C 347.60 291.50 346.70 292.70 347.10 293.90 L 349.20 300.80 C 349.40 301.40 349.80 301.80 350.40 302.00 C 354.30 303.30 364.40 306.60 370.80 304.10 L 370.50 295.50 Z" fill="#f6b7a0" fill-rule="nonzero" group-id="6,15,21,33,43" node-id="364" stroke="none" target-height="23" target-width="24.099976" target-x="346.7" target-y="283.6"></path></g><path d="M 399.80 239.20 C 399.80 239.20 407.60 242.60 421.60 281.50 C 421.60 281.50 426.90 296.50 424.30 299.30 C 420.10 304.00 399.10 311.20 375.80 305.80 L 375.50 293.10 L 401.30 289.20 L 389.80 259.70 C 389.70 259.60 381.30 240.50 399.80 239.20 Z" fill="#cdeafb" fill-rule="nonzero" group-id="6,15,21,33,44" node-id="369" stroke="none" target-height="72.000015" target-width="51.399994" target-x="375.5" target-y="239.2"></path></g></g><g node-id="520"><path d="M 354.30 200.30 C 354.40 203.70 351.90 206.60 348.60 206.70 C 345.30 206.80 342.50 204.20 342.40 200.80 C 342.30 197.40 344.80 194.50 348.10 194.40 C 351.40 194.20 354.20 196.90 354.30 200.30 Z" fill="#f6b7a0" fill-rule="nonzero" group-id="6,15,22" node-id="376" stroke="none" target-height="12.600006" target-width="12.100006" target-x="342.3" target-y="194.2"></path><path d="M 357.10 214.90 L 356.70 226.10 C 356.50 231.30 359.60 234.10 364.50 234.20 L 364.50 234.20 C 368.70 234.30 374.80 231.40 374.70 226.80 L 374.70 208.10 L 357.10 214.90 Z" fill="#f6b7a0" fill-rule="nonzero" group-id="6,15,22" node-id="378" stroke="none" target-height="26.199997" target-width="18.299988" target-x="356.5" target-y="208.1"></path><path d="M 356.80 224.70 C 356.80 224.70 371.40 224.30 375.50 210.90 C 376.80 206.70 357.10 213.40 357.10 213.40 L 356.80 224.70 Z" fill="#eaaf9c" fill-rule="nonzero" group-id="6,15,22" node-id="380" stroke="none" target-height="18" target-width="20" target-x="356.8" target-y="206.7"></path><path d="M 361.40 219.30 L 361.40 219.30 C 353.00 219.10 346.20 212.00 346.20 204.90 L 346.20 190.00 C 346.10 181.10 352.90 173.70 361.60 173.30 L 361.60 173.30 C 370.40 172.90 379.40 179.90 379.80 189.10 L 379.70 200.70 C 379.50 211.20 371.50 218.90 361.40 219.30 Z" fill="#f6b7a0" fill-rule="nonzero" group-id="6,15,22" node-id="382" stroke="none" target-height="46.40001" target-width="33.69998" target-x="346.1" target-y="172.9"></path><path d="M 350.80 165.70 C 354.10 164.50 362.40 163.30 363.90 170.70 C 372.10 170.50 385.20 171.20 386.10 178.40 C 387.50 188.90 379.60 198.90 379.60 198.90 L 377.50 199.90 C 377.50 199.90 372.30 196.90 374.30 184.50 C 374.30 184.50 355.20 188.20 346.50 183.00 C 337.80 177.70 340.90 169.40 350.80 165.70 Z" fill="#01384f" fill-rule="nonzero" group-id="6,15,22" node-id="384" stroke="none" target-height="36.59999" target-width="49.700012" target-x="337.8" target-y="163.3"></path><g node-id="532"><path d="M 387.30 200.70 C 387.40 204.10 384.90 206.90 381.60 207.10 C 378.30 207.20 375.60 204.60 375.40 201.20 C 375.30 197.80 377.80 195.00 381.10 194.80 C 384.50 194.70 387.20 197.30 387.30 200.70 Z" fill="#f6b7a0" fill-rule="nonzero" group-id="6,15,22,34" node-id="388" stroke="none" target-height="12.5" target-width="12.100006" target-x="375.3" target-y="194.7"></path></g><path d="M 357.40 226.70 L 353.00 229.80 C 353.00 229.80 350.30 237.30 362.90 238.20 C 375.50 239.10 379.30 230.00 379.30 230.00 L 370.30 225.40 L 357.40 226.70 Z" fill="#f6b7a0" fill-rule="nonzero" group-id="6,15,22" node-id="391" stroke="none" target-height="13.700012" target-width="29" target-x="350.3" target-y="225.4"></path></g></g></g><g node-id="505"><path d="M 237.20 242.30 L 249.30 284.50 C 250.40 287.80 248.00 291.20 244.40 291.70 L 244.40 291.70 C 241.60 292.10 238.10 290.50 237.00 288.00 L 221.40 247.30 C 219.70 243.30 221.90 238.70 226.30 237.20 L 226.30 237.20 C 230.80 235.70 235.80 238.10 237.20 242.30 Z" fill="#facbb6" fill-rule="nonzero" group-id="7" node-id="398" stroke="none" target-height="56.40001" target-width="30.699997" target-x="219.7" target-y="235.7"></path><g node-id="514"><path d="M 249.70 286.20 L 254.90 329.50 L 245.70 329.10 L 236.90 287.70 C 236.30 284.40 238.70 280.40 242.30 279.90 L 242.30 279.90 C 246.00 279.40 249.40 282.80 249.70 286.20 Z" fill="#facbb6" fill-rule="nonzero" group-id="7,16" node-id="402" stroke="none" target-height="50.100006" target-width="18.59999" target-x="236.3" target-y="279.4"></path><path d="M 253.60 326.50 C 253.60 326.50 266.40 341.40 253.40 349.30 C 252.50 349.80 251.40 349.70 250.70 349.00 L 250.60 348.90 C 249.80 348.10 249.80 347.00 250.50 346.20 C 252.30 344.20 254.50 340.30 249.90 335.60 C 249.90 335.60 247.80 336.30 248.50 340.30 C 248.70 341.30 247.80 342.30 246.70 342.20 L 246.70 342.20 C 245.90 342.20 245.30 341.70 245.00 341.00 C 244.00 338.40 242.20 331.90 246.50 328.00 L 253.60 326.50 Z" fill="#facbb6" fill-rule="nonzero" group-id="7,16" node-id="404" stroke="none" target-height="23.299988" target-width="24.199997" target-x="242.2" target-y="326.5"></path></g></g><g node-id="506"><g node-id="515"><g node-id="521"><g node-id="533"><g node-id="543"><path d="M 153.30 503.60 L 143.60 508.40 C 142.60 508.90 142.00 510.10 142.30 511.20 C 142.60 512.10 143.40 512.90 145.50 512.90 C 150.30 513.00 171.40 509.70 171.40 509.70 L 171.40 511.90 L 181.20 510.80 C 181.20 510.80 181.90 499.60 178.90 497.90 L 153.30 503.60 Z" fill="#01384f" fill-rule="nonzero" group-id="8,17,23,35,45" node-id="418" stroke="none" target-height="15.100006" target-width="39.899994" target-x="142" target-y="497.9"></path><path d="M 168.90 492.30 L 153.30 503.50 C 153.30 503.50 155.00 507.80 162.30 504.90 C 169.70 502.00 178.90 497.70 178.90 497.70 L 177.60 491.00 L 168.90 492.30 Z" fill="#01384f" fill-rule="nonzero" group-id="8,17,23,35,45" node-id="420" stroke="none" target-height="16.799988" target-width="25.59999" target-x="153.3" target-y="491"></path></g><path d="M 179.00 497.80 L 185.40 456.20 L 169.90 457.70 L 167.20 496.40 Z" fill="#facbb6" fill-rule="nonzero" group-id="8,17,23,35" node-id="423" stroke="none" target-height="41.599976" target-width="18.199997" target-x="167.2" target-y="456.2"></path></g></g><g node-id="522"><g node-id="534"><g node-id="544"><path d="M 264.00 503.60 L 273.70 508.40 C 274.70 508.90 275.30 510.10 275.00 511.20 C 274.70 512.10 273.90 512.70 271.80 512.80 C 267.00 512.90 245.90 509.70 245.90 509.70 L 245.90 511.90 L 236.10 510.80 C 236.10 510.80 235.40 499.60 238.40 497.90 L 264.00 503.60 Z" fill="#01384f" fill-rule="nonzero" group-id="8,17,24,36,46" node-id="433" stroke="none" target-height="15.0000305" target-width="39.899994" target-x="235.4" target-y="497.9"></path><path d="M 248.50 492.30 L 264.10 503.50 C 264.10 503.50 262.40 507.80 255.10 504.90 C 247.70 502.00 238.50 497.70 238.50 497.70 L 239.80 491.00 L 248.50 492.30 Z" fill="#01384f" fill-rule="nonzero" group-id="8,17,24,36,46" node-id="435" stroke="none" target-height="16.799988" target-width="25.600006" target-x="238.5" target-y="491"></path></g><path d="M 238.40 497.80 L 231.90 456.20 L 247.50 457.70 L 250.20 496.40 Z" fill="#facbb6" fill-rule="nonzero" group-id="8,17,24,36" node-id="438" stroke="none" target-height="41.599976" target-width="18.300003" target-x="231.9" target-y="456.2"></path></g></g><path d="M 195.00 290.90 C 195.00 290.90 181.60 295.20 171.80 340.50 C 161.90 385.80 158.50 449.10 156.70 482.70 L 192.40 482.70 L 211.10 342.70 L 219.90 481.80 L 255.80 482.00 C 255.80 482.00 253.70 306.10 225.80 290.90 L 195.00 290.90 Z" fill="#01384f" fill-rule="nonzero" group-id="8,17,25" node-id="444" stroke="none" target-height="191.80002" target-width="99.100006" target-x="156.7" target-y="290.9"></path></g><g node-id="516"><g node-id="524"><path d="M 181.40 241.40 C 181.40 241.40 176.60 252.80 186.80 269.20 L 195.60 260.10 L 192.00 243.20 L 181.40 241.40 Z" fill="#facbb6" fill-rule="nonzero" group-id="8,18,26" node-id="452" stroke="none" target-height="27.800018" target-width="19" target-x="176.6" target-y="241.4"></path><path d="M 192.30 238.50 L 181.40 241.40 C 181.40 241.40 190.60 251.90 186.80 269.20 L 195.00 286.40 L 226.00 286.50 L 232.60 266.00 C 234.40 260.40 235.80 254.40 233.00 249.20 L 225.90 236.20 L 219.10 235.90 L 192.30 238.50 Z" fill="#fabb58" fill-rule="nonzero" group-id="8,18,26" node-id="454" stroke="none" target-height="50.600006" target-width="54.40001" target-x="181.4" target-y="235.9"></path><path d="M 195.00 286.30 L 195.00 290.90 C 195.00 290.90 226.30 291.60 225.80 290.90 C 225.30 290.20 226.00 286.40 226.00 286.40 L 195.00 286.30 Z" fill="#facbb6" fill-rule="nonzero" group-id="8,18,26" node-id="456" stroke="none" target-height="5.3000183" target-width="31.300003" target-x="195" target-y="286.3"></path></g><g node-id="525"><g node-id="535"><path d="M 181.40 241.40 C 181.40 241.40 169.20 241.30 161.30 256.30 L 138.70 284.20 C 135.10 290.10 138.60 297.70 145.40 298.80 L 145.40 298.80 C 149.00 299.40 151.60 297.90 152.80 295.00 L 184.50 262.60 L 181.40 241.40 Z" fill="#facbb6" fill-rule="nonzero" group-id="8,18,27,37" node-id="463" stroke="none" target-height="58.09999" target-width="49.399994" target-x="135.1" target-y="241.3"></path><g node-id="545"><path d="M 184.50 319.00 L 143.70 298.40 C 139.20 296.90 136.50 292.20 137.50 287.50 L 137.50 287.50 C 138.90 281.30 144.90 278.20 150.40 281.40 L 189.30 308.90 L 184.50 319.00 Z" fill="#facbb6" fill-rule="nonzero" group-id="8,18,27,37,47" node-id="467" stroke="none" target-height="40.799988" target-width="52.800003" target-x="136.5" target-y="278.2"></path><path d="M 186.40 308.20 L 194.20 306.10 L 186.50 321.20 L 179.00 316.50 Z" fill="#facbb6" fill-rule="nonzero" group-id="8,18,27,37,47" node-id="469" stroke="none" target-height="15.100006" target-width="15.199997" target-x="179" target-y="306.1"></path></g></g></g></g><g node-id="517"><path d="M 213.70 184.20 C 213.70 184.20 226.30 184.80 227.50 198.70 C 228.40 209.10 226.40 213.70 234.30 222.00 C 234.30 222.00 211.30 235.60 178.20 225.60 C 178.20 225.60 184.40 214.90 184.20 204.70 C 184.00 194.50 186.90 190.00 192.20 186.20 C 197.60 182.30 208.40 180.00 213.70 184.20 Z" fill="#01384f" fill-rule="nonzero" group-id="8,19" node-id="477" stroke="none" target-height="55.600006" target-width="56.100006" target-x="178.2" target-y="180"></path><path d="M 217.90 209.20 C 217.90 212.40 220.40 215.10 223.70 215.20 C 226.90 215.20 229.60 212.70 229.70 209.40 C 229.70 206.20 227.20 203.50 223.90 203.40 C 220.70 203.40 218.00 206.00 217.90 209.20 Z" fill="#eec2b0" fill-rule="nonzero" group-id="8,19" node-id="479" stroke="none" target-height="11.800003" target-width="11.800003" target-x="217.9" target-y="203.4"></path><path d="M 212.90 224.10 L 212.80 236.80 C 212.80 240.80 210.30 240.20 206.40 240.20 L 206.40 240.20 C 203.10 240.10 199.00 241.10 198.60 237.80 L 199.60 218.60 L 212.90 224.10 Z" fill="#facbb6" fill-rule="nonzero" group-id="8,19" node-id="481" stroke="none" target-height="22.5" target-width="14.299988" target-x="198.6" target-y="218.6"></path><path d="M 212.80 231.50 L 200.40 221.00 L 212.90 222.90 Z" fill="#eec0ae" fill-rule="nonzero" group-id="8,19" node-id="483" stroke="none" target-height="10.5" target-width="12.5" target-x="200.4" target-y="221"></path><path d="M 212.50 226.30 L 212.50 226.30 C 220.00 225.90 225.90 219.10 225.80 213.00 L 225.50 199.70 C 225.40 192.00 219.20 185.80 211.50 185.70 L 211.50 185.70 C 203.60 185.60 195.80 191.80 195.70 199.70 L 196.10 211.30 C 196.40 220.30 203.50 226.20 212.50 226.30 Z" fill="#facbb6" fill-rule="nonzero" group-id="8,19" node-id="485" stroke="none" target-height="40.699997" target-width="30.199997" target-x="195.7" target-y="185.6"></path><path d="M 211.20 234.70 L 220.40 235.90 C 220.40 235.90 216.40 248.90 190.60 239.00 L 199.70 236.20 L 211.20 234.70 Z" fill="#facbb6" fill-rule="nonzero" group-id="8,19" node-id="487" stroke="none" target-height="14.199997" target-width="29.799988" target-x="190.6" target-y="234.7"></path><path d="M 215.20 184.40 C 215.20 184.40 221.80 187.20 220.10 191.70 C 217.90 197.20 206.40 204.90 194.90 207.00 C 194.90 207.00 188.60 197.10 194.90 191.00 C 201.20 184.90 206.10 184.20 206.10 184.20 L 215.20 184.40 Z" fill="#01384f" fill-rule="nonzero" group-id="8,19" node-id="489" stroke="none" target-height="22.800003" target-width="33.199997" target-x="188.6" target-y="184.2"></path><path d="M 225.50 199.70 C 225.50 199.70 215.70 192.90 216.00 186.90 C 216.00 186.90 213.60 184.60 219.20 186.60 C 224.90 188.60 227.10 195.90 225.50 199.70 Z" fill="#01384f" fill-rule="nonzero" group-id="8,19" node-id="491" stroke="none" target-height="15.099991" target-width="13.5" target-x="213.6" target-y="184.6"></path><path d="M 203.10 201.20 C 203.10 201.50 199.60 211.80 199.60 211.80 L 197.00 202.30 L 203.10 201.20 Z" fill="#01384f" fill-rule="nonzero" group-id="8,19" node-id="493" stroke="none" target-height="10.600006" target-width="6.100006" target-x="197" target-y="201.2"></path><g node-id="526"><path d="M 189.10 210.30 C 189.10 213.60 191.70 216.20 194.90 216.30 C 198.20 216.30 200.80 213.70 200.90 210.50 C 200.90 207.20 198.30 204.60 195.10 204.50 C 191.80 204.50 189.20 207.10 189.10 210.30 Z" fill="#facbb6" fill-rule="nonzero" group-id="8,19,28" node-id="497" stroke="none" target-height="11.800003" target-width="11.799988" target-x="189.1" target-y="204.5"></path></g></g></g></svg>