<svg t="1709974098040" class="icon" viewBox="0 0 1024 1024" version="1.1" xmlns="http://www.w3.org/2000/svg" p-id="3153" width="200" height="200"><path d="M640 256a42.666667 42.666667 0 0 1 42.368 37.674667L682.666667 298.666667v85.333333a170.666667 170.666667 0 0 1-341.12 8.533333L341.333333 384V298.666667a42.666667 42.666667 0 0 1 85.034667-4.992L426.666667 298.666667v85.333333a85.333333 85.333333 0 0 0 170.453333 6.4L597.333333 384V298.666667a42.666667 42.666667 0 0 1 42.666667-42.666667z" fill="#03CD8E" p-id="3154"></path><path d="M772.010667 85.333333H251.733333a85.290667 85.290667 0 0 0-85.077333 75.946667l-75.946667 682.666667a85.333333 85.333333 0 0 0 85.333334 94.72H848.213333a85.205333 85.205333 0 0 0 85.077334-94.72l-75.946667-682.666667a85.333333 85.333333 0 0 0-85.333333-75.946667z m0.512 85.333334l75.946666 682.666666H175.530667l75.946666-682.666666h521.045334z" fill="#049DEE" p-id="3155"></path></svg>