<svg viewBox="0 0 1080 1080" xmlns="http://www.w3.org/2000/svg" id="Happy_Success_Process"><defs><style>.cls-1{fill:#aac3da;}.cls-2{fill:#9a702d;}.cls-3{fill:#c2dc82;}.cls-4{fill:#fed251;}.cls-5{fill:#f37a81;}.cls-6{fill:#f9f1cb;}.cls-7{fill:#efca87;}.cls-8{fill:#e8a1a4;}.cls-9{fill:#f2d0b9;}.cls-10{fill:#483613;}</style></defs><title>Happy Success Process</title><path d="M309.87,375.74c-14.33-.27-32.68,12.32-33.08,13.12s-15.67,18.62-15.67,18.62a43.77,43.77,0,0,1,8,13.39c2.81,7.77,3.08,14.73,2.14,27.19S277.46,466,277.46,466l16.34,18.08v-2.55s-.67-31.47,2.41-42.05,4.29,1.87,6.7,14.86-1.61,37.1-1.61,37.1l4.29,5,5.89,11s-3.08,2.27-8.57-.67-17.81-19-17.81-19a78.46,78.46,0,0,1-13.53,5.76C263.67,496,254,500,254,500s3.88,8.57,4.41,9.51,13.85,30.78,32.07,41.82a45.85,45.85,0,0,1-8.23-5.12c-10.71-8.57-30.13-42.72-34-53.71S245.59,474,245.59,474s-12.73-11.52-15.41-20,3.89-17.82,8.57-21.57a5.12,5.12,0,0,0,1.76-2.4,24.92,24.92,0,0,1-1.89-6.65l-.27-.32.14-.62a26.53,26.53,0,0,1,.67-9.69c2.54-9.78,4.55-13.53,4.55-13.53s-12.32,2.81-24.37-8.44c0,0-18.48,2.95-24.24,13.8s-9.51,51.83-9.51,51.83l-2.15,35.76-12.25-22c.83,1.61,3.52,8.34-4.89,15.58-9.64,8.3-26.11,7.63-25.31,9.51s17.28,38.7,31.07,45.8,26.92,5.49,33.21-1.34,14.07-37,14.07-37-9.91-28.13-10.18-28.93-4.56-20.49-4.56-20.49a27.27,27.27,0,0,1,12.19,15.93c3.08,11.12,18.08,43,26.92,56s25.72,35.08,25.72,35.08l-11-4.95s-3.88,11-7.23,15.67S258,592,275.05,591.9s23.57,2.81,42.46-5,36.43-22,40.71-25,12.59-18.48,12.59-18.48L356,487.57,348.58,454l-1.69,10.82c0-12,.08-22.74.08-22.74s-7.63-42.72-12.45-54.24S324.2,376,309.87,375.74Zm13.61,176.45a22,22,0,0,1-13.37,4.08A32.34,32.34,0,0,0,323.48,552.19Z" class="cls-1" id="path1560"></path><path d="M228.53,263.9c-1.65-.1-2.33,3.28-4.91,11.66-3.75,12.19,6.16,30.67,6.16,30.67l8-11.32-8.71-13.32s10.25,8.57,15.94,10.51,6.16-7.57,6.16-7.57,6.23,16,9.84,20.69,17.59,13.65,19.17,18.24c2-.34,5.56-.5,6.41,2.66,1.21,4.42-6.42,18.48-7.36,24.77a140.55,140.55,0,0,0-.87,14.95l6.43-.68-3.22,19,31.74-9.91a16.19,16.19,0,0,0-14.46-8.17c-10.45,0-13.53-5.09-13.53-5.09s4.29-6.56,9.91-9S308,351,308,351s1.6-6.29.94-9.37,6.83-9.65,9.24-17-.14-14.6-4.56-21.84-8.44-10.58-32.27-19.55-45.14-12.86-49.69-17.14C230.24,264.71,229.28,264,228.53,263.9Z" class="cls-2" id="path1555"></path><path d="M369.56,550.47s-3.78,23.3-30.87,37.12S293,604.45,277.13,602.94s-21.21-5.31-21.21-5.31L243,611.08l-17,49.24s-15.15,43.57-19.88,57.2-7.39,35.23-3.79,57.39,13.26,76.71,15.72,77.47,23.86,5.87,26.14-4.36,1.32-91.48,4.54-100.76,13.83-35.8,31.07-51.71,30.87-30.87,30.87-30.87L300.05,648.2s7.77,3,21.78,20.65,48.3,78.79,53.79,86.56,34.48,33,46.79,49.24,21.4,28.22,26.13,29.55,18.95-3.6,11.18-19.32S410.66,724,410.66,724s-23.1-47.91-25.57-74.62S379,585.7,379,585.7s1.33-10.8,2.84-16.1,1.52-23.11-12.31-19.13Z" class="cls-3" id="path1570"></path><path d="M811.57,229.08s-21.7-11.25-33.22-.4-25.84,35.49-28,39.11-4.42,24.91-2.81,38.3,4,35.76-3.08,51.16-20.89,38.58-24,46.61S711.39,424,711.39,424L706.7,449l2.41,5.76s5.1-5,9.51,4.95,35.76,31.34,35.76,31.34.27-4.42-2.81-16.07-4.29-34.82.13-50,14.06-29.86,26.52-39.37,21.83-23.44,20.89-28.53-12.18-31.61-12.18-31.61l-2.68-3.08s-7,7.5-10.85,6.57-10.18-6.57-11.39-9.38-1.07-13.52-1.07-13.52,15-1.07,23.57-6.43,10.72-26,12.59-39.24,9.65-19.82,9.65-19.82,8.3,10.85,15.4,13.12S832.73,249,836.48,264s12.72,49.42,9.78,59.87-7.1,16.34-12.86,19.95-14.33,3.76-14.33,3.76,3.35,11,17.54,14.73,28.26,6.29,28.26,6.29,4.82-14.46,3.22-26.92-17.82-52.1-18.22-61.2.27-42.19-2-49.82-11-7.77-18.88-5.23a103.93,103.93,0,0,1-17.41,3.61Z" class="cls-2" id="path1572"></path><path d="M798.84,534.58a96.15,96.15,0,0,1-8.83,24.1c-6.57,12.32-37.37,30.67-64,25.58s-35.76-26.92-36.57-48.88,6.16-41.79,6.16-41.79S735,534.17,752.24,541s26.25,5.9,35.35-1.74S798.84,534.58,798.84,534.58Z" class="cls-2" id="path1574"></path><path d="M782.24,393.55S766,408.7,760.3,425.18s-3.41,32.77-3,38.17,2.09,17.33,2.09,17.33a27,27,0,0,1,10.13.85c4.54,1.51,4,3.31,4,3.31s-10.42.48-15.35,2.18-18.37-3.41-22.16-7.39a38.93,38.93,0,0,0-8-6.34s-2.84,8-13.64,13.45-11.74,3.69-11.74,3.69S720.24,508,733,517.61s28.6,19.32,39.3,20.64,18.47-1.6,19.32-2.36,5.11-6.54,5.11-6.54-1.13-24.05-1.13-24.43-7.67-36-7.77-36.94-3.31-17-3.31-17,11.08,7.74,15.77,33.46,7.76,48.88,5.49,59.46-14.87,16.34-8.84,22.9,21.29,13.13,46.47,14.06,38.31-2.68,38.31-2.68,12.85-9,5.62-20.62,2.28-41,2-41.92,7.5-40.18,7.5-40.18S874,471,861.79,460.38s-16.07-20.23-16.07-20.23L841,435.2s-9.11-.8-6.56-13.39,10.31-17.28,17.54-15.94,13.66,9.1,13.66,9.1l7.24,4.15,17.81.81-3.08-7.5s14.86-.13,20.89,1.47a73.45,73.45,0,0,1,12.32,4.82l-24.91.81-10.18,1.2s9.51,8.17,6.7,17.15-13.26,23.83-13.26,23.83,22.63,12.6,49.82,7,43.26-15,27.59-43.12-30.13-38.17-45.13-46.21-22.77-9.64-34.69-10.18a122.46,122.46,0,0,1-23.3-3.61s16.33,14.59,8.84,19.82-21,.66-21,.66-.94,13.13-8.84,14.6-27.32-8.83-27.32-8.83-7.1,12.58-11.79,14.73-9.51,2-9.37-4-1.74-9-1.74-9Z" class="cls-4" id="path1576"></path><path d="M887,576.81S879.87,592,846.66,593.1s-56-7.1-57.86-8-5.22-2.55-10.31,7.77-3.89,27.72-2.15,37.76,8.58,27.46,16.08,32.95-12.46.27-15.4-2.68-18.75,37.77-28.8,53.57-35,43-42.05,50.09-32,36.56-37.24,45.14-7.76,19.42,3.89,29.06,54.24,34.15,54.24,34.15l28.26,3s13.53-22.1,16.74-38.57,10.58-37.77,10.58-37.77,3.48,14.06.4,24.51-13,51.56-13,51.56,11.52-.54,21,2.68,30.67,6.56,38.44.67,14.19-23.71,16.6-39.38,5.76-85.44,5.76-85.44l5.09-47,1.74-12.86s2.68,31.34,2.28,42.19-2.82,53.3-2.82,63.48-1.2,36.7-2.41,44.2a120.4,120.4,0,0,1-3.08,13.79s33.48-8.57,40.58-17.81,9.78-20.23,10.45-30.67,1.61-54.24-3.62-69.11-13.26-70.44-13.79-78.48,3.35-65.76,3.35-65.76l4.15-14.86Z" class="cls-5" id="path1578"></path><path d="M692.64,299s-13-1-29.31,13.58S585.1,391.18,580.18,394s-25.95-12.69-25.95-12.69l-19.7-16.66s-6.82-4.55-16.85,5.11-11.18,14.2-6.44,18.75,33.9,42.05,55.49,38.07,34.28-15.91,43.19-27.27S692.64,299,692.64,299Z" class="cls-6" id="path1457"></path><path d="M767.11,652.84s-37,60-71.79,83-73.39,33.22-73.39,33.22l-16.61,4.28s28.93,8.57,16.61,39.64-47.43,10.71-47.43,10.71l-6.41-22.49s-11.79,4.28-50.9,2.14S436,742.3,436,742.3l-.8,26.25,21,35.63s4.69,14.33,5.76,20.75,16.34,27.46,16.34,27.46,2.41,14.33,10.85,14.33,121.28-3.17,121.28-3.17L680,866.21l5.12-7.39-27.65-23.49S643.06,823,662,800.86s68.75-77.27,68.75-77.27Z" class="cls-6" id="path1459"></path><path d="M471.39,548.91s-1.34,24.91,29.2,31.87,149.19,2.41,151.87,2.41,26.79,20.36,53.84,20.63,33.75-20.36,33.75-20.36-22.77,3.48-38-8.57-16.08-22.5-16.08-22.5-23-2.14-19.15-14.2-16.07-12.45-16.07-12.45-22.5-1.74-26,2.54-14.06,28.8-14.06,28.8l-12.59.13,16.2-30.94s-20.09-1.74-24.77,2-15.27,29.6-15.27,29.6l-15.94-1.34s9.64-20.89,6.83-23.3-11.65-4.16-18.88,7.23-10.59,17.14-10.59,17.14l-11.91.94,17.54-26s-23.84-5.36-29.19,1.34-17,19.15-21.57,18.21-13.39-13.93-13.39-13.93-7,1.74-5.76,10.72Z" class="cls-6" id="path1461"></path><path d="M685.62,351.67c-4,5.56-8.72,11.88-14.53,19.06-25.76,31.82-53,71.59-95,72.11a22.5,22.5,0,0,0,9.11,2.94c5.35.54,9.1,15.27,9.1,15.27a104.11,104.11,0,0,0,38.85-12.86c19.55-11.25,23-28.12,23-28.12s42.86-26.79,31.07-31.88-6.69-16.87-6.69-16.87Zm-193.17,35c-4.23,1.94-7.93,4.25-8.47,6.62-1.34,5.89-18.48,9.48-18.48,9.48l8.84,13c8.84,13,17.14,8,26.78,11.25s14.47,3.75,16.88,12.59-7.23,19.82-7.23,19.82,38.57,2.41,48.48-8.57c5.2-5.76,9.58-7.68,12.57-8.21C539.59,439.84,505.41,402.32,492.45,386.66Z" class="cls-6" id="path1463"></path><path d="M662.17,176.25c-7.88,0-16.42,0-25.67,0-67.79.1-101,1.05-168.5,4.85-36.78,2.07-46,3.52-56.34,13.88-15.06,15.06-10.4,43.9-10.77,49.67-1.23,19.11-.91,57.65.66,79.36,2.08,28.75,3,60.14,3.3,108.14.6,109.37,2.83,189.9,7,254,.55,8.25,1.25,20,1.57,26,.59,11,.59,11-1.25,8-.06-.09-.14-.25-.21-.37,3.34,7.72,9.27,19.37,9.27,19.37l-1.14-26c-.63-14.3-1.8-34.33-2.61-44.5-2.82-35.64-4.94-121.46-5.79-234.5-.46-61-1.39-85.11-4.74-123-1.56-17.62-1.25-87.92.41-94.15,4.65-17.47,17-26.92,37.07-28.47,9.77-.76,45.88-2.55,70-3.48l49-2c31.41-1.29,47.72-1.35,108-.39,77.62,1.22,78.38,1.29,85.06,7.15C763,195.5,767,206.68,767,219c0,3-.07,8.16-1,10.06,3.06-2.62,7.34-10.66,7.34-10.66l-1.16-7.64c-1.61-10.68-2.79-14.28-6.5-19.82a30.83,30.83,0,0,0-18-12.33c-7.34-1.64-30.4-2.32-85.6-2.39Zm-67.52,21.62c-14.32,0-30.62.83-41,2.4-4,.61-5.93,3-3.58,4.47,1.73,1.1,6.79,1.09,44.3-.07,16.44-.51,30.33-1.35,30.86-1.87s0-1.57-1.61-2.63c-2.37-1.56-14.69-2.32-29-2.3Zm-106.22,1.79c-13.75,0-38.38,2-45.1,3.6-18.24,4.4-21.83,24.9-21.83,24.9v39.49c0,21.73.62,51.2,1.37,65.51,1,19.77,1.21,41.81.7,92-.41,40.1-.27,77.78.36,96,.57,16.49,1.48,46,2,65.49s1.68,54.4,2.53,77.5,1.94,53.25,2.44,67h0c.49,13.75.76,25.14.59,25.31s-.11,0-.2-.06l8.95,15.76-1.17-10c-1.25-10.61-2.81-43.9-3.62-77-2.08-85.33-2.76-108-4.14-137.5-1.29-27.41-1.45-47.69-.89-111.5.58-66.26.44-81.54-.92-101.5-2.18-31.85-2.6-99.37-.67-107,2.55-10.12,4.79-13.68,10.6-16.83,4.89-2.64,6.48-2.93,21.15-3.77,8.72-.5,22.61-.88,30.86-.85,18.49.07,19.09.8,24.6,9.08,2.62,3.94,5.21,6.51,7.9,7.82,4.7,2.3,6.13,2.3,75.5,1.18,37-.6,47.86-1.07,51.08-2.22a24.8,24.8,0,0,0,12-10.52c1.28-2.48,2.06-2.78,8.68-3.34,4-.34,19-.47,33.39-.29,30.19.4,29.92.32,34.17,9.57,2.45,5.33,2.61,6.71,2.86,23.51.17,11.16-.66,30.08.58,26.56l6.42-15-.72-17.11c-.68-16.11-2.43-22-8.22-27.65s-7.48-5.94-38.69-6c-18.35,0-30.78.35-34.91,1.13-6,1.12-6.56,1.48-8.63,5.21a25.5,25.5,0,0,1-6.4,7c-4,2.87-4.53,3-12.38,2.5-12.75-.76-49.36-.56-80.86.43-32.28,1-32,1.06-35.7-6.19-5-9.87-11.55-12.24-33.68-12.21h0Zm178.74,25.05c-.4,0-.86.23-1.41.78-1.35,1.36-2.42,21.41-1.35,25.66.71,2.83,3.05,3.34,4,.86.35-.91.66-7,.66-13.65C669.09,228.9,668.58,224.84,667.17,224.71Zm-15.87,5.46a1.74,1.74,0,0,0-.82.13c-1.15.44-1.47,2.42-1.47,8.71a65.43,65.43,0,0,0,.62,10.39c.33,1.24,1.17,2.25,1.87,2.25,1.74,0,2.46-3.29,2.48-11.31,0-6.55-.9-10-2.68-10.17Zm46.81,2.21c-.52,0-1.06,0-1.61,0a58.83,58.83,0,0,0-10,1.05c-2.9.79-3,1-3.29,7.33-.44,9.68.62,11.66,6.49,12.11,4.93.39,7.49.21,15.3-1.06,3.24-.53,4.77-1.34,5.46-2.92a4.52,4.52,0,0,1,3.92-2.48c4.23-.42,4.4-2.57.34-4.27-2.51-1-3.62-2.24-4-4.34-.75-3.75-4.74-5.49-12.57-5.46Zm-187.28.39a2.81,2.81,0,0,0-2.83,2.85c0,1.33.65,2,1.89,2,2.17,0,3.64-2.86,2.21-4.3A2,2,0,0,0,510.83,232.77Zm-17.12.9c-4,0-6.21,2.43-3.61,4.07,2.44,1.54,8.9,1.08,9.57-.69C500.49,234.92,498.33,233.7,493.71,233.67ZM455.09,235c-5.22.06-8.34.91-8.86,2.48-.22.66.65,1.62,1.93,2.13,2.61,1,20.1,1.37,23.59.43,1.23-.33,2.25-1.17,2.25-1.87,0-1.63-2.48-2.19-13-3Q457.7,235,455.09,235ZM698,238.65h8v9h-8v-9Zm-7.45,0c2.39,0,2.54.28,2.25,4.25-.25,3.54-.68,4.31-2.55,4.57-2.06.29-2.25-.08-2.25-4.25S688.18,238.65,690.55,238.65Zm-49.12.14a2.47,2.47,0,0,0-.83.19c-1.85.71-2.23,7.91-.63,12.11.54,1.41,1.66,2.56,2.5,2.56,1.21,0,1.51-1.31,1.51-6.25,0-6.07-.76-8.67-2.55-8.61Zm-14,7.86c-1.8,0-2.92,2.38-2.1,4.5,1.06,2.78,3.64,1.72,3.64-1.5C629,247.62,628.5,246.65,627.46,246.65Zm-51.38,11a7.63,7.63,0,0,0-5.46,3c-5.12,6.08-6.85,19.66-4.22,33,1.43,7.27,2.15,8.9,5.11,11.69,4.24,4,5.83,4.06,9.49.4,8.54-8.54,8.33-40.59-.3-46.64A7.4,7.4,0,0,0,576.08,257.67Zm.62,6.59a1.36,1.36,0,0,1,.74.35c3.63,3,5.23,21.24,2.69,30.58a22.41,22.41,0,0,1-2.38,5.78c-1.1,1.5-1.54,1.56-3.12.41-2.69-2-4.3-17.89-2.69-26.73C573.17,267.88,575,264,576.7,264.26Zm54.62,13.39c-3.57,0-9.3,3.5-11.77,7.19-5.1,7.6-5.35,14.25-.69,17.92,6.69,5.26,17.81-3.67,18.92-15.17.41-4.26.13-5.4-1.83-7.48A7.8,7.8,0,0,0,631.32,277.65Zm60.54,4.18c-4-.15-9.59,2.12-15,6.14a505.1,505.1,0,0,0-43.33,35.76c-7.15,6.72-20,18.4-28.5,26s-17.3,15.63-19.5,17.94a93.59,93.59,0,0,1-7.67,7.13l-3.67,2.93-7.83-7.61c-12.14-11.8-28.46-23.43-32.92-23.43-1.8,0-6,1.23-16.25,4.75-5.19,1.78-16.86,12.31-18.82,17s-1.66,9.48.93,12.84c3.41,4.41,30.54,31.33,38.38,38.08,8.19,7,13.05,10.16,18.67,12,5,1.61,28,1,39.88-1.08,10.53-1.83,16.81-5.45,26.82-15.48,19.46-19.5,62.87-79,73.36-100.49,3.87-7.93,3.87-8,3.2-16.88-.76-10.11-2.47-14.35-6.14-15.27a8.6,8.6,0,0,0-1.58-.22Zm-170.34.1c-3.95-.22-7.52,3.43-7.52,7.93,0,7.42,4.24,16.1,9,18.52a11.81,11.81,0,0,0,3.58,1.26c2.22,0,6.25-4.08,6.9-7,1.7-7.75-4.6-19.32-11.2-20.57A7.11,7.11,0,0,0,521.52,281.93ZM629,283.65c2.56,0,3,.39,3,2.44a13.93,13.93,0,0,1-4.64,10.1c-2.67,2.47-4.46,3-5.7,1.8s-.69-3.74,1.8-9.08c2.16-4.66,2.79-5.26,5.49-5.26Zm-109,4c4.07,0,8.83,8.54,7.57,13.56-.34,1.34-1,2.44-1.52,2.44-.93,0-5-4.77-5.06-5.88,0-.34-.66-2.75-1.46-5.37C518.16,287.89,518.19,287.65,520,287.65Zm170.48,1c1.9.11,2,2.18.22,6.25-.66,1.49-6.85,9.14-13.76,17s-19.7,23.28-28.43,34.28-20,25.18-25,31.5c-12,15.12-30.51,36.07-35.22,40a39.88,39.88,0,0,1-9.24,5.18,49.73,49.73,0,0,1-12,2.53c-11.61.78-18-3.57-46.25-31.54C510.08,383.22,503,375.45,503,374.3c0-3.17,3.87-8.43,9.68-13.17,6.24-5.08,10.47-5.87,12.56-2.36s26.8,24.73,31.27,26.89a23.2,23.2,0,0,0,9.11,2c6.55,0,11.34-3.06,24.62-15.74,5.64-5.39,15.56-14.45,22-20.12s17.06-15.28,23.5-21.33c10.62-10,15.78-14.3,38.93-32.6,7.95-6.28,13.32-9.39,15.76-9.24ZM460.76,299.67a7.64,7.64,0,0,0-5.71,2.43c-1.87,2-2.17,3.11-1.64,6,1.33,7.06,7.62,12.08,21,16.73,9.74,3.39,12.94,3.54,15.73.75,4-4-.16-12.44-8.6-17.51C471.9,302.28,465.34,299.57,460.76,299.67Zm232.83,4.82c.71,0-1.34,4.29-6.23,12.93-12.69,22.44-50.41,73.63-67.81,92-7.56,8-12.55,11.38-20.14,13.68-7.8,2.37-8,1.87-1.75-4.23,3.24-3.17,9.34-10,13.55-15.25s10.76-13.33,14.54-18,14.9-18.53,24.67-30.77,22.12-27.11,27.43-33,10.85-12.22,12.33-14q2.84-3.4,3.41-3.38ZM461,305.26c1.73,0,4.45.82,8.1,2.37,8.67,3.69,13.32,7,15.41,11.08,1.48,2.85,1.45,2.94-.75,2.91-5.61-.09-19.54-6.59-22.68-10.57S458.14,305.19,461,305.26Zm70.57,47.42c1.63-.05,4.32.9,6.93,2.66,6.19,4.16,16.62,12.7,20.49,16.77a42.42,42.42,0,0,0,6.75,5.69c1.79,1.11,3,2.44,2.69,2.94-1,1.63-5.86,1-9.61-1.34-5.23-3.2-28.71-24-28.78-25.5C530,353.11,530.61,352.71,531.58,352.68Zm157.09,10.45C681.16,363,676,365.82,676,370.5c0,5.16,4.47,9.06,12.71,11.11,11.56,2.88,22.32-3.91,18.25-11.52-1.8-3.36-5.07-5-12.76-6.4a33.66,33.66,0,0,0-5.53-.56Zm.8,5.61a31.42,31.42,0,0,1,4.2.18c5.16.58,9.53,3.93,7.62,5.84-1.44,1.44-9,2.07-12.33,1-3.76-1.22-7-3.43-7-4.81,0-1.22,3.39-2.11,7.47-2.22ZM479.55,383.06c-6.5-.18-15.74,2.7-18.58,6.12-3.22,3.89-.76,11.29,4.53,13.57,2.52,1.1,8.86.29,12.5-1.6,3.95-2,8.89-7.22,9.61-10.08.83-3.31-1.78-7-5.47-7.74A15.72,15.72,0,0,0,479.55,383.06Zm-1.2,5.05c2.12,0,3.65.45,3.65,1.44,0,1.34-5.46,6-8.32,7h0c-3.8,1.44-5.26,1.34-7.07-.47-2.28-2.27-1-4,4.54-6.44a20.06,20.06,0,0,1,7.2-1.57Zm31.79,39.5a19.62,19.62,0,0,0-8,2.22c-5.61,2.72-18.38,14.72-20.57,19.34-1.52,3.21-1.52,3.63.08,6.21a19.71,19.71,0,0,0,3.23,4h0c2.76,2.29,10.34,1.49,16.72-1.76a53.41,53.41,0,0,0,7.91-4.75c7.19-6.25,10.44-13.84,8.47-19.81a7.49,7.49,0,0,0-7.83-5.47Zm-.45,6c1.95,0,2.31.52,2.31,3.35,0,5-4.61,10.63-11.74,14.43-8.6,4.59-16,4.28-13.38-.55C489.75,445.51,505.45,433.65,509.69,433.65Zm70,7c-5.81,0-7.89,1.89-9.36,8.4s-1.09,9,2,12.33c4.77,5.22,12.47,1.15,14.7-7.77C588.81,446.34,585.6,440.64,579.67,440.67Zm-1.24,5.11c1.75-.06,3.06,2,2.94,5.35-.14,4.45-3.25,8.25-5.16,6.33s-1.53-9.3.37-10.88A3,3,0,0,1,578.43,445.78Zm103.08,63.49c-.45,1-12.77,1.73-17.1,2.33s-17.11,1.56-28.4,2.11-34.46,1.93-51.51,3S538,519,519,519.28s-35.51.69-36.74.94c-6.62,1.37-14.22,13-14.25,21.78,0,13,10.12,19.92,29,19.77,114.72-.92,143.61-1.74,163.24-4.66a139.49,139.49,0,0,1,16.5-1.46h6.76a29.86,29.86,0,0,0-3-7.57c0,.87-1.35,1.14-5.79,1.3-3.44.13-10.75.89-16.25,1.7-13.31,1.95-20.5,2.46-20.5,1.46,0-.46,2.75-5,6.12-10.11a175.16,175.16,0,0,0,9.51-16.28c3.85-8,4.28-8.19,16.37-8.38l9.62-.11Zm-35.63,10.41c2.5,0,4.12.15,4.12.38,0,.86-7.14,13-12.68,21.49-3.2,4.92-6.28,9.71-6.84,10.64-.85,1.39-3.33,1.77-14.41,2.22l-13.38.54,6.8-12.9c3.74-7.09,7.86-14.74,9.16-17L621,521l8.24-.64C635.06,519.86,641.71,519.63,645.88,519.68Zm-31.76.93-3.71,6.77c-2,3.73-4.5,8.12-5.46,9.77s-3.4,6.26-5.42,10.25l-3.67,7.25H582.43c-7.39,0-13.43-.29-13.43-.66,0-.64,9.38-18.6,14.11-27l2.35-4.17,10.52-.6c5.78-.33,12.23-.83,14.33-1.1Zm-36,3-2.58,4.25c-1.42,2.34-5.3,9.32-8.62,15.5l-6,11.25H549.68a142.14,142.14,0,0,0-14.93.63c-2.07.35-3.74.23-3.71-.26s4-7.4,8.86-15.38l8.81-14.5,6.4-.63c3.51-.35,10.12-.68,14.69-.75Zm-89,.54a39.7,39.7,0,0,1,5.37.48c3.85.5,7.32.91,7.72.94s-.94,2.64-3,5.84-5.75,9.49-8.22,14c-5,9-6.19,9.65-11.67,6.14A12.78,12.78,0,0,1,474,541.2c0-4.42,5-12.48,9.34-15C485.75,524.79,487,524.22,489.13,524.2Zm50.33.95a11.73,11.73,0,0,1,1.29,0c.14.08-3.8,6.9-8.76,15.16l-9,15-9.14.65c-9.43.67-13.31.65-18.14-.07l-2.8-.42,3.63-6.68c2-3.68,5.93-10.35,8.73-14.82l5.09-8.15,15.07-.42c6.23-.17,11.66-.28,14.05-.29Zm96.47,95.58c-10.58,0-23.85.12-40.42.29-58.31.6-80.61,1.39-82.12,2.9a2.6,2.6,0,0,0,0,2.31h0c.59,1.55,6.39,1.63,77.88,1.15,42.48-.29,78.58-1,80.23-1.45s3.14-1.63,3.3-2.5c.39-2-7.13-2.75-38.86-2.7Zm-127.4,48.13c-9.61,0-11.94.31-13,1.14-1.33,1-1.67,1.85-1,2.51,1.52,1.51,38.37,3.32,84,4.13,49.86.89,110.14.48,120.93-.81,5.75-.69,8.29-1.45,9.26-2.77,2.42-3.31,1-3.84-8.76-3.36-15.72.76-125,.51-164.93-.38C522.68,669,514.29,668.88,508.53,668.86Zm83,51.93c-4.94,0-10,0-15,.1-28.75.48-35.18,1.23-34.25,4,.31,1,10.74,1.42,44.33,2,24.15.41,49.32,1.13,55.92,1.6l14.19,1c2.68.19,3.87-1.46,2.37-3.27C656.55,723.21,626.09,720.88,591.5,720.79Zm-3.06,56.93a15.58,15.58,0,0,0-5.93.93c-4.5,1.71-11.45,9.13-14.66,15.65-2.73,5.56-3,7-2.69,13.17.46,8.28,3.25,13.12,9.34,16.25,5.22,2.69,16,2.27,22.11-.86,12.81-6.56,19-19,14.95-29.69C608.29,784.62,597.54,778,588.44,777.72Zm.31,7.44a17.68,17.68,0,0,1,13,5.86c4,4.58,4.85,7.72,3.34,12.74C603.52,809,599,814,593.5,816.55a24.27,24.27,0,0,1-10.07,2.1c-4.81,0-6-.39-8.44-2.85-6.54-6.55-4.27-17.09,5.31-27.62C582.12,786.17,585.27,785.12,588.75,785.16ZM483,868.15h97.35c87.6,0,100.21-.21,98.39,1.17,3.5-1.31,3.69-8,3.69-8l-.65-.38c-7.06,1.09-32,1.15-89.08,1.29h0c-47.41.11-89.13.43-92.7.71a81.41,81.41,0,0,1-11.22.07c-3.86-.35-9.32-2.33-7-2.56Z" class="cls-7" id="path1484"></path><path d="M79.94,835.81c-3.13-.11-4.94,1.41-4.94,4.78,0,4.42,9.42,18.64,22,33.19l4,4.62-3.62.58c-5.26.86-7.37,3.19-7.37,8.14,0,2.88.9,5.57,3,8.83l3,6.18,5.48,0-2.7-7C97.49,892,96,888.72,96,887.64c0-3.37,7.43-2.65,15.63,1.5,7.85,4,9.37,4.25,9.37,1.69,0-2.05-2.72-4.79-8.24-8.29-3.77-2.4-25.19-29.12-29.57-36.9l-2.32-4.1,2.89,1.5c4,2.09,17.72,12.38,23.94,18,5.86,5.3,13.08,14.52,17.52,22.36,3.51,6.21,5.78,6.87,5.78,1.7,0-3.82-1.6-7.49-6.15-14.14-2.22-3.25-2.92-5.5-3.11-10-.13-3.2.21-6,.76-6.26,3-1.32,19.67,30.17,22.86,43.2l.68,4.25h4.37l-1.21-8.53c-1.21-8.61-4.62-16.49-11.48-28.89-5.32-9.62-12-17.89-14.72-18.17-5-.52-8,2.88-8,9.12v3.13l-6.25-5.65C96.69,842.25,85.92,836,79.94,835.81Zm900.79.68c-.41,0-.85,0-1.32,0-5.44.31-20.74,14.3-30.75,28.12l-6.16,8.5-.31-4.48c-.18-2.47-.8-5-1.38-5.75-1.64-2-5.24-1.5-7.59,1-5,5.33-9.82,19.93-10.47,31.73l-.25,6,5.5.49v-3.91c0-5.54,3.16-18.3,6-24l3-6.11-.59,11.12c-.67,12.55.3,14.78,3.54,8.14,6-12.29,30.13-40.14,38.11-44l3.5-1.69.31,3.51c.4,4.5-1.53,10.38-9.49,28.9-4.7,10.94-7.38,15.87-9.88,18.2-1.9,1.76-3.44,3.65-3.44,4.19,0,2.27,2.21,1.94,9.13-1.38,4-1.93,8.06-3.51,9-3.51,1.69,0,2.85,2.73,2.88,6.75h0v3.75l5,0V895.6c0-4.07-.49-5.52-2.57-7.61s-3.22-2.47-6-2c-1.88.31-3.43.42-3.43.25s2.22-5,4.93-10.68c9.17-19.31,12.15-32.21,8.44-36.58-1.65-1.93-2.8-2.5-5.64-2.47Zm-202,41.91-.77,5.63c-.87,6.29-2.6,9.35-5.39,11.78a10.34,10.34,0,0,0-2.53,5c0,.2-.22.37-.73.52,3.8.43,7.7.79,7.7.79l2.58-5.4a46.89,46.89,0,0,0,3.74-10c.71-3.69,1.24-6.77,2-7.1Z" class="cls-7" id="path1506"></path><path d="M415,812.16v33.36c0,17.53.46,34.29,1,37.25A60.12,60.12,0,0,0,420,894.41l2.93,7.75h0l4.35.21,2.07-2.81h0l-1.73-4.13c-.66-1.6-2.69-5-3.88-8-2-5-2.17-7.22-2.42-36.31l-.27-32.5Z" class="cls-7" id="path1518"></path><path d="M847.5,301.59c0,4.17-2.88,7.55-6.43,7.55h0c-3.55,0-6.43-3.38-6.43-7.55s2.88-7.55,6.43-7.55S847.5,297.42,847.5,301.59Z" class="cls-8" id="path2909"></path><path d="M882.4,208.94l-.12,0c-.55.34-1.23,4.58-1.51,9.43-.51,9-2.31,14.32-5.38,16a2.79,2.79,0,0,0-1.22,2.8c.43,2.13,2.14,2.19,8.39.32,5.66-1.71,9.26-.5,13.93,4.67,4.45,4.92,4.73,5,6.53,2.88,1-1.18,1-2.1.12-4-2.88-6.32-1-11.83,5.11-14.87a4,4,0,0,0,2.25-3.08c0-1.69-.93-2.07-6.5-2.63-9.08-.93-11.9-2.2-16.61-7.51-2.11-2.39-4.27-4.12-5-4.05Zm3.6,12,4.66,2.36c2.57,1.3,5.55,2.36,6.63,2.36,1.42,0,1.68.34,1,1.25a16.35,16.35,0,0,0-1.87,3.94c-.68,2.07-1.25,2.48-2.47,1.79a16.23,16.23,0,0,0-5.33-1.14c-3.57-.24-3.72-.4-3.17-3.17a32.4,32.4,0,0,0,.59-5.16Zm-705.9,21h-.28a1.68,1.68,0,0,0-1,.52c-.6.61-1.43,4.62-1.84,8.91a60.27,60.27,0,0,1-1.51,9.81c-1.43,3.66-7.61,11.5-9.08,11.5a2.43,2.43,0,0,0-2,1.51c-.95,2.48,1.61,4.49,5.69,4.49,7.39,0,11,5.31,12.51,18.5a41.56,41.56,0,0,0,1.13,6.75c.67,1.16,3,.88,4.06-.5.55-.69,1.54-4.23,2.21-7.87,1.41-7.65,5.74-15.86,10.05-19,4.08-3,3.76-5.21-1.25-8.69-6.06-4.19-13.69-12-14.21-14.51-.23-1.18-.69-3.78-1-5.79-.52-3.24-2-5.47-3.43-5.6Zm2.25,20.19,2.07,2c1.14,1.12,3.84,3.47,6,5.22l3.91,3.19-2.51,3.31a53.29,53.29,0,0,0-3.94,6l-1.42,2.74-1.9-3.52a17.48,17.48,0,0,0-5.17-5.54l-3.28-2,3.13-5.73Zm720.2,13.51c-1.33,0-2.28,2.69-2.84,8.06-.77,7.33-2.64,11.56-5.76,13-4.49,2.07-5.45,2.88-5.45,4.59,0,1.55,1,2,5.87,2.62,7.42.93,11.29,3.21,14,8.27a21.57,21.57,0,0,0,3.14,4.73c2.65,2,4.5-.73,4.5-6.58,0-4.49.38-5.32,4-8.8,2.22-2.11,4.89-3.85,5.93-3.85,2,0,3.6-3.25,2.47-5.09-.38-.61-1.89-.87-3.36-.57-5.67,1.13-15.44-5.29-19.23-12.65-1.28-2.49-2.38-3.74-3.3-3.73Zm3.11,14,2.42,1.88a42.64,42.64,0,0,0,5,3.28l2.59,1.39-2.59,4.05-2.59,4L907.2,302a31.1,31.1,0,0,0-4.46-2.62c-.8-.27-.54-1.82.88-5.09ZM167.57,327.77c-1.53-.14-4.07,2.19-8.39,6.93-6.67,7.31-12.36,10.89-17.35,10.93a15.52,15.52,0,0,0-4.25.63c-2.13.82-2,4.3.16,5.1,6.43,2.37,13.47,11.43,15.22,19.58.61,2.83,1.65,5.49,2.32,5.91,1.78,1.13,3.07.45,4.34-2.27,4.06-8.74,5.28-10.57,8.74-13.08a22.53,22.53,0,0,1,7.5-3.45c7.23-1.3,8.11-4.34,2.15-7.39-5.72-2.91-7.43-6.1-8-14.94-.34-5.18-.88-7.81-2.42-8Zm-4.33,12.88c.28,0,.75,1.24,1,2.75a22.87,22.87,0,0,0,3.07,6.46c2.34,3.45,2.39,3.74.68,4.28-1,.32-3.91,2.8-6.44,5.51s-4.6,4.28-4.6,3.5-2-3.85-4.4-6.82l-4.4-5.4,3.35-1.6a37.66,37.66,0,0,0,7.27-5.14A27.64,27.64,0,0,1,163.24,340.65Z" class="cls-7" id="path1530"></path><path d="M248.13,396.23s13.26-8.57,11.25-1.88-9.91,23.57-10.58,24.91-.94,8.57-1.88,9.11-7.35,3.19-8.43-5.84,9.64-26.3,9.64-26.3Z" class="cls-9" id="path2721"></path><path d="M821.38,349s-11.36-3.51-11.17.37S808,366,822,368.83s13.17-6.25,13.17-6.25-13.92-.76-13.74-13.63Z" class="cls-9" id="path2723"></path><path d="M216.84,344.33c-.89,4.56-2.1,10.56-3,14.78a8,8,0,0,0,1.1.08,7.55,7.55,0,0,0,1.89-14.86Z" class="cls-8" id="path7004-5-5-1-7-6-7-12-0-7"></path><path d="M1034.92,902.07c0,11.83-98,22.72-255.8,28.45s-350.61,5.37-503.31-.93S34.57,912.06,44.65,900.25l494.75,1.81h495.52Z" class="cls-6" id="path1550"></path><path d="M789.54,213.68h0c-5.27,0-11.22,1.1-13.46,2.76a32.77,32.77,0,0,0-11.39,11.7c-1,1.78-7.79,11.5-10.77,15.11a84.29,84.29,0,0,0-14.73,23.25c-8.11,19.22,1.79,61.71-2.71,78.65l-2.64,7.76c-1.45,4.27-6.26,14.4-10.68,22.5-9.36,17.16-14.24,30.56-14.94,41-.42,6.22-.73,7.21-2.11,6.64a47.84,47.84,0,0,0-10.25-2.89c-2.8-.47-3.92-1.28-4.84-3.51-3.65-8.79-13.23-8.2-17.07,1.05-1.45,3.52-1.66,3.54-4.08.47a13,13,0,0,0-5.25-3.53c-8.3-2.73-14.45,5.61-10.19,13.84,1.84,3.56,8.22,9.32,12.09,10.93,2.5,1,3.23,2.14,4.25,6.46A46.66,46.66,0,0,0,675.62,457c3.13,5.06,3.46,6.18,2.5,8.3-2.63,5.76.4,15,5.93,18.19,1.62.92,2.94,2,2.94,2.44,0,2.16-7.07,19.65-7.73,22.65-1.46,7.05-1.1,12.23-1.65,18.34-.66,7.41,1.14,14.8,2.35,19.31a71.29,71.29,0,0,0,6,14.18c3.77,7.18,15.33,18.2,23,21.94,12.79,6.22,27.78,8.23,40,5.37,4.21-1,17.55-6.65,23.07-9.78.31-.18-1.17,3.18-3.29,7.45-6.81,13.7-8,27.77-4.19,48.27,2.25,12,1.91,14.81-3.31,26.73-10.86,24.83-24.45,48.64-38.1,66.77-8.6,11.42-12.53,15.92-39,44.68-18.81,20.4-31.59,37.55-33.51,47.8-1,5.56,1,13.26,5.61,18.88,4.07,4.93,19.18,17.14,20.7,17.14a8.44,8.44,0,0,1,2.92,1.88,9.41,9.41,0,0,1,1.49,1.48c.56.84-2.62,9.33-6.12,10.64l-.18.12c-7.94,4.83-17.12,18.43-17.12,26.92h0v4H479.77l.71-3.75A126.45,126.45,0,0,0,483,874.65l0-6.5s.36-9.94-.4-12.75c-1.47-5.5-4-9.74-10.6-18.21-7.46-9.64-8-10.7-8.06-15.2-.05-7.23-2.5-13.07-13.59-32.34l-10.07-17.5-8.95-15.75c-.72-.57-3.08-4.5-7.05-11.75l-3-5.5s-5.93-11.65-9.27-19.36c-2.89-5.08-13.47-30.32-18-43-4.3-12.06-5.06-17.44-7-49.6-.63-10.45-1.84-23.73-2.7-29.5-2.62-17.7-2.62-17.54-.44-23.35,5.48-14.67,3.29-21.84-8.63-28.21-.15-.08-1.59-5.57-3.21-12.2s-4.75-18.28-6.95-25.9-6.49-25-9.52-38.58-5.92-25.53-6.42-26.5-1.68-7.57-2.62-14.66-2.75-17.22-4-22.5-2.64-11.85-3-14.6c-1.76-12.21-10-19.47-22.21-19.5-1.79,0-3.25-.45-3.25-1a6.59,6.59,0,0,0-1.93-2.93c-1.9-1.91-1.9-2,0-5.71,2.28-4.46,2.44-7.29.57-9.84-2.11-2.88-.81-10,3-16.27,6.59-11,9.56-24.21,7.41-33.16-4.23-17.65-24.59-29.31-68.17-39.06-14.84-3.31-18.65-5-21.21-9.62-3.35-6-6.59-5.88-12.63.38-6.46,6.7-9,13.68-9,24.64,0,10.52,2.57,19.2,8,26.92a45.08,45.08,0,0,1,4,6.36,65.16,65.16,0,0,1-2.49,6.86c-7.95,19.87-13.49,55.18-9.74,62,1.09,2,.89,2.15-3.84,2.71-5.92.7-14.1,4.9-17.57,9-9.3,11.05-14.33,33.38-14.38,63.86l0,13.29-3.39-6.3c-4.46-8.27-5.29-9.19-10.32-11.42-3.9-1.72-4.19-2.11-3.5-4.58a59.06,59.06,0,0,0,.68-10.8c-.11-12.45-3.53-16.63-15.93-19.41a20.34,20.34,0,0,0-7.38-.55c-3,.5-6.5-3.43-8.19-4.86-6.58-5.53-13.92-1.77-15.37,7.88-1,6.5,3.53,25.7,8.45,36,2.1,4.4,3.48,8.22,3.06,8.5-3.41,2.26-4,11.35-1.15,17.44,1,2.24,3.55,7.89,5.56,12.56a299.07,299.07,0,0,0,18.91,35.92c11.28,17.39,27,25.8,41.86,22.38,15.85-3.66,25.48-13.85,30.17-31.94a50.75,50.75,0,0,0,1.59-8.58,5.92,5.92,0,0,1,.63-3.08c.36-.35,3.87,4.64,7.82,11.08s9.62,15.1,12.6,19.22c4.87,6.73,5.44,8,5.44,12.6,0,4.39-.63,6-4.6,12-2,3-3.79,5.87-5.15,8.21-1.7,2.91-.89,8.23,1.38,10.7,2.43,2.62,3.54,4.47,2.7,4.47s-2.86,1.48-4.61,3.29c-3.51,3.61-5.21,9.95-5.21,19.38a21.5,21.5,0,0,1-2.48,10.29c-8.84,17.45-33.42,86.72-36.68,103.37-4,20.6-2.47,46.31,5.74,95.18,1.72,10.24,6.76,29.76,9.43,36.54l1.8,4.55-3.56,4.29c-7.08,8.52-21.23,18.79-41.5,30.14-4.27,2.38-7.75,4.7-7.75,5.15s-1.49.82-3.3.82H101.41l-5.48,0-28.22.27-28.21.27v5l60.5.5h0c91.19.75,883.57.87,914,.14l26.5-.64v-5l-27.75-.27L985,900.62l-5,0H928l-5.5-.5-7.86.29c-6.28.24-8.09,0-9-1.3-.64-.88-4.18-2.65-7.87-3.94-12.3-4.3-27.45-13.68-32.25-20l-2.43-3.19,2.47-4.87c1.35-2.68,2.46-6.12,2.46-7.65,0-2.48.89-3.23,8.06-6.85,8.75-4.41,21.45-12.72,24.38-15.95a14.63,14.63,0,0,0,2.59-5.8c.43-2.08,1.69-8,2.81-13.28,5.27-24.51,3.89-44.37-6.41-92.45-2.47-11.53-5.41-26.38-6.54-33-2.76-16.29-3.55-48.23-1.9-76.39,1.14-19.52,1.51-22.14,3.7-26.49,2.93-5.82,2.47-9.36-1.75-13.59l-2.91-2.9,2-4.34c2.64-5.82,2.53-7.29-1-12.49-2.8-4.15-3-5.07-3-13.78,0-7.88.62-11.44,4-23,5-17.43,7.12-27.76,7.92-39.06l.63-9,17.09.3c25,.44,35.85-2.39,44.78-11.62,5.79-6,7.38-17.55,3.73-27.15-7.43-19.58-33.18-45-58.6-57.78-10.35-5.23-12.72-5.88-26.5-7.35-6.32-.67-11.63-1.32-11.8-1.45s.45-2.56,1.39-5.41c1.33-4.09,1.58-7.35,1.13-15.36-.64-11.73-3.33-21.79-10.18-38.09-8.16-19.39-8.75-22.65-9.44-52.09-.67-29.13-1.18-31.38-7.63-34.08-4.67-1.95-6.58-1.81-16.4,1.19-11.82,3.6-16,3.09-24-2.91-3.38-2.55-7.72-4.92-9.63-5.28a27.11,27.11,0,0,0-4.88-.39Zm-1.43,6.92h0a20.16,20.16,0,0,1,10.61,2.63c12.46,7.22,13.5,7.6,19.28,7.08a85.24,85.24,0,0,0,12.55-2.47c14.66-4.13,15.43-2.79,15.46,26.52,0,25.63,1.37,34.16,8,50.42,11.8,28.87,13.93,39.74,10.82,55.22l-1.14,5.69-5.1-.62a167.75,167.75,0,0,1-24.86-5.49c-5.43-1.62-7-2.57-8.25-4.91a20.92,20.92,0,0,1-1.5-3.33c0-.23,2-1,4.54-1.69,9-2.52,16.41-10.75,19.07-21.11,3-11.83-.07-35.78-8.11-62.3-3.33-11-3.44-11.76-1.9-14.1.89-1.36,1.35-3.17,1-4-.51-1.33-1.12-1.18-4,1a12.72,12.72,0,0,1-13.46,1.13,44.66,44.66,0,0,1-7.62-6.44c-7.32-7.5-8-6.69-9.43,11.56-1.89,23.91-5.17,34.88-13.06,43.62-4.06,4.52-12.05,8.65-16.72,8.67-4.2,0-11-2.48-14.93-5.46-1.76-1.34-3.48-2.16-3.82-1.81-1.22,1.21-.6,4,1.27,5.69,1.56,1.41,1.71,2.19.85,4.46-2.13,5.65,1.23,13.72,7.81,18.75,5,3.77,9.89,3.81,14.75.1l3.6-2.74,2.49,4.26c4.26,7.28,7.55,15.19,8.58,20.63,1.89,10-2.18,17.06-20.19,35.19-16,16.08-20.38,22.55-25.41,37.31-3.61,10.6-3.79,11.74-3.75,23.63,0,11.36,1.5,22,4.89,35.26.39,1.51.32,2.73-.15,2.7-2.46-.12-28.36-22.48-28.36-24.49,0-2.17-6.57-8.46-8.84-8.46-1.26,0-2.66-1.08-3.51-2.7-1.28-2.45-1.22-3,.72-5.61s2.1-4,1.89-14.45c-.35-17.18,3.09-28.27,16-51.71,13.44-24.35,16-36.48,13.72-66.06-2.68-35.36.1-45.84,17.89-67.48a81.56,81.56,0,0,0,8.24-11.77c3.65-7.53,11.84-12.11,20-12.28Zm22.16,28.09,3.54,3.11c4.46,3.92,9.06,5.86,13.9,5.86h3.79l3.79,16.25c5.78,24.78,6.86,31.38,6.93,42.24.07,11.31-1,14.91-6.92,22.63-4.45,5.83-7.17,6.87-17.95,6.87-6.43,0-8.35.32-8.35,1.38,0,2,2,3.35,6.2,4.14,3.24.6,3.86,1.2,5,4.84,1.1,3.37,2.18,4.54,5.79,6.3,2.45,1.19,4.7,2,5,1.82,1.52-.94,2.87,1.87,5,10.38,2.05,8.28,2.18,9.9,1.08,14a19.32,19.32,0,0,1-3.35,6.89h0c-6.17,6.57-26.12-3.12-35.72-17.34-2.64-3.91-2.89-4.82-1.84-6.72,2.16-3.92,4.73-12.12,4.76-15.23.06-5.16-2.8-14.59-7-23-3.63-7.28-8.93-14.5-10.67-14.5-.38,0-2.13,1.58-3.9,3.5q-6.07,6.64-11.68.75C765,320,763,315.75,763,312.7c0-1.74.27-1.76,4.75-.37,6,1.84,12.09,1.12,19-2.24,6.5-3.17,11.53-8.86,15.87-17.93,4.85-10.15,6.52-17.44,7.13-31.23ZM228.7,255.42a1.17,1.17,0,0,1,1,.45,8.7,8.7,0,0,1,1.41,3.27c.63,3.39,7.95,6.39,28,11.46,10.64,2.69,22.39,6.06,26.13,7.48,22,8.4,31.63,18,31.68,31.59,0,8.72-5.84,28-8.53,28-.88,0-1.44,1.61-1.64,4.75l-.3,4.75-5.35.66c-5.9.72-14.74,6-18.48,11.07a21.23,21.23,0,0,1-4.39,4.32c-2.09,1.37-2.38,1.36-2.93-.08-1.42-3.67.47-15.07,3.71-22.47,2.35-5.35,4-9.67,4.3-13a9.28,9.28,0,0,0-4-9l-4.64-3.87C262.27,304.34,253,287.22,253,279.11c0-3.32-2.76-3.21-4,.17-.95,2.48-.38,5.81,2.56,15.12.63,2,.37,2.25-2.21,2.25-5.34,0-17-9.25-18.79-14.93-1.07-3.38-3.52-2.53-3.52,1.21,0,3.4,1.54,6.3,5.79,10.91l2.47,2.69-3.63,4.24c-2,2.33-3.63,4.61-3.63,5.06,0,2.67-2.18-.22-5.59-7.43-3.77-8-3.91-8.61-3.91-18.75,0-9.44.27-11,2.65-15.5C223.94,258.88,226.91,255.53,228.7,255.42Zm597.55,35.29a3.38,3.38,0,0,0-3.19,1.82c-1.27,2.39.22,7.86,2.65,9.7a6.23,6.23,0,0,0,9.22-1.48c2.81-3.94,2.62-4.76-1.35-6.07A12.38,12.38,0,0,1,829,292.1,3.76,3.76,0,0,0,826.25,290.71Zm-586.32,9.4h0a12.82,12.82,0,0,1,3.49,1.07,18.3,18.3,0,0,0,8.42,1.22c3.47-.47,4-.22,5.62,2.45,2.62,4.44,11.83,13.3,16.92,16.28l4.48,2.63-1.46,4.9c-.8,2.69-2.86,8.18-4.58,12.19-2.47,5.79-3.13,8.75-3.16,14.3-.08,11.44,3.8,16,10.55,12.39,1.88-1,2-.9,1.45,1.25-.35,1.3-1.17,5-1.82,8.31-.91,4.6-2,6.78-4.76,9.57a103.26,103.26,0,0,0-8.56,10.73c-3.95,5.65-5.62,7.23-8.14,7.71-5.82,1.09-15,13.24-14.18,18.85.19,1.39-.32,2.26-1.45,2.49-3.08.61-2.35-9.42,1.32-18.16,2.52-6,4-8,8-11,2.71-2,4.93-4.09,4.93-4.6,0-2.19-2.28-1.83-9.14,1.45-8.19,3.93-10.55,4.23-15.16,1.88-10.84-5.5-17.17-15.06-17.12-25.87,0-12.07,8.39-42.81,15.46-57,5-9.92,6.33-12.86,8.51-13h.38Zm-12.43,37,.15,3.34a10,10,0,0,0,2.43,5.75c3.18,3.39,7.32,3.17,11.07-.59,1.66-1.65,2.83-3.57,2.6-4.25-.67-2.07-5.34-3.79-10.95-4Zm76.08,15.58h0a8.64,8.64,0,0,1,1.46.08c3.51.49,4,6,.79,8.25-2.71,1.89-10.1,2-14.24.26l-2.9-1.24,3.2-2.68a21.07,21.07,0,0,1,11.69-4.67Zm-15.45,13.08,3.4,1.42a23.22,23.22,0,0,0,7.47,1.42,14.19,14.19,0,0,1,6.6,1.67l2.54,1.66L300,374.33a89.85,89.85,0,0,0-12.07,4.35c-4.69,2.4-4.82,1.94-1.88-6.75ZM840.19,367a1,1,0,0,1,.33.08c.74.28,3.22,1,5.5,1.63,4.9,1.32,15,10.5,15,13.64a4,4,0,0,1-2.55,3.2h0c-3,1.38-7.91,1.38-11.67,0-2.09-.76-2.86-1.84-3.31-4.67a67.34,67.34,0,0,0-2.44-9c-1.24-3.56-1.49-4.87-.84-4.88Zm21.63,4.6,14.34.6c8.12.34,16.22,1.63,24.34,5.64,26.79,13.52,48.28,33.66,58.28,54.65,3.85,8.08,4,12,.56,18.93-4.53,9.29-16.58,13.23-41.11,13.46-15.48.15-22.55-.82-31.48-4.33L884,459.42l3-3.81c7-8.86,9.21-18.35,6.26-27.08l-1.9-5.62,18.25.12c18.53.13,22.28-.53,18.92-3.32-1.64-1.36-17.25-2.94-29.73-3l-7.66,0-3.68-5c-4.08-5.56-7-8-9.72-8s-2.12,1.89,2.8,7.65l4.58,5.36-5.08.16c-2.79.09-5.67.21-6.4.25s-3.33-2.37-5.78-5.38c-9.62-11.8-19.25-13.47-29.76-5.14-3.59,2.84-4.19,4-5.69,10.73-3.16,14.18,0,22,8.64,21.19,3.23-.3,4,0,5.39,2.4.89,1.52,3.7,4,6.24,5.46a57.82,57.82,0,0,1,9.7,7.93q5.08,5.22,9.09,6.29a56.52,56.52,0,0,1,8.72,3.49,57.37,57.37,0,0,0,9.84,3.73l5.13,1.31-.65,6.54A206.71,206.71,0,0,1,886.32,516c-4,13.44-4.48,15.94-4.65,26.17s0,11.57,2.08,14.35c3,4.13,2.83,7.94-.73,12.77-3.71,5.05-12.13,9.6-21.72,11.74-7.77,1.74-32.65,2.08-41.65.57-11.33-1.9-26.62-7.8-29.63-11.43-1.84-2.21.63-10.06,5.47-17.4a36.7,36.7,0,0,0,4.5-9.5c4.28-18.51-5.71-75.66-16.79-96.12-3.49-6.44-6.07-5.61-3.82,1.22.71,2.16.55,2.13-5-.79-3.16-1.67-6.68-2.89-7.81-2.73-4.25.61-1.89,3.34,6.71,7.77l8.77,4.52,2,6.5c3.69,12.1,7,28.44,9.12,45.19l2.13,16.68-3.46,4.82c-5.35,7.44-10.59,10.64-18.26,11.13-10.71.68-22.68-4.39-39.27-16.63s-40.75-36.4-38.59-38.56a7,7,0,0,1,3.42-.63c7.45,0,19.21-6.88,22.44-13.13l1.47-2.83,3.73,4.15c4.17,4.64,17.7,15,23.17,17.75,3.66,1.83,18.11,5.06,22.66,5.06,1.89,0,2.46-.45,2.21-1.75s-2.21-2.24-6.27-3.32c-6.58-1.74-6.19-2.71,1.48-3.62,3.94-.46,5-1,4.76-2.2s-1.6-1.61-6.3-1.61a53.17,53.17,0,0,0-9.07.7l-3.08.69L754,473.85c-2.72-13.57-3.73-33.08-2.08-40a70,70,0,0,1,14.4-29.61,112.4,112.4,0,0,1,11.21-12.17l4-3.31-.37,4c-1,10,2.74,15.92,10,15.92,3.87,0,4.76-.52,10-5.94l5.77-5.93,6.47,3.36c14.33,7.48,25,4.72,28.67-7.37l1.13-3.79,3.64,1.9c2.66,1.39,5.07,1.8,8.92,1.5,10.3-.78,14.64-9.55,8.63-17.43Zm-545.1,6.75h0c3.73,0,6.85.52,9,1.67,5.68,3,5.75,3.2,11.74,31.68,5.54,26.3,6.9,56.11,4,86.83-3,31.06-9.24,45.91-21.95,51.82-6.28,2.93-14.54,3-23.25.26-7.63-2.42-12.32-7-22.15-21.41-5.94-8.75-20.1-31.9-20.1-32.88,0-.19,2.81-1.37,6.25-2.61,9.72-3.53,17.91-7.89,21.81-11.64l3.57-3.42,3.67,5.28c5.38,7.72,18.77,22.74,21.93,24.6,2.06,1.22,3,1.33,3.88.46s.15-2.34-3-6L308,498.15l5.24-.5c3.7-.35,5.25-.93,5.25-2,0-1.78-3.45-2.81-9.86-2.94-4.6-.09-4.83-.23-4.27-2.47,2.36-9.39,1.35-40.27-1.81-55.33-1.52-7.27-1.83-7.79-4.13-6.91-1.24.48-1.52,1.43-1.09,3.87,1.15,6.71,2.8,37.6,2.49,46.56l-.33,9.32L292.45,479c-3.88-4.85-7.85-10.09-8.83-11.65a13.15,13.15,0,0,0-5.2-4.27c-3.87-1.61-3.81-1.25-3.46-18.9.24-11.78-1.5-20.34-6.06-29.9l-3.2-6.68,2.69-2.81a42.2,42.2,0,0,0,5.45-8.21c2.32-4.52,3.74-5.92,8.71-8.6,11.22-6,24.65-9.63,34.17-9.65Zm475.28.35c.53,0,1.84,1.69,2.92,3.75a36.6,36.6,0,0,0,5.06,7c3.66,3.83,3.23,5.34-2.86,10.17-2.15,1.7-5.07,3.09-6.48,3.09-2.15,0-2.74-.65-3.65-4C785.22,392.07,788.59,378.65,792,378.65ZM213.91,389.27h0c1.87,0,2.69.74,4.84,3,5.47,5.63,12.16,9.67,16.87,10.2,2.41.27,4.37.83,4.37,1.24a36.94,36.94,0,0,1-2.17,5.62c-2.45,5.52-3.12,16.48-1.12,18.48,1,.95.27,2-3.11,5-5.73,5-7,8.32-6.37,16.74A28.49,28.49,0,0,0,231,462.57C234,468,241,475.65,243.1,475.65c.41,0,.5,2.4.2,5.32a18.62,18.62,0,0,0,1.07,8.44c1,3.32,5.63,10.58,7.81,15.1,4.91,10.18,16.74,29,23.56,37.5,6.34,7.88,12.11,11.9,21.11,14.68,22.11,6.83,39.89-5,45.63-30.24a381.81,381.81,0,0,0,6.2-41.56c.32-4.8,1-9.41,1.42-10.23.65-1.17.83-1,.86.73,0,2,2.19,10.64,13.55,54.13,3.76,14.4,3.55,16.17-2.92,24-11.85,14.28-37.59,30.39-56.4,35.31h0c-10,2.61-28.49,3.36-36.7,1.48-11.05-2.54-26.5-10-26.5-12.81,0-.51,2.3-4.69,5.12-9.29s5.39-9.74,5.74-11.42l.64-3,6.5,4.52a103.1,103.1,0,0,1,9.25,7.17c2,1.91,3.07,2.34,3.85,1.56s.78-1.65,0-3.1c-1.61-3-11.08-11-15.36-13-2.94-1.35-5.26-4-10.64-12.23-19.93-30.43-37.46-66.25-41.21-84.21-1.29-6.15-2.52-7.95-4-5.78-2,3,1.71,19.18,7.63,33.42.55,1.32-1.3.43-5.94-2.89-5.12-3.64-7-4.53-7.9-3.64s-.87,1.65-.12,2.88c1.75,2.86,10.45,8.23,13.33,8.23,2.36,0,3.05.82,5.67,6.75l3,6.75-1.69,9.49c-2.76,15.53-6.52,23.74-13.9,30.41s-16.59,9.45-24.09,7.17c-15.53-4.71-22.2-12.29-39.19-44.58l-6.57-12.5,7.69,0a44.58,44.58,0,0,0,12.91-1.82c5.51-1.89,13.84-8.59,16.22-13.05,1.39-2.58,1.48-2.45,5.59,8.13,5.28,13.62,13.83,31.76,15.42,32.74,3.65,2.25,2.81-2.12-3.47-18.08l-6.64-16.89,1.09-21.29c1.62-31.42,3.94-45.17,9.49-56,4.42-8.64,9.93-12.54,20.08-14.17a24,24,0,0,1,3.41-.41Zm636,17.86a11.65,11.65,0,0,1,3.6.53c4.32,1.42,12.82,10.62,17.89,19.34,2.14,3.7,5,9,4.46,10.62a5.91,5.91,0,0,1-4.19,3.91c-8.83,2.73-14.92,2-20.17-2.33-2.38-2-2.71-2.69-1.62-3.41q1.38-.92,4.74,1.07c3.18,1.88,3.4,1.89,4,.21.5-1.31-.6-2.93-4.25-6.23-7.09-6.43-9.28-7.73-10.67-6.34-.85.85-.6,1.87,1,4,2.57,3.47,2.11,4.12-2.9,4.12-3.32,0-3.9-.35-4.5-2.72-.86-3.44,1.24-16,3.18-19C842,408.65,846.12,407.13,849.91,407.13ZM259.1,411.21c.87-.06,1.66.8,3.59,3,4.59,5.24,6.58,14.53,6.88,32.12.14,7.8.53,15.07.87,16.16.51,1.6-.36,2.54-4.66,5a61.4,61.4,0,0,1-10.71,4.6,52.84,52.84,0,0,1-6.32,1.59c-1.95,0-12-11.26-13.91-15.62a39.4,39.4,0,0,1-2.57-10.29c-.51-5.6-.48-5.67,3.71-9.45,3.92-3.54,17-10.64,19.62-10.64a3.75,3.75,0,0,0,2.29-1.36c1.72-2.08-1.19-4-4.9-3.29-1.72.35-3,.18-3-.39,0-1.74,4.83-8.72,7.21-10.42A4.14,4.14,0,0,1,259.1,411.21ZM122.29,415a6.59,6.59,0,0,1,4.08,1.78l2.75,2.15-2.06,2.2c-2,2.16-2.81,5.56-1.27,5.56a23.75,23.75,0,0,0,4.71-2,18.45,18.45,0,0,1,6.55-2c4.29,0,12,2.71,14.57,5.11,2.08,2,2.38,3.15,2.38,9.55,0,10-2.72,23.23-5.38,26.22a17.82,17.82,0,0,1-5.34,3.75c-7.66,3.26-10,1.82-15.8-9.63C117.38,437.64,115.43,415.21,122.29,415Zm560.65.69c.54,0,1.9,1,3,2.19l2,2.19-3,1.26c-2.06.87-2.81,1.74-2.39,2.81s2.12,1.55,6.86,1.55c6.93,0,14.34,2.15,16.27,4.72,1.7,2.27.63,9-1.19,13.41-1.34,3.19-1.34,4.15,0,8.65,2.21,7.45,2.94,8.8-1.58,10.62-5.25,2.09-11.61,2-16-.15-2.8-1.39-4.37-3.49-7.84-10.44-2.39-4.77-4.58-10.48-4.87-12.67-.87-6.46,5.47-24.13,8.65-24.14ZM661.78,420c1.72.09,4.13,1.38,6.83,3.83,1.77,1.61,2,2.56,1.37,5.92a16.89,16.89,0,0,1-1.26,4.53c-.3.29-2.6-1.45-5.13-3.87-3.24-3.11-4.59-5.2-4.59-7.11,0-2.3,1-3.4,2.78-3.3Zm213.32,2.66h3.43c2.38,0,4.44.9,6.7,2.92,3.13,2.8,3.27,3.23,3.27,10.28,0,6.59-.34,7.87-3.25,12.42-1.79,2.78-4.4,5.59-5.8,6.22a13.25,13.25,0,0,1-2.75,1.06c-.11-.05-1.55-.43-3.2-.82-3.72-.9-6.8-2.52-8.36-4.4-1-1.2-.56-1.56,2.53-2.14,5-.94,11-4.1,12.29-6.47,1.48-2.76.08-7.11-3.31-15.31ZM157.49,455.76a13.25,13.25,0,0,1,3.31,1A6.3,6.3,0,0,1,165,461.3c1.63,4.93.49,9.37-3.67,14.23-4.35,5.08-9,7.59-16.84,9-12.52,2.32-15.33,1.29-17.43-6.41-1.23-4.5-1.46-10.5-.41-10.5.38,0,2,1.24,3.57,2.75,2.5,2.41,3.66,2.75,9.14,2.75,5.27,0,6.93-.45,10.4-2.86,4.34-3,8.83-10.55,7.83-13.16C157.29,456.25,157.1,455.81,157.49,455.76Zm555,.4,2.23,3.62c4.48,7.24,1.7,13.71-7.63,17.72C701.25,480,692.45,481,689,479.59c-4.86-2-7-5-7-9.55v-4.28l5.59,2.57c6.53,3,10.72,2.8,17.91-.79,5.34-2.66,5.68-3.08,6.45-7.85ZM275.76,467.65c.49,0,1.91,1.09,3.16,2.42,4.49,4.78.31,9-15.86,16.15-5.54,2.44-10.76,4.43-11.59,4.43-2,0-3.65-4.48-3.27-8.81.28-3.19.56-3.45,4.18-3.77a36.86,36.86,0,0,0,18-7C272.85,469.2,275.28,467.65,275.76,467.65ZM691.2,491.19l3.06,4c5.67,7.39,27.16,28,36.74,35.16A166.46,166.46,0,0,0,747,541c16.42,8.93,32.87,8.78,43.32-.42,4.59-4,4.61-4.05,5.22-1.65.45,1.81-.7,4.5-4.63,10.81-2.87,4.62-5.82,9.37-6.54,10.56-3.67,6.06-25,18.46-36.57,21.21-6.36,1.52-18.11,1.31-24.8-.46-13.31-3.51-23.54-11-31.16-22.77-6.1-9.44-8.34-17.94-8.34-31.65,0-10.6.3-12.44,3.85-23.48ZM371.26,550.65h0c2,0,7.81,4.83,8.9,7.42,1.24,3,1.12,3.69-3.36,19.33-.94,3.31-.95,5.51,0,9.89.64,3.1.94,6,.64,6.5-1.22,2-7,.73-11.11-2.41-5.34-4.11-7.73-7.22-11-14.33l-2.62-5.72,5.49-5.09a67.23,67.23,0,0,0,8.89-10.34c1.88-2.88,3.76-5.24,4.18-5.25Zm413.34,23c.28,0,.4.38.4,1,0,1.67,17.76,9.75,26.5,12.06,6,1.58,12.19,2.25,24.63,2.63,23.22.72,34.44-1.54,45.87-9.24l5-3.34,2,2.56c2.53,3.23,2.53,5.83,0,10.56-3,5.56-4.44,24.5-4.41,57.73,0,32.35.33,35,8.43,72,8.49,38.81,9.13,42.91,9.71,62.52.46,15.56.23,20-1.69,32-2.62,16.42-3.52,18.91-8.43,23.22-7.68,6.74-48.86,24.67-47.08,20.49,4-9.34,6.19-26.61,7.43-58.27,1.53-39.1,3.63-69.89,6.67-97.83,1.54-14.1,1.41-16.6-.74-14.45-4,4-10,62-11.83,114.28-.94,26.57-2.48,41.47-5.16,49.76a129.36,129.36,0,0,1-6,12.75c-4.24,8-5.69,9.9-9.53,12.15-3.55,2.08-6.06,2.71-11.67,2.92-9.35.35-17.3-.81-21.64-3.18-3-1.62-5.63-1.9-18-1.9-9,0-14.48-.38-14.44-1a77.45,77.45,0,0,1,3.9-9c7.89-16.48,19.54-57.47,19.54-68.78,0-6.55-2.91-.29-6.88,14.78-6.19,23.53-15.56,49.3-21.34,58.69-2.7,4.39-3.29,4.81-6.77,4.81-6.66,0-26.38-3.81-36.62-7.07-16.3-5.19-36.8-17.54-47.86-27.83-4.17-3.88-8.51-11.43-8.51-16.1q0-12.07,40.48-55.5c32.29-34.65,45-52.62,62.35-87.84,4-8.05,8.28-16.24,9.61-18.2,4.59-6.77,5.13-12.65,2.56-28-4.13-24.77-2.1-38,8.18-53.11,2.8-4.14,4.49-6.17,5.28-6.29Zm-436.93,1.36,1.68,4.73c2.1,5.92,8.45,14.05,13.65,17.5,4.47,3,12.21,4.27,14.4,2.45,1.51-1.25,1.72.32,3.12,22.42,1.52,24.28,4.31,43.61,8.13,56.5,3.21,10.85,15.9,41.51,22.56,54.5,9.52,18.59,29.83,53.27,38.94,66.5a52.12,52.12,0,0,1,8.29,21.6c.78,5.66-.24,7.17-6.7,9.86-7.05,2.95-15.25,1.35-18.14-3.55-5.57-9.44-35-43.74-49.81-56.7-9.78-8.53-10.15-9-25.52-33.7-8.58-13.77-21-31.85-26.48-41.49-18.36-32.31-31.23-53.07-32.71-52.79-2.65.51-2.18,2.56,2.78,12.11l5,9.55L290,682.13c-18.85,19.67-28,30.89-32,37.7-1.47,2.5-12.27,22.35-13,31-.92,11.1-.3,25.86-.87,54.65-.63,31.73-1.18,42.9-2.31,46.92-.82,2.9-1.81,5.6-2.21,6-.8.81-18.62,1.26-22.6.57-2.26-.39-2.93-1.59-5.7-10.15-3.79-11.72-5.85-23-11.74-64.38-4.3-30.21-4.46-32.15-3.45-42,1.86-18.28,5.47-34,11.33-49.16,3-7.83,8-21.2,11.09-29.7s8.59-23,12.24-32.14l6.65-16.69,4.24-1.62c6.69-2.55,12.91-7.88,15.44-13.22,1.25-2.64,2.33-4.89,2.41-5a28.56,28.56,0,0,1,5.08,1.27c7.42,2.24,20.93,2.89,30.53,1.49,15.82-2.31,30.57-8.14,45.52-18Zm-98,16.09a4.94,4.94,0,0,1,2.85.77l2.55,1.34-2.86,4.25a36.76,36.76,0,0,1-7.71,7.7c-2.67,1.9-5.29,3.45-5.82,3.45-1.31,0,0-11,1.6-12.84a19.24,19.24,0,0,1,5.45-3.36A13,13,0,0,1,249.67,591.14Zm60.1,78.29,7.77,13.87c14.2,25.34,24.1,41.66,37.5,61.86,11.66,17.56,14.76,21.46,25.44,32,6.7,6.6,17.2,17.51,23.34,24.25L415,813.66l6,6.5,5.23,6c2.88,3.3,6.54,7.33,8.14,9l2.9,3,.41,22.53c.22,12.39.15,23.88-.15,25.53s-2.28,5-4.39,7.45l-3.84,4.45h0l-2.07,2.81-4.35-.21H256l-1.52-2.95a15.86,15.86,0,0,1-1.52-6.12c0-3.23-5.83-21.81-8.35-26.62-1.23-2.33-1.17-3,.43-5.73,3.87-6.55,4.91-18.63,5-58,0-20.42-1-43,.77-49.63,4.48-16.74,12.56-31.75,15.31-35.21,6.89-8.63,26-29.63,35.65-39.14ZM460.9,832.59h0c.78,0,1.75,1.3,4.05,4.83a77.63,77.63,0,0,0,7.79,9.88c3.93,4,4.08,4.44,4.77,12.72s-.31,21.24-2.72,34.38h0l-1.14,6.25H454.82c-10.35,0-18.82-.28-18.82-.62a18.26,18.26,0,0,1,3-4c1.65-1.88,3-4.13,3-5,0-1.31.78-1.46,4.54-.9,2.5.38,6.88,1.29,9.75,2s5.59,1,6.06.54c2.34-2.29-9.28-8-16.28-8H443.5l-.17-19-.17-19,2.14,1.5c3.2,2.24,10.88,1.93,14.06-.57,3.36-2.64,3.61-5.48.39-4.42a42.17,42.17,0,0,1-6.38,1.21c-3.56.4-4.6,0-7.5-2.6l-3.37-3.06,4-.05c4.42-.06,11.25-2.78,13.36-5.33.38-.46.69-.74,1.05-.74Zm400.61,27.17c1.16.07-2.23,6.32-4.68,8.39a9.8,9.8,0,0,1-7.16,2.47c-4.17,0-7.67-1.34-7.67-2.88,0-.45,4.16-2.34,9.25-4.2s9.57-3.53,10-3.71a.63.63,0,0,1,.29-.07ZM686,861.65h0c1.5,0,10,4.32,10,5.08,0,.37-1.41.95-3.13,1.3-4,.8-6.37.79-7.21,0-1-1-.78-6.33.31-6.33ZM238.5,864l2.8,7.56c3.14,8.46,7.69,24.63,7.69,27.32,0,1.6-1.47,1.75-17,1.75H215l-2-3.85c-2.28-4.47-7.47-9.29-13.07-12.15l-3.94-2,8.1-8,8.09-8,2,2.49c2.83,3.6,7,5.46,12.3,5.46s8.49-1.37,8.49-3.54c0-1.11-1.36-1.46-5.64-1.46-4,0-6.63-.62-9-2.09a19.3,19.3,0,0,1-3.36-2.35,51,51,0,0,1,7.25.19,44.74,44.74,0,0,0,10.75-.47Zm464,5.56h0c1.47,0,3.62.72,8,2.2,16,5.37,26.31,7,48,7.58l20.1.53,6.6,1.25a.93.93,0,0,1,.68,0c.5.16,1,.29,1.51.43l.11,0h0A92.21,92.21,0,0,0,812,885.07c9.68.08,10.87-.13,15.37-2.67,2.68-1.51,5-2.75,5.15-2.75a22.92,22.92,0,0,1-1.19,4.75,29.33,29.33,0,0,0-1,10.5l.48,5.75H710.1l-2.66-3.48c-1.55-2-5.11-4.63-8.53-6.25L693,888.15l.61-4a26.44,26.44,0,0,1,2-6.69,12.81,12.81,0,0,0,1.38-4c0-.73,1.16-2,2.59-2.9a4.84,4.84,0,0,1,2.94-.95Zm-21,3.53a2.7,2.7,0,0,1,1,.1,40.35,40.35,0,0,0,5.17,1.14l3.17.5-1.42,4a24.7,24.7,0,0,0-1.42,6.4c0,2.14-.44,2.37-4.44,2.37-5.38,0-9.56,1.46-9.56,3.34,0,1,2.17,1.52,8.44,1.91,8.47.53,15.89,3.05,18.6,6.31,1,1.25-1.41,1.44-18.55,1.44H662.75l.62-3.12C665.31,887.86,676.17,873.59,681.51,873.12Zm177.58,2.2c.85,0,1.23.7,1.89,2.3a20.72,20.72,0,0,0,4.09,5.61c3.23,3.1,3.68,4.43,1.47,4.43-2,0-9.54,7.32-9.54,9.28,0,2.81,2.08,3,4.83.44a32,32,0,0,1,7.49-4.58l4.82-2.1,8.93,4.49c4.91,2.47,8.93,4.7,8.93,5s-12.39.48-27.53.48c-24.08,0-27.61-.19-28.14-1.56-2.23-5.81,4.16-24.28,8.17-23.59,6.86,1.16,9.8,1.25,12.39.34a6.49,6.49,0,0,1,2.2-.52ZM190.63,887.56a5.66,5.66,0,0,1,1.67.2c4.46,1.2,12,6.52,14,9.85l1.81,3H188.05c-11,0-20.05-.22-20.05-.48s1.91-1.45,4.25-2.63,7.17-4,10.75-6.34C187,888.62,188.94,887.63,190.63,887.56Z" class="cls-10" id="path1445"></path><path d="M258.54,356A7.55,7.55,0,0,1,251,363.5h0a7.55,7.55,0,1,1,7.54-7.55Z" class="cls-8" id="path7004-5-5-1-7-6-7-12-0-4"></path><path d="M819.74,307.62a7.55,7.55,0,0,1-7.55,7.54h0a7.55,7.55,0,1,1,7.55-7.54Z" class="cls-8" id="path7004-5-5-1-7-6-7-12-0-1"></path></svg>