<svg viewBox="0 0 1080 1080" xmlns="http://www.w3.org/2000/svg" id="payment_method"><defs><style>.cls-1{fill:#f9f1cb;}.cls-2{fill:#e8a1a4;}.cls-3{fill:#9a702d;}.cls-4{fill:#f37a81;}.cls-5{fill:#c0a9d1;}.cls-6{fill:#f2d0b9;}.cls-7{fill:#72ccd1;}.cls-8{fill:#efca87;}.cls-9{fill:#483613;}</style></defs><title>payment method</title><path d="M1030.84,919.61c0,11.84-98,22.73-255.8,28.46s-350.6,5.37-503.31-.93S30.49,929.61,40.57,917.79l494.75,1.82Z" class="cls-1" id="path2212"></path><path d="M713.13,368.44a7.55,7.55,0,1,1-7.55-7.54A7.55,7.55,0,0,1,713.13,368.44Z" class="cls-2" id="path7004-5-5-1-7-6-7-12-0-1-2-5-0-8-2"></path><path d="M915.37,699.87s-83.84-9.91-104.46,1.61-9.91,51.7-19.82,71.25a181.77,181.77,0,0,1-21.43,32.95s98.05.18,109.6-4.55,25.19-15.53,31.44-35.23S915.37,699.87,915.37,699.87Z" class="cls-1" id="path2635"></path><path d="M879.26,812.41s-25.19,6.81-70.64,5.3-55.69-1-56.64,11.36-2.84,47.73-2.84,47.73,20.46-5.49,23.68,9.09-4.36,32.2-4.36,32.2H885.7s7.58-21.6,4.17-53.22S879.26,812.41,879.26,812.41Z" class="cls-1" id="path2637"></path><path d="M646.87,857.48c-1,0-6.44-18-22.73-.56s-19.32,36.18-81.07,17.23-90.53-9.09-102.65,1.9-16.67,41.66-16.67,41.66h223.5Z" class="cls-1" id="path2639"></path><path d="M461.63,678.5s-45.46-4.36-49.06,11.74S415.44,777,423,779.34s37.48-57.27,39-62.58S461.63,678.5,461.63,678.5Z" class="cls-1" id="path2641"></path><path d="M159.75,692.64s15.8,32.41,38.57,33.75,112,0,112,0,18.48-27.59,20.09-56.52-5.89-38.3-5.89-38.3-1.61,18.62-4.42,25.71-11.25,7.91-11.25,7.91l-2.15,23s2.28,7.1-18.88,8.71-113.7.8-128-4.29Z" class="cls-1" id="path2643"></path><path d="M186.27,392.64s-.54,25.72,21.42,28.53,92.28,4.28,105.81-8.44,24-41.38,23.44-54.11-.94-21.83-2.82-21.83-5.89,7.1-17.81,7-17.14-1.61-18.75,1.61-1.88,41.38-5.89,50.49-16.08,10.58-31.75,10.44-47.81,1.6-58.93-1.87-14.73-11.79-14.73-11.79Z" class="cls-1" id="path2645"></path><path d="M452.16,270.71s9.85,18.75,31.06,21.78,108.34,0,115.54-6.25,19.31-35.42,15-54-12.88-24.62-12.88-24.62-1.33,51.52-7.58,57.77-78.22,7.2-94.7,8.52S456.89,274.31,452.16,270.71Z" class="cls-1" id="path2647"></path><path d="M237.75,342.31s15.15,11.74,32.58,18,24.82,2.84,24.82,2.84V344.2Z" class="cls-1" id="path2649"></path><path d="M260.46,653.27s11.52,23.84,29.2,26.52,19.28,0,19.28,0V664.52s-41,3.21-48.48-11.25Z" class="cls-1" id="path2651"></path><path d="M177.24,563h75.48v12.5H176.39Z" class="cls-1" id="path2653"></path><path d="M504.24,145.52H569.4L578,160.37H458.79Z" class="cls-1" id="path2656"></path><path d="M695.64,319.48c-.86-.56-12.22-13.25-11.65-25.56s2.55-7.77,7.48-5.87,22.16-.19,35.6,2.27,31.25,11.27,31.73,24.9,4.26,17.33-.48,23.87-6.72,4.92-12.21,7.19-14.59,21.78-19.23,22.64-3.79-18.56-.19-27.37,14-18.28,10.52-22.16-27.28-6.25-34.57-1.42-7,1.51-7,1.51Z" class="cls-3" id="path2765"></path><path d="M496,515s13.64,12.88,27.65,1.89,13.26-28,13-31.25,21.31,14.58,29.17,17,5.78-5.78,5.78-5.78-6.92-4.54-5.87-6.34,6.91-3.88,13-1.14,19.23,2,11.08-4.26,8.71-19.6,14.3-25.95S620.25,440.7,624.52,439s42.23-8.82,45.08-9.57-7.77,11.18-6.26,18.94A222.69,222.69,0,0,0,669.21,471c1.24,3.41-6.53,23-6.53,23s-18.65,0-25.85,1.23-22.54.94-21.78,7.29,8,38.36,8.33,45.08,7.86,29,11,31.72,6.34,2.28,6.34,3.32-38.83,43.94-48,49.34-22.82,5.39-37.22,4.73-24.53,3.79-21.88-7.19,8.62-20.08,21.59-27.57,27.09-26.23,27.09-26.23,14.39,3.51,15.34-2.08-7.86-1.52-5.31-9.66,11.65-32.77,13.26-40.35-4.07-14.39-4.07-14.39S597,530.76,586.26,539s-17,15.81-37.51,10.41-48.48-29.07-49.62-30.21A35.19,35.19,0,0,1,496,515Z" class="cls-4" id="path2796"></path><path d="M809.57,458.27s-8.44-9.65-27.19-17.41-39.1-22.9-41-11-5.49,30.8-14.86,40-15,.67-15,.67-5.63,23.57-5.76,43.13S704,529.39,717,531.8s20.35-4.82,31.87-12.59,16.74,0,22.1-2.68,12.86,7.77,12.86,7.77-20.49,1.6-21.43,1.47-13.8,3.21-10.58,6.16,27.32,1.74,30.27,19.55,1.47,24.38-6.7,29.07-17.54,2.68-17.54,2.68,32.65,9.78,45.8,7,16.88-13.94,16.07-32.28-2.94-76.47-3.75-84.38-6.43-15.27-6.43-15.27Z" class="cls-4" id="path2798"></path><path d="M666.47,332.55s-6.25-13.07-1.8-23.2S674.42,299,674.42,299s1.23,5.4-1.8,14.49-6.15,19-6.15,19Z" class="cls-3" id="path2763"></path><path d="M616.56,608c-.76,2.08-20.08,33.33-36.74,38.45s-42.62-1-49.44,2.84S486.25,696.11,478.11,708s-27.66,56.64-42.62,73.49-30.11,33.53-32,37.88,2.28,15.91,15.72,23.3,19.89,7.76,25-1.89-1.51-9.85,7.58-17.05,31.06-40.91,32.58-43S515,727.17,519,721.3s32-24.24,32-24.24l91.48-60,18.94-25.57s-13.64,4.73-22.73.76a72.31,72.31,0,0,1-15.15-8.91Z" class="cls-5" id="path2800"></path><path d="M752.55,589.1a71.61,71.61,0,0,1-18.75-6.82c-9.47-5.11-21.21-7.58-34.66,5.69s-44.32,47.54-59.47,76.33S625.08,706,616.75,712.78,604.1,728,616.94,737s18.18,5.69,22.91.38S669,700.76,669,700.76s-1.9-36.27,2.27-41.2,17.81-7.48,21-2.74,4.54,19,4.54,19,30.69-28.79,42-44.51,16-24.53,13.64-42.24Z" class="cls-5" id="path2802"></path><path d="M715.15,396.26a35.2,35.2,0,0,1-12,24.24c-11.92,10.31-18.36,4.29-18.36,4.29s2-13.67,5.23-17S715.15,396.26,715.15,396.26Z" class="cls-6" id="path3580"></path><path d="M762.43,534.87s.13,26-16.61,29.47-27.59,1.74-27.59,1.74,32.41,10.18,45.13,7.23,12.33-13.66,9.65-23.43a28.56,28.56,0,0,0-10.58-15Z" class="cls-6" id="path3582"></path><path d="M518.14,475.28s-11,20.49-26,20.35S471.8,488,471.8,488s16.48,22.77,32.82,23.44,20.89-10.31,22.36-18.35-1.61-17.14-8.84-17.81Z" class="cls-6" id="path3584"></path><path d="M652,545.72s-10.22,6.75-14.43,8.16S636,565.5,637.8,572s6.19,10.41,14.82,7.31,12.47-6.37,10.59-11.34S652,545.72,652,545.72Z" class="cls-7" id="path2902"></path><path d="M550.63,127.88a16.51,16.51,0,0,0-3.32.29c-4.85.9-75.76,24.88-85.88,29.05-14,5.76-16,8.86-17.12,26.51-.62,9.81-1.07,12-2.78,13.71-3.06,3.07-6.81,11.06-9.29,19.8-1.81,6.35-2.21,10.24-2.14,20.81.09,15.64,2.16,24.57,8.81,38,11.29,22.79,30.58,39.27,55.67,47.56,5.69,1.88,10.53,3.53,10.75,3.66s-1.64,4.65-4.16,10-7.78,17.39-11.72,26.71-8.85,20.79-9.15,21.27a.43.43,0,0,1-.38.19l3.8,7.52a2.55,2.55,0,0,1,.65-1.94c1.13-1.29,7.78-16.48,25.94-58.73l1.61-3.75h12.69c19.74,0,31.86-3.24,47.81-12.71a90.3,90.3,0,0,0,29.92-29.33c18.6-28.76,20.06-61.59,3.54-79.87l-3.46-3.84V188.93c0-7.63-.5-15.67-1.11-17.85-2.13-7.67-10.59-13.49-19.59-13.52-3,0-3.57-.64-9.3-10.44-7.8-13.34-14.23-19.13-21.79-19.24Zm-1,6.1c7.12-.15,11.44,4.39,17.63,15.32h0l4.1,7.25-44.7-.08-44.7-.08,23-7.75c12.65-4.26,26.38-9.12,30.5-10.8,5.94-2.41,10.44-3.78,14.17-3.86Zm-5.45,29.22c42.9-.06,44.24.52,48,4.63,3.27,3.53,5,11.22,4.58,20.22-.21,4.4-.79,22.35-1.28,39.91-1.18,41.7.07,39.81-26.56,40.24-8.8.14-24.77,1-35.5,1.86-21.91,1.8-65.65,2.81-71,1.63-10.13-2.24-11.19-5.15-12.1-33.14-.39-12.38-.76-31.36-.81-42.17-.08-17.09.15-20.23,1.77-24,3.92-9.13,2-8.88,71.8-9.1l21.06-.06Zm6.78,11.35c-3.09,0-9.18,6.38-10.64,11.15-2,6.53,1.17,14.7,6.53,16.87a13.29,13.29,0,0,0,3.61.89c2.08.06,9.6-3.45,10.48-4.89.52-.83,1.57-.39,3.52,1.48,5.65,5.41,14.91,3.78,19.82-3.5,4.37-6.49,1.62-14.66-6.32-18.73-1.65-.85-6.13-4.6-10.53-.63l-4,3.65-2.22-2.08A16.51,16.51,0,0,0,550.92,174.55Zm1.15,6.17c2.48.08,6.36,3.89,6.36,6.47a11.06,11.06,0,0,1-3.92,8.08h0c-2.18,1.67-5.59,1.58-7.06-.19-3-3.56-.07-13.48,4.15-14.32a1.8,1.8,0,0,1,.47,0Zm18.73,1.95a9,9,0,0,1,2.9.79c6,2.3,7.51,7.53,3.09,11-3.15,2.48-5.66,2.64-7.8.5-1.84-1.85-2-4.9-.47-9.28C569.27,183.55,569.71,182.68,570.8,182.67Zm-85.65,3c-1.86,0-4.13.05-6.9.13-14.25.43-18.12,1.51-15.72,4.41,2,2.4,30.13,1.47,32.68-1.09.4-.39-.18-1.38-1.28-2.21s-3.19-1.27-8.78-1.24ZM265.87,204.73c-21.1,0-66,1.66-68.94,2.79-4,1.54-8.21,5.63-10.83,10.53-1.88,3.5-2.19,6-2.5,19.63l-.35,15.64-4.16,1.86c-5.62,2.51-18.18,15.17-24.15,24.35a134.68,134.68,0,0,0-16.24,35.74c-2.28,8.52-2.61,11.77-2.64,25.28,0,17,1.58,26.06,7.58,42.73,6.79,18.87,24.31,39.38,43,50.39,15.11,8.88,30.31,12.64,54.79,13.55,19.34.73,26.85-.5,41.26-6.7,18.4-7.93,27.5-15.5,38.16-31.77,3.67-5.61,6.76-10.2,6.86-10.2s7.25,1.34,15.9,3c26.08,4.93,72.56,10.88,86.27,11l3,0,6.68-2.67-1.88-5.12c-.31-.85-5,.88-15.53,0-24.95-2.06-86.34-11.14-89.79-13.27-.82-.51-.75-1.62.29-4.1.78-1.87,2.73-7.9,4.32-13.4,2.65-9.11,2.9-11.33,2.86-25,0-15.69-1.82-25.33-6.33-34.32a34.5,34.5,0,0,1-2.56-9.18c-.39-3-2-15.59-3.61-27.93-1.94-15-3.38-22.92-4.35-23.89s-4.84-1.6-13.53-1.95c-6.64-.28-12.11-.55-12.15-.61s-.4-7.33-.79-16.14c-.86-19.62-2-22.56-10-26.66A38.87,38.87,0,0,0,275.85,205c-1.52-.19-5.12-.27-10-.26h0Zm177,.32,1.19,24.5c1.42,28.92,1.89,33.13,4.36,38.72,4,9.15,12.54,10.88,48.34,9.9,13.84-.38,29-1.11,33.66-1.61s18.63-1.21,31-1.57c24.79-.71,28.46-1.27,33-5.09,5.52-4.64,6.15-7.62,7.08-33.22.46-12.86,1-23.55,1.23-23.77s1.8,2.66,3.52,6.39c11.6,25.18-.13,62-27,84.89-10.36,8.81-26.84,16.09-40.27,17.8-16.11,2-28.11,1-40-3.36-21.52-8-34.83-17.11-45.62-31.37C435.68,264,431,235.77,440.54,211.05Zm-180.14,6.27c15.89,0,17.31.43,20.26,2,2.23,1.15,4.63,3.37,5.34,4.92,1.31,2.87,3.36,30.12,2.39,31.7-.3.47-7.57.75-16.16.61-30.62-.51-35.44-.23-39.23,2.3-2.49,1.67-3.88,3.73-5.2,7.7-1.69,5.06-1.73,7.56-.72,38,1.19,36.15,1.88,41.64,5.63,45.16,2.3,2.15,3.71,2.43,15.71,3,7.25.37,19.6.72,27.44.77l14.25.09,0,9.75c0,15.75-1.79,33.19-3.74,37.12-3.46,6.95-4.58,7.27-28.89,8.2h0c-12,.46-28.15.8-35.85.75-24.4-.15-29-1.45-33-9.39-2-3.85-2-5.65-1.75-86.64.15-45.52.66-83.76,1.16-85.06,1.61-4.25,6.14-8.68,9.91-9.67,2-.53,20.55-1.07,41.18-1.2C250.54,211.36,257.44,211.32,262.73,211.32ZM503.89,221c-.49,0-1.12.35-1.88,1.12-1.61,1.6-2.21,9.64-1,12.86a2.39,2.39,0,0,0,1.89,1.58c1.85,0,2.5-2.36,2.5-9C505.42,223.15,505,221.07,503.89,221Zm34.13.65c-.86,0-1.66.93-2,2.66-.78,3.6.87,12.28,2.54,13.31h0a2.33,2.33,0,0,0,2.1.31c1.13-.69,1-10.72-.17-13.81-.65-1.68-1.57-2.5-2.43-2.47Zm-53.41.15a1.49,1.49,0,0,0-1.25.82c-1.05,1.66-1.26,11.28-.27,12.27,2.06,2.07,4.33-2,4.33-7.78C487.42,224.17,486,221.81,484.61,221.79ZM232.35,222a22.15,22.15,0,0,0-4.08.27c-4.44,1.14-4.65,4.43-.35,5.37,1.65.36,10.2.59,19,.51,13.89-.12,16-.36,16.3-1.77a2.24,2.24,0,0,0-1.47-2.31C259.09,223.1,240.92,222,232.35,222Zm234.6.05c-2.43-.05-3.39,5.83-1.46,12.77.77,2.74,1.54,3.72,2.75,3.49,2.48-.47,3-12.86.62-15.22a2.94,2.94,0,0,0-1.91-1Zm87.78,1a3.33,3.33,0,0,0-1.8,1.07c-1.31,1.3-1.56,2.64-1.06,5.73a14.72,14.72,0,0,0,1.73,5.34c1.92,2.32,3.82-.51,3.82-5.71C557.42,225.26,556.37,222.92,554.73,223.12Zm16.9.59a2.8,2.8,0,0,0-.49,0c-1.71.24-2.29,1.09-2.54,3.7a20.81,20.81,0,0,0,.28,5.82c.88,3.47,3.73,2.52,4.8-1.62C574.88,227,574,223.77,571.63,223.71Zm-59.82,26.91c-7.08,0-16.62.33-26.81.93-16.09.94-19.92,2-18.05,5,.58,1,5.59,1.11,21.37.67,26.16-.73,37.53-2.59,35.53-5.82-.35-.56-5-.84-12-.81Zm-268.28,5.45,13.57.07c9.25.06,24.82.44,34.59.86l17.77.77-3.63,4a44.58,44.58,0,0,0-6.12,9.46c-2.11,4.63-2.44,6.58-2.14,13.19.48,10.36,3.73,15.88,12.87,21.81,14.07,9.12,16.81,13,17.71,24.82.5,6.61.36,7.36-1.52,8.36-2.61,1.4-47.19,2.21-63.71,1.15-6.6-.42-14.6-.82-17.77-.9-5-.12-5.89-.43-6.64-2.41-1.28-3.38-4.5-65.5-3.67-71,1.44-9.63,8.69-10.19,8.69-10.19Zm74.35,3.48c.85,0,6.64,41.25,6.56,46.75,0,1.66-.77,1.54-5.5-.82-5.1-2.54-11.15-8.39-13.6-13.14-2.69-5.21-2.51-13,.46-19.29C308.11,268.14,315.8,259.55,317.88,259.55Zm-135.67,1c.4,0,.72,29.36.72,65.25v65.25c0,10.18,10.83,16.36,19.64,17.54,7.77,1.05,55.14,1.15,70.53,0,12.92-.93,16.6-2.52,20-8.64,3.36-6,4.46-13.14,5.15-33.44l.62-18.5,13-.73c16.6-.92,19.13-1.4,20.89-3.91,1.35-1.94,1.49-1.73,2.12,3.3a61.92,61.92,0,0,1-.38,12.9c-1.1,7.89-6.65,25.1-10.64,33-4.69,9.24-14.66,23-20.62,28.35-9.82,8.89-28.16,17.53-42.87,20.19h0c-8.86,1.6-8.82,1.6-25.5-.21-17.65-1.92-28.28-4.6-39.15-9.87-33.46-16.25-53.51-49.92-53.57-90a105.66,105.66,0,0,1,1.51-19c4.67-21.59,18.33-45.61,32.5-57.15,2.91-2.37,5.61-4.31,6-4.31Zm91.86,19c-5,0-5.61.26-8.08,3.5-4.44,5.82-5.86,10.33-5.28,16.75.84,9.27,6,16.71,13.4,19.26,10.76,3.73,21.31-5.41,21.31-18.43S287.16,279.55,274.07,279.55Zm-.34,5.46a16.78,16.78,0,0,1,4.86,1.1c11.55,3.83,14.48,18.07,5.22,25.35-4,3.11-8,2.7-11.9-1.22a18.42,18.42,0,0,1-2.7-21.91C270.59,286,271.71,285,273.73,285Zm36.76,43.67c-4.19,0-9.14.69-10.47,1.8s-1.38,1.63-.41,2.8,2.63,1.32,7.77.79c11.34-1.16,13.37-2.21,8.91-4.59-1-.55-3.28-.8-5.8-.8Zm-70,40.87c-7.69,0-9.11,8-9.44,9.48-.89,4,.94,9.27,4.76,11.59s5.82,2.41,9.56.48c5.28-2.73,7.52-10.86,4.57-16.57C248,370.81,245.59,369.55,240.46,369.55Zm.73,6.94c2.51-.13,4.52,2.84,2.9,6.13-1.19,2.39-4.56,3.7-6,2.31-1.14-1.14-.81-5.87.49-7.18A4,4,0,0,1,241.19,376.49Zm187.75,60c.57,2.14-.77,5.32-1.06,6.29-.37,1.24-3.71,7.65-7.42,14.25s-9.9,18.08-13.75,25.5-14.1,25.43-22.79,40c-26.13,43.84-40.38,68.64-49.06,85.41l-8.23,15.9-1.18-5.67c-1.35-6.49-4.22-10.4-9.7-13.19-4.91-2.5-4.93-2.54-5.19-8.73-.44-10.21-3.77-17.38-9.88-21.23-1.89-1.18-3.19-2.85-3.21-4.1-.07-3.29-4.17-8.53-8.41-10.72-3.94-2-14.62-3.49-26.38-3.61-5.8-.07-6.27-.23-6.24-2.32,0-4.47,1-4.79,15.57-5.34,20.11-.77,18.42.17,18.42-10.11,0-10-2.37-16.42-6.86-18.69-2.15-1.1-10.88-1.24-47.14-.72-50.63.73-49.82.6-55.08,8.9-3,4.77-5.92,15.61-5.92,22.16,0,3.85-.15,4.06-3,4.06-6.33,0-15.36,6.91-18.33,14-2.16,5.18-4.63,19.28-4.63,26.41,0,5.4-.34,6.53-2.6,8.64a52.3,52.3,0,0,0-6.42,8.93c-12.33,20.94-17,54.25-10.64,75.27,10.87,35.75,37,61.63,72.16,71.33,8.65,2.39,11.75,2.75,23,2.69,46.61-.24,81-18.19,97.26-50.8,6-11.95,10.76-30.39,12.73-49a57.4,57.4,0,0,0-3.73-24.82l-2.14-5,7.12-14.11c8.84-17.49,23-42.21,49.21-86.08,11.16-18.65,24.67-42.26,30-52.47,10.87-20.67,18-33.44,18.81-33.41.11,0,.48.38.94.91l-.39-1.1ZM844,502.64a76.27,76.27,0,0,0-13.31,1.28c-4,.65-9.93-.08-9.89.88l.24,7.08,11.29-1.32c12.78-1.48,20-1,28.12,2.71,14,6.38,20,17.23,20,36.08,0,13.26-8.41,99.31-10.36,106l-1.25,4.32-27.25.18c-26.82.17-27.23.15-26.63-1.82,1.36-4.47,2.65-19.42,2.22-25.75-.39-5.72-.22-6.76,1.15-6.84l17-.75c13.07-.58,15.53-1,16.64-2.47.75-1,1.61-6.36,2-12.54,1.25-19.13-1.14-21.41-23-22l-14-.36s-10.59,7.13-18.4,7.68l5.13-.15,5.14-.16-.64,6.06c-.35,3.33-.63,9.14-.63,12.9v6.86h-3.83c-2.11,0-4.14-.31-4.5-.67s-.67-6.1-.67-12.75V595.06h0c-5.08-1.53-14-3.06-19.2-4.38,0,.46-4.58,1.82-10.44,1.85-7.17,0-11.07,0-11.92-.94a23.74,23.74,0,0,1,.29,6.27,93.48,93.48,0,0,1,11.2.3l9.17.69-.3,3c-.27,2.68-.81,3.14-4.8,4.1-6.26,1.5-6.12,4,.24,4.38l4.76.31v9.89H765c-6.92,0-12.7-.44-13-1-.11-.17-3.08-.52-3-1l-2,6.88h0l6.87.48c3.78.26,7.13.74,7.44,1.06s.61,5.17.64,10.8h0l0,10.22-16.39.27-16.4.28h0l-7.6,6.24V655a2.16,2.16,0,0,1,1-.54c.62,0,7.61,0,13.92.06,10.84.1,11.68.26,15,2.81l3.52,2.69-9.5.64h0c-5.22.35-13.68.69-18.8.75l-11.17.11-9.07,9.26c-.24.25.35,2.73-.13,5s-1.17,13.14-1.5,24c-.42,13.6-1,19.71-1.71,19.61s-2.16-.34-3.44-.58l-2.33-.44.69-19.67.69-19.67.43-9.19c0-.76-.81-3.4-1.13-5.94-.83-6.59-3.31-9.66-9.15-11.28-9-2.51-17-.47-20,5.08-1.49,2.79-1.85,6.57-2.17,23.24l-.4,19.91,1,7.47.43,4.86a23.17,23.17,0,0,1,.13,5.25c-.67.87-10.34,1.29-10.34.44a.75.75,0,0,1,.12-.32l-.06,0-5.85,7.24,9.65-.64c19.66-1.3,44.14-.47,44.14,1.5,0,.48-1.81,1.59-4,2.48-5.62,2.25-6.95,4.46-5.82,9.68A151.92,151.92,0,0,0,703.66,763c2.65,6.15,2.86,7.33,1.88,10.62a33.9,33.9,0,0,0-1.11,8.08v4.39l-9.25,0c-16.7.08-19.25,1.49-20.42,11.33-.33,2.81-1.28,5.68-2.11,6.37-1.67,1.39-30.36,2-40.11.89l-5.4-.63h0l.63,5.63h0l3.08.68c1.69.38,12,.69,23,.69h19.89L673.07,823c-.35,6.55-.64,15.1-.64,19v7.09l-8.39.15c-9.3.16-12.87,1.42-16,5.67-2,2.67-2.12,4.41-2.59,31l-.51,30.71,6.23.49.69-9.23a66.27,66.27,0,0,1,.89-6.88c.11-.09,4.78-.37,10.39-.63l10.18-.47.67,6.27c.37,3.45.37,7.94,0,8.54h0a.7.7,0,0,1-.33.23l7,.9h0l-.4-7c-.19-3.18-.15-6,.15-6.28s5.65-.36,11.86-.19l11.3.32-.3,5.69-.3,6.87,7.48.5h0v-3.25c0-1.78-.29-8.15-.64-12.69l-.65-8.25h15.3l0,4.75c0,5.32,2.59,11.77,5.83,14.66,1.18,1,1.67,3.54,2.14,3.54l22.07.07c.66,0,2.19-3.26,4.47-5.26,7.31-6.43,9.7-13.28,7.45-21.31-2.31-8.25-10.5-13.45-21.23-13.45h-4.75V807.64l56.61-.06c48-.06,61.16-.45,77.75-2.32,1.64-.18,2.27,1.8,5.21,16.29,5.16,25.46,6.71,39.25,6.79,60.5.08,18,0,21-2.38,26.73-1.36,3.29-4.16,6.76-3.47,6.73l10.3-.43c2.08-.08-2.09-.72-2-1.31a8.22,8.22,0,0,1,1.34-3.22c.55-.67,1.47-8.23,2-14.69,1.79-20.37-1.92-55.36-8.66-81.74a102.05,102.05,0,0,1-2.3-10c.13,0,2.83-1.37,6-3,8.34-4.16,15.63-12.52,21.73-24.9,6.29-12.76,8.78-22.48,10.17-39.72,2.93-36.43-2.87-59.31-17.71-69.87-2.25-1.6-3.12-2.82-2.53-3.54.95-1.15,2.78-9.43,11-49.6,6.38-31.17,7.06-35.64,7.06-46,0-14.74-3.88-26.28-12.49-37.25-7.33-9.33-19.83-17.37-31.6-20.31-3.51-.88-10.27-2.91-15-4.52A44.57,44.57,0,0,0,844,502.64Zm35.4,15.91c2.49,0,16.24,10.6,19.78,15.23,11.76,15.4,13.73,30.39,7.82,59.27-1.35,6.6-5,24.35-8,39.45s-5.71,27.56-5.85,27.7c-.63.63-8.62,1-13,.66-3.93-.35-4.71-.73-4.31-2.12.47-1.61,1.31-9.42,7.14-66.19,4.66-45.39,4.39-57.24-1.58-68.6C879.81,521,878.92,518.55,879.39,518.55Zm-602,6.42c3.71-.06,5.67,2.43,7,8.52,1.75,8.17,2.22,7.73-9.15,8.47-5.64.37-11.53.92-13.1,1.23-2.61.52-2.79.37-2.14-1.79,1.16-3.87,6.53-11.74,9.35-13.73a19.06,19.06,0,0,1,6.35-2.52A10.82,10.82,0,0,1,277.34,525Zm-50.17,1.08c18.84,0,34.25.28,34.25.63a3.73,3.73,0,0,1-1.35,1.75c-2.42,2-7.48,14.44-9.08,22.33A87.32,87.32,0,0,0,249.42,565v6.54h-18V567.3c0-11.7-12.18-18.22-23.65-12.67a19.17,19.17,0,0,0-10.59,12.54L196,571.55H180.33l.6-10.25c1.17-20.12,3.85-29.73,9.33-33.43,2.44-1.66,5.52-1.82,36.91-1.82Zm283.88,5.12,0,.05a36.91,36.91,0,0,1-4.14,5.44c-4,4.43-9.48,14.87-12.48,23.75-1.13,3.38-4.51,17.27-7.49,30.89s-7.48,33.75-10,44.76-4.56,20.78-4.56,21.75c0,1.4-.94,1.77-4.75,1.85-15,.34-20.69.52-39.75,1.26-11.55.44-22.5,1.27-24.34,1.83-4.91,1.5-9.6,6.09-12.29,12-2.35,5.21-2.38,5.52-2.35,40.26,0,32.31.19,35.76,2.21,44.91,2.9,13.08,6.27,19.72,13.94,27.42l7.9,7.5,4.46-4.36-.06,0c-2.47,0-11.74-11.07-14.81-16.82-6-11.3-7.49-21.68-7.94-56.18-.43-33.3.36-40.11,5.26-45.4,3.35-3.62,7.76-4.33,30.86-5l20.86-.63,3.25,3.46a20.66,20.66,0,0,1,4.4,8c1.46,5.78,1.46,18.74,0,31.85-.54,4.82.24,18.64,1.3,15.79l5.93-15.93V692.36c0-12-1.72-21.85-4.11-23.32a2,2,0,0,1-1-1.35c0-.83,38.52-2.06,40-2.73l.29-.13,5.55-6.27H494.94v0a109.81,109.81,0,0,0-12.77.63l-3.75.62.64-3.38c.36-1.86,2.19-10.13,4.05-18.38s6.06-27.38,9.33-42.5c7.82-36.25,11.49-46.46,20.16-56.26l4-4.88ZM217.53,558.66c1.85,0,2.86.7,4.85,2.69,2.26,2.26,3.05,4,3.05,6.62v3.58h-12c-6.61,0-12-.25-12-.55a17.69,17.69,0,0,1,1.5-3.45c2.14-4.14,7.77-8.1,12.41-8.71a16.47,16.47,0,0,1,2.19-.19Zm-43.92,2.11a.73.73,0,0,1,.49.12c.29.29.22,2.77-.15,5.52l-.69,5-5.17.71a45.55,45.55,0,0,0-7.35,1.53c-2,.77-2.11.64-1.2-2,1.38-3.95,6.38-8.76,10.52-10.13A12.1,12.1,0,0,1,173.61,560.77Zm81.82,1.74,9.75.6c14.65.91,20.36,2.11,23.1,4.85,1.31,1.31,2.22,2.77,2,3.23s-8.39.74-18.21.59c-15.69-.24-17.78-.46-17.25-1.83a15.93,15.93,0,0,0,.6-4.5v-2.94ZM193.05,578c10.13,0,23.3.09,39.87.26l63,.66,3.14,3.13c3.84,3.82,5.14,8.24,6,20.29l.66,9.25H292.28c-20.78,0-29.2,3-34.09,12.31-1.84,3.5-2.21,5.85-2.24,14.19,0,9.35.18,10.36,3.06,15.5,5.94,10.6,14.52,14,35.33,14h11.59l-.53,10c-.47,8.94-.79,10.27-3,12.49-1.56,1.56-4.46,2.84-7.86,3.49a38.84,38.84,0,0,1-7,.85c-.89-.09-25.91-.48-55.61-.86s-56.48-1-59.5-1.44c-9.21-1.27-12.81-4.05-15.08-11.65-2.17-7.29-3.79-83.71-1.91-90.41,1.62-5.78,5.5-10,10.54-11.35C167.71,578.19,176.16,578,193.05,578Zm631,15.68c1.79,0,3.73,0,5.73.07,18.37.43,18.24.33,17.89,12.58-.37,13,.27,12.26-11.17,12.26h0c-5.39,0-12.44.27-15.69.6-6.52.67-7.41.26-7.38-3.52,0-6.91-.08-6.85,14-7.23,13.08-.36,16.51-1.31,13.52-3.8-1-.85-5.59-1.31-13.94-1.4l-12.42-.15-.54-4c-.3-2.2-.17-4.38.29-4.85s4.33-.56,9.68-.56Zm-31.63,4.8v22.12h-9.65l.31-10.75.31-10.75,4.52-.31ZM312,609.38c.93-.09,2.19.82,3.68,3.09,2.53,3.84,3.57,9.58,3.6,16.63.05,13.48-1,29.06-2.68,30.7-1.18,1.19-25.31,1.74-33.89.77C268.57,659,262,652,262,638.56c0-11.73,3.09-16.56,11.9-18.84,2.19-.56,10.06-1.33,17.49-1.69,15.22-.75,18.35-1.7,18.81-5.73.2-1.74.81-2.84,1.74-2.92Zm-164.08.67.73,29c.82,32.59,1.81,42,5.1,48.46,2.66,5.22,8.12,8.49,16.7,10,8.2,1.44,59.36,3.06,93.83,3,33.27-.09,37.7-.68,42.34-5.65,4.23-4.54,4.83-6.65,4.83-17.08v-9.94l3.93-.63c6.6-1.06,8.62-4.91,10-19l.69-7.08,1.19,4c2.52,8.49.85,27.38-3.94,44.5-2.84,10.13-10.74,26.24-16.29,33.22C294,739.1,272.09,750,244.3,754c-35.12,5.06-60.16-2.61-82.94-25.39-16.5-16.5-27-38-28.57-58.63-1.17-15.13,3.22-35.78,10.94-51.45Zm618.93,16.42,6,.29,6,.29-.08,8.5c-.05,4.68-.63,9.51-1.29,10.75h0c-.94,1.76-2.08,2.25-5.2,2.25-2.31,0-4.16-.52-4.4-1.25a105.61,105.61,0,0,1-.77-11Zm17.33.08h12.48c15,0,14.71-.26,14,13.75l-.47,9.25-7.12-.17c-14.14-.34-20.16-1.2-19.79-2.83,1.34-5.93,1.92-12.33,1.45-15.85Zm-498.45,3a12.79,12.79,0,0,0-5.32,1.53c-5.59,2.89-5.07,10.14,1,14.25,3.77,2.55,7.08,2.36,10.37-.6,3.06-2.74,3.79-5.88,2.22-9.64S289.38,629.38,285.71,629.54Zm-1.39,5c1.52,0,4.23,3.11,3.82,4.37-.59,1.77-3.27,1.88-4.67.19S282.69,634.55,284.32,634.55Zm503.79,19.86c3.31,0,5.48.17,5.74.36,1.2.94-1.73,11.48-5,17.87h0c-1.37,2.7-2.82,4.88-3.22,4.84s-3.21-2.67-6.23-5.83a106.42,106.42,0,0,0-13.32-11.19l-7.82-5.41,17.31-.5c4.77-.14,9.2-.18,12.51-.14Zm18.08.24c2.77.05,3.19,1.73.41,4.25a7,7,0,0,1-4,1.65c-3.11,0-3.05-4.53.07-5.37A13.45,13.45,0,0,1,806.19,654.65ZM681.1,658c3.43,0,7.48.9,8.74,2.16S693,671.38,692.22,672c-.16.14-4.62.54-9.91.9l-9.62.65-.56-4.77c-.64-5.51,1-8.8,5-10.35a12.05,12.05,0,0,1,4-.51ZM197.53,661.8c-8.6.07-19.36.6-21.85,1.33s-3.08,3.88-1,4.84c1.72.8,30.55-.25,34.25-1.25,4-1.09,3.79-3.33-.5-4.47C207.07,661.89,202.69,661.76,197.53,661.8Zm643.57,3.91c24.14.09,50.32,1.81,54.42,3.9,7,3.57,13.13,12.78,16.56,25,2.63,9.33,2.6,44.88,0,56.43-5,21.81-15.12,38.54-27.1,44.72-7.28,3.76-19.52,4.81-62,5.31-22,.27-47.54.62-56.75.79s-16.75.12-16.75-.1a40.28,40.28,0,0,1,4-5c4.78-5.43,10.35-16.44,12.4-24.51a168.62,168.62,0,0,0,2.74-17.88l1.27-12.1,4.42-1.89c2.79-2.07,4.52-4.94,3.81-9.62-1.43-9.31-2.91-17.9-6.21-24.47-2.15-4.27-2.47-6.27-2.47-15.13,0-5.92-.64-12.66-1.53-16.06-.83-3.22-1.32-6-1.08-6.29.72-.72,15.48,13.75,16.14,15.81,1.6,5.05,7.85-.67,12.63-11.56,2.85-6.48,1.83-6.24,29.41-7.15,5.07-.17,10.53-.23,16.11-.21h0Zm-82,.78,2.16,7.28a54.72,54.72,0,0,1,2.16,14.42v7.15l-7.26.36c-9.71.49-16.27,3.9-27.49,14.27-4.81,4.46-10.37,9.34-12.35,10.84h0a21.52,21.52,0,0,1-4.16,2.74c-2.33,0-1.94-37.64.52-49.49l1.24-6,17-.19c9.35-.11,19.52-.47,22.59-.79Zm-137.18,4.89-7,1c-11.54,1.72-23.49,2.46-23.06,1.46h0l-11.81,6.41c.89.56,1.14,4.53.73,10-.35,4.81-.72,8.86-.83,9a17.18,17.18,0,0,1-3.35.88l-3.18.63.62-7.87c.32-4,2.28-11.16,1.12-10.11l-7.49,6.78.11-.05c.25,0,.6,2.48.79,5.5l.35,5.5h-4.61a89.1,89.1,0,0,0-9.5.63c-3.18.41-4.49.3-3.91-.33l-.1,0-11.76,8.22a23.25,23.25,0,0,1,7.35-1.31l7-.51-.42,5.89-.41,5.88-13.58.28c-8.42.17-13.2-.07-13.55-.67l-4.17,7.13c1.75-1.35,17.55-1.79,17-.47-.19.43-1.91,2.89-3.84,5.47l-3.5,4.68-7.75,0c-4.26,0-7.75-.25-7.75-.59,0,0,0,0,0-.06l-.16.23L511.44,741h0l7.49,0c4.13,0,7.49.2,7.47.5a9.54,9.54,0,0,1-1.48,2.47c-1.08,1.42-1.17,2.27-.35,3.25,1.57,1.9,2.87,1.7,11.25-1.62l7.44-3,20.33.6,20.34.61,6.87-9.71c-2.35,3.07-3.11,3.41-7.54,3.41h-4.94l.3-5.25c.17-2.88.65-5.13,1.06-5a62.93,62.93,0,0,0,7.25.25,20.88,20.88,0,0,1,5.05.4l1.2-6.38-11.12,0c-6.12,0-11.72-.39-12.44-.85s-1.4-3.3-1.55-7.4l-.24-6.57,10-.58c5.53-.32,14.2-.69,19.27-.83l9.21-.25,7.27-7.65,0-.31c-.85,1.21-1.94,1.46-4.76,1.46a46.88,46.88,0,0,0-7.5.65c-3.26.65-3.27.64-2.62-2.62a64.91,64.91,0,0,0,.65-9.64c0-5.79.2-6.4,2.25-6.8,2.34-.46,15.84-2,17.57-2.06l.1-.18ZM184,676.8a8.45,8.45,0,0,0-2.65.28c-2.93.93-1.91,3.84,1.61,4.62,2.74.6,7.46.22,8.35-.68.21-.21.14-1-.16-1.8C190.65,678,187,676.88,184,676.8Zm508.69,2-.47,7.4c-.27,4.07-.66,7.55-.88,7.75a72.78,72.78,0,0,1-9.14,1l-8.75.69-.2-5c-.11-2.78-.22-6.44-.25-8.12l-.06-3.07,9.88-.32Zm-101.82,1.76h3.48l-.21,9.5-.2,9.5h-8.54l.6-8.25C586.77,680.55,586.78,680.55,590.85,680.55Zm97.36,20.18a9.38,9.38,0,0,1,2.9.17c.29.29.14,4.27-.32,8.85l-.86,8.31-8.25.29-8.25.29V701.79l8.57-.71c2.35-.2,4.56-.32,6.21-.35Zm68.68,1.35c6,0,6,0,8.27,4.11,2.79,5,5.92,16.92,6.41,24.34l.35,5.48-4.58.66c-8.55,1.25-15.74,5.6-26.48,16-6.17,6-11.84,10.58-14.66,11.82a40.71,40.71,0,0,1-9.08,2.65c-4,.54-4.66.35-6-1.76s-10.69-28.68-10.69-30.31c0-.31,1-.57,2.25-.57,5.66,0,16.22-7,30.87-20.5C743.39,705,749,702.11,756.89,702.08Zm-196,4.58c1.4-.06,1.58.66,1.58,4.07a33.68,33.68,0,0,0,.61,6.57c.54,2,.24,2.25-2.56,2.25h-3.16l.3-6.25c.26-5.61.52-6.28,2.55-6.57.25,0,.47-.06.68-.07ZM736.5,724.2c-8,.07-12.28,10.3-6.15,16.43,1.61,1.61,3.88,2.92,5,2.92,5.35,0,10-4.88,10-10.47,0-3-4.39-8.29-7.29-8.75a10.34,10.34,0,0,0-1.64-.13Zm-191,1.35h9c6.76,0,8.92.32,8.61,1.25-.23.69-5.78,3.52-12.34,6.31-15.9,6.74-15.66,6.66-14.79,5.18.4-.68,2.7-3.82,5.11-7Zm216,2c-3.34,0-6.71,2.27-5.73,3.85s6.2,1.41,8-.43C765.92,728.92,765,727.55,761.56,727.55Zm-188.68,1.26c.08,0,.14,0,.17,0,.24.24.15,2.3-.22,4.57h0l-.66,4.14-8.12-.07-8.12-.06,4.11-1.84a78.73,78.73,0,0,0,8.34-4.5,17.88,17.88,0,0,1,4.5-2.27Zm162.42,1.74c2.92,0,4.48,2.46,3.16,4.94s-2.14,2.56-3.84.86C732.68,734.41,733.13,730.55,735.3,730.55Zm-23.23,6.31a5.52,5.52,0,0,0-1.79.24,3.12,3.12,0,0,0-1.19,4.79c1.83,1.82,6.34-.26,6.34-2.93C715.43,737.78,713.84,736.9,712.07,736.86Zm50.33,7.69c1.8,0,.54,16.69-2,26.68-2.34,9.13-5.61,15.3-12.63,23.82-3,3.57-5.78,6.5-6.28,6.5s-1.05-6.93-1.22-15.4c-.29-13.56-.56-15.64-2.27-17.53l-1.93-2.14,7.93-8c7.77-7.83,15.83-13.92,18.42-13.92Zm-31.67,26.33c3.31.12,3.7,2.41,3.7,8.8,0,4.94-.36,6.81-1.25,6.66-.69-.12-6.11-.36-12-.53l-10.8-.33.3-5.71c.29-5.55.39-5.73,3.3-6,1.64-.15,6.25-1,10.22-1.9A29.83,29.83,0,0,1,730.73,770.88ZM710.42,791.3l3.75.62a100.45,100.45,0,0,0,12,.63h8.26v9.36h0v9.36l-12,.89-12,.89V791.3Zm-14.09.43c2.74,0,5,.25,5.91.73,1.84,1,2.19,2,2.19,6.63v5.47l-7.25-.19c-4-.1-9.39-.34-12-.55l-4.75-.38,0-4.19c0-2.31.36-4.76.81-5.44.77-1.23,9-2.13,15.08-2.07h0Zm-125.75,9.51-11.32.7c-6.23.38-21,1.1-32.83,1.6h0c-24.92,1.07-56.28,1.27-57.14.41-.05,0,.1-.31,0-.27l-.12.05L464.31,809l7.78,1c7.23.92,77.58-.59,93.58-2l5.74-.52Zm108.85,8.62,10.25.4c14.7.57,14.74.59,14.74,5.19a42.85,42.85,0,0,1-.61,6.93c-.55,2.74-1.09,3.14-4.75,3.58-2.27.28-7.62.77-11.89,1.09l-7.74.59V809.86ZM251,815.72c-3.93.08-7.74,7-13.09,15.64a94.15,94.15,0,0,0-13.61,46.26l-.1,8.53-6.17-6.61c-5.12-5.5-6.71-6.61-9.37-6.61-7,0-8,10.59-2.38,26.61a77.53,77.53,0,0,0,5.89,12.89l3.14,5,7.18.5-4-6.78c-6.72-11.32-12.55-31.93-8.77-31.07.82.19,4.95,4.54,9.18,9.66,8.28,10,9.91,11.24,12.11,9,1.11-1.12,1.19-2.15.35-4.89-.59-1.91-1.06-8.2-1.06-14a89.13,89.13,0,0,1,9-38.5c4.69-9.51,10.94-17.34,12.22-15.33s1,15.87-.66,40c-1.13,16-1.27,24.38-.57,32a99.1,99.1,0,0,1,.4,15.08l-.56,4.75,6.25-.54c1.91-.16-.64-3.45,2.09-10.35,4.5-11.41,14.26-23.48,12.5-15.48a130.69,130.69,0,0,0-.85,14.62h0l-.23,11.74,7-.49h0l-.06-16c-.06-19.41.1-18.3-2.87-19.65-3.39-1.54-8.46,1.74-13.45,8.72l-3.86,5.39-.49-3.73c-.26-2-.11-9.8.33-17.23s1.09-21.38,1.44-31c.56-15.76.44-17.85-1.21-21-1.41-2.69-2.55-6.95-4.94-7.18a6.87,6.87,0,0,0-.79,0Zm459.39,2.83h24v8c0,5.75-.38,8.18-1.33,8.54-2.19.84-22.8,2-23.22,1.35-.23-.35-.23-3.29,0-6.53s.43-7.13.47-8.64Zm-7,13.73v18.27H691.59c-6.51,0-12.13-.3-12.5-.66-.93-.93-.84-15.11.1-15.69.42-.26,6-.8,12.5-1.19Zm22.39,10.27h8.9l-.68,9.7c-.38,5.34-.78,9.78-.9,9.87h0c-.8.61-22.44,1.37-23,.8-.39-.39-.71-4.85-.71-9.91v-9.2l3.75-.62a108.47,108.47,0,0,1,12.65-.63Zm-53.39,13v14l-3.26.06h0c-1.78,0-6.51.39-10.5.79l-7.24.73v-4.86c0-4.8,1.27-8.54,3.39-9.95.61-.4,4.81-.75,9.36-.75Zm7,.94,11.75.28,11.75.28.28,8.6.29,8.61-6.19.64h0c-3.4.36-8.81.65-12,.65h-5.86V856.49Zm54,12.26v5.15c0,4.75-.3,5.39-3.75,8.15h0c-3.36,2.69-4.6,3-12,3.36l-8.25.35V869.05l12-.15Zm-82,7.8h22v7.94c0,4.37-.44,8.22-1,8.54s-5.48.88-11,1.21l-10,.62V876.55Zm28,4.5,12,.31,12,.32v14.87h-9.92c-5.46,0-10.54.24-11.3.53-2.32.89-2.78-.54-2.78-8.44Zm67,.64c7.85-.13,14.94,5.88,13.51,13.47C759.25,899,754.5,905,750.5,907c-10.8,5.58-20-.57-18.83-12.62.53-5.54,2.46-8.14,8.19-11.06A14.85,14.85,0,0,1,746.46,881.69Zm-1.29,6.87c-1.94-.15-4.28,3.73-3.35,7.42.35,1.41,1.28,2.57,2,2.57,1.7,0,3.86-6,3-8.34C746.42,889.11,745.82,888.61,745.17,888.56Zm-339.3.44L398,893.31h0c.22.22-.08,4.5-.67,7.68a45.64,45.64,0,0,0-.4,11.18l.66,3.89h6.76l-1-2.56c-1.28-3.35-1.23-7.77.2-15.82.62-3.51,1.13-6.91,2.27-8.68Zm475.07,26.5h0Z" class="cls-8" id="path2895"></path><path d="M690.94,272.6a21.84,21.84,0,0,0-9.6,2.69c-6.06,3.07-9.43,7.33-10.42,13.18-.58,3.44-1,3.95-4.1,4.52-4.8.9-9.75,5.58-12.39,11.71-4.47,10.41-1.25,25.15,7.47,34.13l3.51,3.61,0,14.8c0,19.35,2.06,33.85,5.72,40.56,2.86,5.27,9.19,10.74,12.41,10.74,2,0,2.3.8,1.08,2.56-.4.59-11.08,3.63-23.73,6.76-34.69,8.57-45,11.35-48.13,13C609.2,432.72,599.18,443.17,580,465c-8.2,9.35-15.9,18-17.1,19.31l-2.19,2.33-11.4-9.17c-6.27-5-13-9.85-14.88-10.68-4.47-1.95-11.93-1.26-15.64,1.44L516,470.32l-8-3c-4.42-1.63-10-3.83-12.4-4.89l-4.37-1.94,3.62-4c3.21-3.56,3.62-4.61,3.62-9.38,0-10.71-5.7-36.78-11.05-50.58-1.48-3.78-6-13.74-8.3-15.89-3.35-3.12-6.59-3.42-17.25-1.6-12.52,2.13-20.12,4.95-23.75,8.84-2.63,2.81-2.81,3.52-2.39,9.08.25,3.32,2.67,12.19,2.67,12.19l-5.42,3.4-3.15,2.72c-5.94,5.15-6.8,10.28-3.28,19.69,2.8,7.47,9.36,15.31,10.27,16.6,5.06,7.14,24.77,29.07,39.4,43.82,9.3,9.38,14.26,15.12,14.26,16.5,0,4.06,4.71,9.17,15.25,16.6,2.5,1.77,10.25,7,10.25,7l6.06,3.9c14.13,9.11,28.58,15.1,36.41,15.1,8.78,0,14.53-2.52,26.9-11.79l3.06-2.3-1.58,3.8a188.23,188.23,0,0,1-13.44,25.41c-5,7.33-10.68,12.26-25.91,22.38-13.85,9.2-24,18.88-27.07,25.93-2.29,5.17-2.72,13.66-1,19l1.18,3.57-8.31,9s-16.5,19.42-20.06,23.71-8.88,11.13-11.83,15.22h0c-2.95,4.08-7.5,9.2-9.63,11.81-5.51,6.76-15.12,24.78-16.61,27.76A409.93,409.93,0,0,1,423,779.34h0a75.62,75.62,0,0,1-5.22,6.58c-.87,1-8.94,11.14-8.94,11.14a52.64,52.64,0,0,1-7.1,7.08c-5.12,4.2-8.31,8.84-8.31,12.12a27.58,27.58,0,0,0,1.49,6.62l1.5,4.41-17.51,17.38c-14,13.89-19.92,19-29.55,25.4-14,9.36-17.06,12.7-17.72,19.54-.29,3-1.18,5.49-2.34,6.54a6.23,6.23,0,0,0,.23,9c1.8,1.63,3.64,1.89,12.75,1.85,12.59,0,22.28-2,41.49-8.13,7.46-2.4,9.81-2.7,14.21-4.07,14.92-6.44,20.67-19.17,24.29-31.11A52.74,52.74,0,0,1,426.7,853c.32-.32,3.06-.65,6.09-.74,3.77-.11,6.39-.8,8.32-2.21,3.83-2.79,7.33-10.11,8-16.78.54-5.25.84-5.73,6.37-10.31a97.26,97.26,0,0,0,9.76-9.38S475.9,800.2,478,797.34c5.46-7.42,12.12-18.38,24.16-39.8l9.28-16.5h0l3.84-5.95.16-.23c.1-1.27,4.3-7.81,5.83-9.06l0,0,4.17-7.13s0,0,0-.07c0-.56,3.15-3.11,7-5.66a37.36,37.36,0,0,1,6.65-3.82l11.75-8.23.1,0,0,0c1.23-1.22,15.5-10.77,16.76-11.23l24.19-15.71h0a.12.12,0,0,1,0-.08c1.48-1.49,41.86-28.23,42.16-27.93.14.15-2.53,5.94-6,12.89l-6.2,12.62h0l-2.6,6.53-.1.18h.19c0,1.21-4.14,15.7-5.06,17.7a8.78,8.78,0,0,1-.71,1.29l0,.32L606.36,705,601,710.23c-2.93,2.86-5.9,6.57-6.59,8.25v0l-1.27,3h0l-1.2,6.39c2.39.66,1.77,2.32-1.17,6.17l0,0-6.87,9.71h0l-2.47,5.21c-1.66,3.5-3.36,5.55-5.15,6.23a11.38,11.38,0,0,0-4.52,3.84c-1.68,2.57-1.83,4.69-1.53,22.48l.33,19.64h0l.84,6.13h0v5.52c0,15.94,5.08,35,10.89,40.79,6.07,6.07,16.55,7.56,28.05,4,14.17-4.41,20.08-14.14,16.6-27.34-1.25-4.77-1.32-7-.35-13.19l1.15-7.44h0l-.63-5.63h0l-1.77-8.75c-1-4.81-3.21-13.7-5-19.77-2.49-8.5-3.08-12-2.59-15.58a24.64,24.64,0,0,1,1.19-5.48c.31-.5,2.81-.92,5.56-.92,8.18,0,12.52-3.22,17.37-12.9a79.91,79.91,0,0,1,6.22-10.1l3.51-4.71,5.86-7.24,0,0a36.15,36.15,0,0,1,4.77-5.41l4.89-4.82-1-7.47L655,713.56c-6.44,7.29-13.53,16.59-16.64,21.85-3.88,6.54-6.33,9.58-8.58,10.65h0c-3.66,1.74-3.47,1.74-9.4.14-10.28-2.77-20.94-13-20.94-20.12,0-5,1.82-7.8,10.18-15.45,6.46-5.92,11.81-14.22,11.81-18.33,0-5,13.46-34,22.81-49.14,16.72-27,47.51-60.66,64.5-70.41,4.75-2.73,5.24-2.72,17.85.25,5.69,1.35,12.67,2.75,15.52,3.12l5.17.68,2.33,6.14a35.19,35.19,0,0,1-.11,24.88c-4.82,12.55-26.25,40.49-41.86,54.56-4.38,4-8.24,7-8.47,7.19-.58.39-.51,9.5-.51,9.5l3.59-3.75c2-2.07,25.73-24.32,30.48-31,1.79-2.51,6-7.55,8.9-11.56,0,0,8.92-12.57,11.76-18.15a54.37,54.37,0,0,0,3.48-10.13c.78-3.38,2.52-9.15,1.21-14.14a5.25,5.25,0,0,1-.27-2.5c.54-.55,35,7.6,40.62,7.21h0c7.81-.55,18.39-7.69,18.39-7.69,4.57-1.54,5.61-6.38,5.61-11.1V515.67s-1-14.18-1-17.53c-.06-19.31-6.55-47.36-12.63-54.58-4.25-5.06-29.84-18.21-59.35-30.5-6.32-2.64-11.78-5.07-12.12-5.4s-.88-4.1-1.18-8.35l-.55-7.75h2.56c5.33,0,11.29-9.6,11.29-18.18,0-3,.5-3.69,3.51-5.13,6.67-3.18,9.15-10.78,6-18.33-1.37-3.28-1.34-3.79.35-6.22,4-5.74,5-11.9,2.77-16.26-1.17-2.23-1.14-3.49.22-8.7,4.85-18.61-9.38-34.15-36-39.28a118.4,118.4,0,0,0-17.62-1.25c-6.69,0-11.25-.42-11.25-1a6.24,6.24,0,0,0-6.46-4.58Zm-1,5.23c1.51-.05,1.69,1,1.72,3.55,0,3.24,2.12,3,4.11,2.9l9.3,0c25.41,0,43.41,6.67,49.4,18.41,2.44,4.78,3.51,14.17,2.17,19a14,14,0,0,0,.08,7.7c.94,3.55.78,4.69-1.28,9.1-2.26,4.82-2.55,5.05-6.33,5.05-6.91,0-12.41,4.74-18,15.5v0c-4.6,8.83-4.9,8.81-4.31-.17a55,55,0,0,1,9.2-27.55c2.64-4.08,4.42-8,4.42-9.74,0-3.94-5.78-8.62-12.51-10.13-5.42-1.21-9.74-.41-28.19,5.26-10.19,3.12-13.83,2.14-17.51-4.73-3.81-7.11-6-16-5.17-21.3s5.07-10.55,9.91-12.15a12.55,12.55,0,0,1,3-.72Zm-20.57,19.8a.75.75,0,0,1,.64.18,26.25,26.25,0,0,1,1.74,4.85c1.21,4.12,1.11,4.77-1.55,10.51a44.9,44.9,0,0,0-3.45,11.5c-1.06,9.51-2.26,9.67-6.27.82a22.63,22.63,0,0,1,.5-19.87C663,301.94,667.49,297.8,669.38,297.63Zm7,16.92c.41,0,2,1.62,3.51,3.6,5.53,7.27,11.89,7.84,27.7,2.5a112.33,112.33,0,0,1,12.52-3.56c4.37-.74,10.65.56,13.78,2.85,1.9,1.39,1.87,1.53-1.19,5.79-4.41,6.15-9,15.53-10.25,20.82a76,76,0,0,0-1.06,13.14c0,7,.33,9.07,1.89,11,1.74,2.14,2.21,2.25,5.11,1.15l3.18-1.2-.76,3.7c-.41,2-.8,9.59-.86,16.77l-.11,13.07-7,6.93c-7.84,7.74-17.07,19.63-20.45,26.37-2.43,4.84-2.8,10.73-.94,15.2,1,2.33.81,4.32-.9,11.1-4.61,18.43-9.46,49.58-9,57.79l.34,6h-4.23c-3.81,0-4.29-.28-4.82-2.75-2.13-9.94-9.47-21.66-15.55-24.8-3.62-1.88-3.72-4.4-.46-11.58a70.27,70.27,0,0,0,3.61-10.08c.7-2.83,2-5.28,3.37-6.14s4.64-5.17,7.64-9.73l5.44-8.29.52-17.57c.42-14.06.92-18.6,2.49-22.81s2.43-5.25,4.12-5.25c5,0,15.23-4.11,19.41-7.82,6.16-5.46,3.84-8.4-3.3-4.18-5.77,3.39-14.8,6-20.82,6-6.43,0-10-2.18-13.87-8.41-2.7-4.39-4-20.08-4-48.41,0-19.53.16-21.73,2.1-26.25,1.17-2.72,2.47-4.94,2.89-4.94Zm72.12,34.35a4.46,4.46,0,0,1,2.47.69c4,2.14,4,9.53,0,12.19h0c-2.52,1.69-10.6.57-13.5-1.85-1-.83,5.21-8.48,8-9.95a8.12,8.12,0,0,1,3-1.07h0Zm-66.93,1.65a4.26,4.26,0,0,0-4.18,2c-1.25,2.31-.39,6.78,1.77,9.27a5.24,5.24,0,0,0,8.69-1.2c2-4,1.94-4.73-.93-7.6A8.37,8.37,0,0,0,681.62,350.55Zm56.45,17.35a11.45,11.45,0,0,1,3.09.71c2.89,1,3,1.29,2.54,5.25a27.35,27.35,0,0,1-2.65,8.11c-2,3.73-3.68,5.19-4.72,4.15-.56-.56.67-17.48,1.32-18.13a.63.63,0,0,1,.41-.09ZM469.66,384.71c.36,0,.69,0,1,0,4.19.3,4.35.45,7.5,6.81,4.52,9.13,9.73,27.23,12.33,42.84,2.53,15.18,2.15,17.34-3.52,19.71h0a26.24,26.24,0,0,1-8.31,1.45H473.8l0-8.25c0-9.06-1.69-15.52-6.6-24.9l-3-5.64,2.75-4.15c3-4.51,3.59-9.67,1.33-11.19s-10.94-.4-17.69,2.35c-6,2.46-6.31,2.48-7.26.71a25.1,25.1,0,0,1-1.61-6.38c-.72-5.2.31-7,5.25-9s17.21-4.35,22.63-4.36Zm-8.23,21.94a.89.89,0,0,1,.6.18c1,1-.88,5.72-2.25,5.72-2.83,0-2.34,2.8,2.35,13.56,4.57,10.48,4.78,11.34,4.78,20.27,0,9.28,0,9.35-3.25,12.25-4.07,3.64-5.7,3.65-11.29.1-13.06-8.28-25.26-30.48-20.64-37.53C434.1,417.58,457.08,406.53,461.43,406.65Zm269.12,5.4-.54,9a87.62,87.62,0,0,1-8.51,33c-2.15,4.44-4.84,8.91-6,9.94-2,1.82-2.07,1.82-3-.52-.52-1.31-2.58-5.95-4.58-10.31l-3.65-7.94,6.49-9.57a159.86,159.86,0,0,1,13.12-16.56Zm6.77,1.76c.88.49,14.3,6.78,33.11,15.53,31.66,14.73,32.08,15,35.22,21.21,3.68,7.28,6.49,18.7,8.38,34,2.11,17,3.2,86,1.45,91.34-1.92,5.83-5.59,9.44-11.31,11.14h0c-6.11,1.81-10.23,1.8-18.24,0-3.31-.76-9.83-2.09-14.5-3-11-2.06-16.26-3.7-16.77-5.25-.29-.91,1.33-1.25,6-1.25,5.5,0,7-.42,10.41-2.88,5.55-4,7.79-9,7.68-17.24-.1-7.84-3.27-15.66-8.34-20.58-3.47-3.37-8.75-6.3-11.36-6.3a2.92,2.92,0,0,1-2.25-1.15c-1.18-1.91,10.07-.28,15.19,2.2a71.91,71.91,0,0,1,9.62,6c5.08,3.81,6.78,4.15,6.78,1.35,0-1.9-7.61-10.16-10.09-11-1.05-.33-1.91-1-1.91-1.54,0-1.43,5.65-1.1,9.66.57,4.77,2,5.54,1.9,5.16-.65-.85-5.68-13.39-9-18.81-5-2.44,1.8-3.75,2-9.18,1.51-6.86-.64-13.34,1.2-14.45,4.1-.51,1.34-3.83,1.54-24.24,1.54-13.25,0-24.3-.44-25.14-1-2.54-1.62-1.66-16.3,2.43-40.51,2-12.09,3.9-22.17,4.13-22.4s1.34,1.68,2.48,4.24c1.63,3.67,2.56,4.65,4.46,4.65,8.83,0,21.76-28.53,23.23-51.26.31-4.84.84-8.65,1.17-8.48Zm-56.82,8.74c.52,0,.93,6.09.93,14.05,0,15.32-.19,16-6.69,25.07-1.93,2.68-3.87,4.88-4.33,4.88-1.69,0-3.4-7.74-3.44-15.52,0-7.06.34-8.8,3.16-14.5C673.43,429.87,678.85,422.55,680.5,422.55ZM670,423c.09,0,.14,0,.16,0,.31.31-.17,1.35-1.05,2.33a54.7,54.7,0,0,0-4.91,8.75c-3.12,6.59-3.31,7.61-3.31,18s.2,11.36,2.89,16.21l2.89,5.21-2.89,7.29L660.92,488l-8.5.61a115.62,115.62,0,0,0-11.59,1.29l-3.09.69-1.16-8.3c-2-14.13-2.73-12.31,9.66-23.05,6.55-5.67,2-7.93-5.87-2.91-2.44,1.55-6.36,4.28-7.83,6.69a18.11,18.11,0,0,0-2.74,13.42c.89,5.2.91,10.94,1.23,12.63l.57,3.07-9.34,2.48c-12.19,3.23-12.88,4.36-9.86,16,1.16,4.47,3.68,15.82,5.61,25.23,3.52,17.23,8.38,35.91,11.15,42.88,1,2.46,2.32,4,3.88,4.36,1.31.33,2.39.91,2.39,1.29,0,1.24-28.56,31.44-35.4,37.44-3.66,3.21-9,7.74-12.36,9.27a30.13,30.13,0,0,1-13.92,3.2l-14.3-.39c-20.78-.58-21.84,1-28.78,1.37,0,0-7.19,1.38-7.19-3.25a28.39,28.39,0,0,1,3.35-13c3.51-6,12.67-14.26,24.69-22.32s19.16-14,23.28-19.31l2.88-3.72L581,576c4.14,2.82,9.72,3.94,12.39,2.51,2.86-1.52,2.57-4-.46-4s-11.52-4-11.52-5.39c0-.53,2.19-5.28,4.88-10.55,8.17-16,12.56-29.22,20.48-61.56,8.77-35.87,8.76-35.79,6.37-36.29-2.86-.6-5.31,6.51-13.36,38.68-8.32,33.28-7.2,31.08-20.37,40.07-16.42,11.21-22.95,11.52-42,2C530,537.81,505.7,522,500,517.13c-3.57-3-3-4,1.36-2.48,10.82,3.77,24.21-4.54,28.07-17.42,2.57-8.57.64-20.59-3.77-23.48-2.28-1.49-2.31-1.62-.5-2.29,3.82-1.42,7.32.46,20.64,11.1,14,11.21,24.77,18,28.5,18,3.44,0,2.53-2.72-2-6l-4.15-3h3.47c4.53,0,13.64,2.73,16.94,5.08,4.9,3.49,5.52-1.52.69-5.59-4-3.33-6.78-4.43-13.62-5.31l-5.34-.68,20.46-23c11.26-12.65,22.33-24.19,24.61-25.65a26.88,26.88,0,0,1,8.87-3.31c2.59-.37,13.88-2.92,25.07-5.67,10.5-2.56,19.43-4.48,20.75-4.46ZM477.52,462.63c4.38,0,6.42.73,14,4.37,5.2,2.51,14.4,6.27,20.45,8.37l11,3.8,1.39,4.32c2.7,8.41-2.44,20.72-10.17,24.39a20.84,20.84,0,0,1-7.5,1.67c-7.39,0-12.94-4.16-31.21-23.43l-17-17.93L462,467a20.68,20.68,0,0,0,5.25-2.65c1-.84,4.36-1.51,8.23-1.65.74,0,1.42,0,2,0Zm179,32.19a5,5,0,0,1,1.45.1c1.15.44,1.46,2.73,1.46,10.58v10l-7.4-.62c-7-.6-7.54-.5-10,2-2,2-2.6,3.6-2.6,6.75,0,3.53.62,4.78,4,8.16,4.3,4.3,4.59,4.77,2.93,4.77-.58,0-3.15,1.44-5.69,3.19a18.68,18.68,0,0,1-9.77,3.6l-5.14.43-2.23-11.35c-1.22-6.25-3.31-15.48-4.66-20.5-2.92-10.92-2.88-10.36-.63-10.36a68.45,68.45,0,0,0,9.25-1.93c8.45-2.19,24-4.7,29-4.81Zm9.85,11.73c1.35,0,4.72,5,7.84,11.7,2.53,5.41,2.72,6.71,2.72,19.3,0,12.09-.24,14.05-2.39,18.79-1.31,2.91-3.19,5.72-4.18,6.25-2.27,1.21-1.9,1.28-5.52-.93-4.68-2.86-7.43-9.65-7.52-18.65,0-5.16-1.84-9.7-6-12.62-3.25-2.83-5.91-6-5.91-7,0-1.69,1-1.85,11.45-1.85,12.2,0,14.61-.92,10.71-4.07-1.64-1.33-2.16-2.85-2.16-6.34C665.42,508.61,665.84,506.55,666.36,506.55Zm17.72,27.5,3.92.11,34.93.85c17.05.41,32.66,1.15,34.7,1.66,8.6,2.16,14.17,10.42,14.25,21.11,0,6.28-.17,6.94-3.21,10s-3.77,3.27-10,3.32c-13,.12-31.86-3.91-59.52-12.68l-15.77-5,.35-9.67Zm-34.26,7.5c.33,0,.61,2.36.61,5.25,0,5.85,3,13.21,7.41,18.47,3.86,4.58,3.24,8-1.92,10.69-4.17,2.17-17.93,3.46-20.07,1.88-.87-.64-8.48-25.33-8.44-27.41,0-.34,2.26-.84,5-1.1,3.41-.33,6.88-1.65,10.91-4.13A50.21,50.21,0,0,1,649.82,541.55Zm30.94,17c.57,0,23.12,8.12,23.44,8.44.18.17-2.52,2.35-6,4.83-7,5-23.6,20.87-32,30.54-4.23,4.89-6.35,6.52-9.39,7.23-5.55,1.29-13.3,1.1-17.57-.43-4.74-1.7-10.1-4.85-10.55-6.2-.2-.59,3.06-5,7.24-9.74,6.88-7.85,7.94-8.67,11.16-8.67,8.76,0,18.29-5.93,18.29-11.37,0-2.29.42-2.63,3.17-2.63,2.46,0,4.15-1,7.5-4.52,2.38-2.49,4.33-5.19,4.33-6s.15-1.48.34-1.48Zm-56.32,49c.52,0,.95.4,1.55,1a45.92,45.92,0,0,0,6.94,4.77c4.43,2.56,5.93,2.87,13.24,2.83a58.65,58.65,0,0,1,8.25.24c0,.16-3,4.52-6.74,9.68-5.9,8.19-7.58,9.81-13.25,12.82-9.23,4.87-96.62,62.95-107.86,71.67-7.41,5.75-9.78,8.23-11.39,11.9a51.48,51.48,0,0,1-3.81,7.18C510.39,731,503.91,742,497,754c-20.77,36-29.39,48.16-45,63.53-7.54,7.45-8.59,8.9-8.59,12,0,5.62-2,11.14-5,14.19h0c-1.56,1.56-3.88,2.81-5.16,2.81-2.8,0-12.15-3.78-17.17-6.89-7.37-4.55-16.65-17.41-16.65-23.06,0-1.6,2.09-4.26,6.62-8.44,15.85-14.59,38.36-47.53,54.38-79.6,7.14-14.28,13.21-24.32,16.94-28,2-1.94,9.93-11.39,17.73-21s18.25-22,23.25-27.64l9.08-10.17,6.74-.73c3.71-.4,16-.41,27.25,0l12.44.42c5.07-.05,10.09-.24,14.17-2.78a147.92,147.92,0,0,0,28.46-23.82c5.11-5.51,6.79-7.28,8-7.25ZM597.13,736.46c.29,0,.52.23.75.62,2.26,4,9.15,10.74,12.83,12.62,2.95,1.5,3.71,2.38,3.17,3.66-1.56,3.69-1.43,12.13.31,20.43l1.84,8.75-3.24,3.14a29.84,29.84,0,0,0-5.33,8c-1.15,2.67-2.31,4.86-2.58,4.86s-2-2.39-3.89-5.32c-3.64-5.7-9.78-11.68-12-11.68-1.34,0-1.59-1.54-3.22-20.28l-.6-6.79,5.82-9.61C594.78,738.64,596.25,736.48,597.13,736.46Zm-18.92,24.09c2.4,0,3.54,8.83,4.22,32.5.76,26.76,2.22,37.35,6.23,45.45,2,4,2.69,4.58,5.94,4.85,2.81.24,4.66-.4,7.79-2.66a23.37,23.37,0,0,1,8.06-3.65A22.73,22.73,0,0,0,618,834c4.44-3,4.47-3,4.47.34,0,7.82-4,13.67-11.38,16.76a42,42,0,0,1-10.5,2.13c-5.6.43-7.32.15-11.12-1.82s-4.84-3.19-6.66-7.82c-4.15-10.55-5.33-19.85-6.32-50.16C575.53,765.72,575.81,760.55,578.21,760.55ZM589,788c.24-.08.57.16,1,.52,3.24,2.66,11.43,16.11,13,21.3,3,10,1.3,21.42-3.81,25.94-1.71,1.51-3.48,2.75-3.92,2.75-2.57,0-5.84-18.34-6.5-36.49C588.29,791.26,588.22,788.26,589,788Zm28.5,1.51c1.4,0,3.47,12.69,3.43,21,0,9.49-1.43,14.69-4.73,17.78a13.86,13.86,0,0,1-5.12,2.79c-2.81.69-2.87.63-2.08-2.18.44-1.59.89-7.62,1-13.39s.52-11.86,1-13.5c1-3.69,5.6-12.5,6.56-12.5ZM400.32,831.7l1.89,3c2.31,3.64,10.3,10.36,15.45,13,3.68,1.88,3.75,2,2.41,4.66a75.14,75.14,0,0,0-3.15,8.22c-4.85,15-11.31,23.4-22,28.46-7.39,3.52-10.4,3.81-14.87,1.44s-15.27-4.85-20.9-4.88c-4,0-4.7-1-2.18-3.08,2.06-1.71,5.43-8.35,5.43-10.71,0-1.07,8-9.94,18.95-21Zm-45.47,43.18a.4.4,0,0,1,.3.06c.66.66-2.88,5.5-6.38,8.72a20.81,20.81,0,0,1-6.25,3.75c-5.79,1.94-6.51,1.2-3.1-3.14,1.93-2.45,13.3-9.27,15.43-9.4Zm2,16.68c6.24,0,16.89,2,18.29,3.36.55.55-4.88,2.12-14.69,4.23-8.39,1.81-24.14,2.79-25.83,1.61-1-.71-.77-1.56,1.21-3.91C338.82,893.29,345.77,891.53,356.84,891.56Zm524.1,22.22h0c-1.08.71-82.15.94-113.93.55-7.75-.1-131-.25-131-.25l-111.37.23-120.27.26h-6.77l-60.33-.26L277,914.05h0l-149.3.5-87.7.5s-5.72.42-5.72,2.5,5.72,2.5,5.72,2.5l60.5.5h0c92.33.76,882.78.89,913.5.14l27-.64s4.84-.69,4.84-2.5-4.84-2.5-4.84-2.5l-76-.5c-52.77-.35-84-.77-84-.77Z" class="cls-9" id="path2627"></path></svg>