<svg height="1024" node-id="1" sillyvg="true" template-height="1024" template-width="1024" version="1.1" viewBox="0 0 1024 1024" width="1024" xmlns="http://www.w3.org/2000/svg" xmlns:xlink="http://www.w3.org/1999/xlink"><defs node-id="36"></defs><g node-id="95"><g node-id="96"><path d="M 0.00 0.00 L 1024.00 0.00 L 1024.00 1024.00 L 0.00 1024.00 Z" fill="none" group-id="1,2" node-id="41" stroke="none" target-height="1024" target-width="1024" target-x="0" target-y="0"/><path d="M 616.49 222.50 L 622.83 248.24 C 623.54 251.13 625.79 253.38 628.68 254.09 L 654.42 260.44 C 655.31 260.66 655.93 261.46 655.93 262.38 C 655.93 263.30 655.31 264.10 654.42 264.32 L 628.68 270.67 C 625.79 271.38 623.54 273.63 622.83 276.52 L 616.49 302.26 C 616.27 303.16 615.47 303.79 614.54 303.79 C 613.62 303.79 612.82 303.16 612.60 302.26 L 606.26 276.52 C 605.55 273.63 603.29 271.38 600.40 270.67 L 574.66 264.32 C 573.77 264.10 573.15 263.30 573.15 262.38 C 573.15 261.46 573.77 260.66 574.66 260.44 L 600.40 254.09 C 603.29 253.38 605.55 251.13 606.26 248.24 L 612.60 222.50 C 612.82 221.60 613.62 220.97 614.54 220.97 C 615.47 220.97 616.27 221.60 616.49 222.50 Z" fill="#ccdeff" fill-rule="nonzero" group-id="1,2" node-id="43" stroke="none" target-height="82.828384" target-width="82.78754" target-x="573.14624" target-y="220.9658"/><path d="M 155.62 418.94 L 153.62 440.21 C 153.41 442.60 154.53 444.90 156.54 446.21 L 174.47 457.83 C 175.08 458.23 175.34 459.00 175.11 459.69 C 174.87 460.38 174.20 460.83 173.47 460.78 L 152.19 458.83 C 149.80 458.62 147.50 459.74 146.19 461.75 L 134.58 479.68 C 134.20 480.35 133.40 480.66 132.67 480.42 C 131.93 480.18 131.48 479.45 131.58 478.68 L 133.53 457.40 C 133.75 455.02 132.63 452.71 130.62 451.40 L 112.69 439.79 C 112.02 439.41 111.71 438.61 111.95 437.88 C 112.19 437.14 112.92 436.69 113.69 436.79 L 134.96 438.74 C 137.35 438.96 139.66 437.84 140.96 435.83 L 152.58 417.90 C 152.91 417.12 153.78 416.72 154.59 417.00 C 155.39 417.27 155.84 418.12 155.62 418.94 Z" fill="#ccdeff" fill-rule="nonzero" group-id="1,2" node-id="45" stroke="none" target-height="63.940857" target-width="63.637024" target-x="111.706345" target-y="416.7228"/><path d="M 430.36 144.69 L 446.49 163.15 C 448.30 165.22 451.11 166.11 453.78 165.47 L 477.62 159.77 C 478.45 159.58 479.29 159.97 479.68 160.73 C 480.07 161.48 479.90 162.40 479.26 162.96 L 460.81 179.09 C 458.74 180.90 457.84 183.71 458.48 186.38 L 464.19 210.21 C 464.39 211.04 464.00 211.89 463.24 212.28 C 462.49 212.67 461.56 212.50 461.00 211.86 L 444.87 193.41 C 443.06 191.34 440.25 190.44 437.58 191.08 L 413.74 196.78 C 412.91 196.98 412.06 196.59 411.67 195.83 C 411.28 195.08 411.45 194.15 412.09 193.59 L 430.55 177.46 C 432.62 175.65 433.52 172.84 432.88 170.17 L 427.17 146.34 C 426.97 145.51 427.36 144.66 428.12 144.27 C 428.87 143.88 429.80 144.05 430.36 144.69 Z" fill="#ccdeff" fill-rule="nonzero" group-id="1,2" node-id="47" stroke="none" target-height="68.79762" target-width="68.7926" target-x="411.27618" target-y="143.87619"/><path d="M 944.00 703.70 C 944.00 716.95 933.25 727.70 920.00 727.70 C 906.75 727.70 896.00 716.95 896.00 703.70 C 896.00 690.45 906.75 679.70 920.00 679.70 C 933.25 679.70 944.00 690.45 944.00 703.70 Z" fill="#ccdeff" fill-rule="nonzero" group-id="1,2" node-id="49" stroke="none" target-height="48" target-width="48" target-x="896" target-y="679.7"/><path d="M 246.23 284.62 C 267.01 284.62 283.91 267.41 283.91 246.26 C 283.92 238.66 281.69 231.23 277.50 224.89 C 271.32 220.64 264.00 218.37 256.50 218.37 C 255.65 218.37 254.75 218.37 253.68 218.49 C 252.25 218.59 250.91 217.79 250.32 216.49 C 248.88 213.39 247.01 210.51 244.75 207.95 L 243.40 208.03 C 241.97 208.14 240.63 207.34 240.04 206.03 C 239.28 204.37 238.38 202.78 237.36 201.26 C 227.99 194.50 215.31 190.48 201.69 190.48 C 173.36 190.48 150.31 207.69 150.31 228.84 C 150.32 229.76 149.96 230.64 149.32 231.29 C 148.68 231.94 147.81 232.31 146.89 232.32 C 126.11 232.32 109.21 246.40 109.21 263.71 C 109.23 268.71 110.64 273.61 113.27 277.86 C 120.23 282.34 128.34 284.69 136.61 284.63 Z" fill="#80adff" fill-rule="nonzero" group-id="1,2" node-id="51" stroke="none" target-height="94.21321" target-width="174.71463" target-x="109.21" target-y="190.48"/><path d="M 246.23 292.11 L 232.53 292.11 C 230.32 292.11 228.53 290.32 228.53 288.11 C 228.53 285.90 230.32 284.11 232.53 284.11 L 246.23 284.11 C 266.69 284.11 283.33 267.11 283.33 246.26 C 283.33 225.41 266.69 208.42 246.23 208.42 C 245.40 208.42 244.52 208.42 243.46 208.53 C 241.79 208.66 240.22 207.73 239.52 206.21 C 232.52 190.84 213.15 180.52 191.43 180.52 C 163.43 180.52 140.62 197.52 140.62 218.37 C 140.62 220.58 138.83 222.37 136.62 222.37 C 116.16 222.37 99.52 236.21 99.52 253.24 C 99.52 270.27 116.16 284.11 136.62 284.11 L 205.13 284.11 C 207.34 284.11 209.13 285.90 209.13 288.11 C 209.13 290.32 207.34 292.11 205.13 292.11 L 136.62 292.11 C 111.75 292.11 91.52 274.67 91.52 253.24 C 91.52 232.90 109.73 216.17 132.83 214.50 C 135.35 191.02 160.67 172.50 191.43 172.50 C 215.09 172.50 236.43 183.61 245.56 200.40 L 246.23 200.40 C 271.10 200.40 291.33 220.96 291.33 246.24 C 291.33 271.52 271.10 292.11 246.23 292.11 Z" fill="#101129" fill-rule="nonzero" group-id="1,2" node-id="53" stroke="none" target-height="119.609985" target-width="199.81" target-x="91.52" target-y="172.5"/><path d="M 887.51 219.91 C 908.31 219.91 925.22 200.18 925.22 175.91 C 925.27 167.32 923.06 158.87 918.81 151.40 C 912.86 146.60 905.46 143.96 897.81 143.91 C 896.96 143.91 896.06 143.96 894.98 144.05 C 893.47 144.12 892.10 143.18 891.62 141.75 C 890.20 138.26 888.31 134.98 886.00 132.00 L 884.66 132.09 C 883.15 132.16 881.78 131.22 881.30 129.79 C 880.53 127.90 879.64 126.08 878.61 124.32 C 868.49 116.20 855.88 111.83 842.91 111.95 C 814.55 111.95 791.48 131.69 791.48 155.95 C 791.62 158.00 790.10 159.78 788.05 159.95 C 767.26 159.95 750.34 176.10 750.34 195.95 C 750.34 201.61 751.74 207.19 754.40 212.18 C 761.14 217.25 769.34 219.98 777.77 219.95 Z" fill="#80adff" fill-rule="nonzero" group-id="1,2" node-id="55" stroke="none" target-height="108.14548" target-width="174.92883" target-x="750.34" target-y="111.83064"/><path d="M 887.51 227.91 L 873.79 227.91 C 871.58 227.91 869.79 226.12 869.79 223.91 C 869.79 221.70 871.58 219.91 873.79 219.91 L 887.51 219.91 C 907.99 219.91 924.65 200.18 924.65 175.91 C 924.65 151.64 907.99 131.91 887.51 131.91 C 886.70 131.91 885.83 131.96 884.78 132.05 C 883.02 132.20 881.37 131.19 880.72 129.55 C 873.63 111.82 854.32 99.91 832.65 99.91 C 804.65 99.91 781.79 119.65 781.79 143.91 C 781.79 146.12 780.00 147.91 777.79 147.91 C 757.31 147.91 740.65 164.06 740.65 183.91 C 740.65 203.76 757.31 219.91 777.79 219.91 L 846.37 219.91 C 848.58 219.91 850.37 221.70 850.37 223.91 C 850.37 226.12 848.58 227.91 846.37 227.91 L 777.79 227.91 C 752.90 227.91 732.65 208.18 732.65 183.91 C 732.65 160.91 750.85 141.98 773.95 140.07 C 776.19 113.19 801.66 91.91 832.65 91.91 C 856.47 91.91 877.92 104.66 886.99 123.91 L 887.51 123.91 C 912.40 123.91 932.65 147.24 932.65 175.91 C 932.65 204.58 912.40 227.91 887.51 227.91 Z" fill="#101129" fill-rule="nonzero" group-id="1,2" node-id="57" stroke="none" target-height="136" target-width="200" target-x="732.65" target-y="91.91"/><path d="M 424.43 866.32 L 201.28 846.80 C 192.82 846.06 185.01 841.99 179.55 835.49 C 174.10 828.99 171.45 820.59 172.19 812.13 L 211.24 365.83 C 212.79 348.23 228.30 335.21 245.90 336.75 L 469.05 356.27 L 388.56 542.00 L 515.28 745.78 Z" fill="#ffffff" fill-rule="nonzero" group-id="1,2" node-id="59" stroke="none" target-height="531.10626" target-width="343.8305" target-x="171.44954" target-y="335.21375"/><path d="M 424.43 870.32 C 424.31 870.33 424.20 870.33 424.08 870.32 L 200.93 850.78 C 181.13 849.04 166.48 831.58 168.21 811.78 L 207.21 365.49 C 208.04 355.98 212.62 347.19 219.93 341.05 C 227.24 334.91 236.70 331.93 246.21 332.76 L 469.40 352.28 C 470.68 352.39 471.83 353.11 472.49 354.22 C 473.15 355.33 473.23 356.68 472.72 357.86 L 393.06 541.63 L 518.68 743.63 C 519.55 745.04 519.47 746.83 518.47 748.15 L 427.62 868.73 C 426.86 869.73 425.68 870.32 424.43 870.32 Z M 243.09 340.62 C 228.58 340.63 216.48 351.73 215.22 366.18 L 176.22 812.48 C 174.87 827.88 186.27 841.46 201.67 842.81 L 422.61 862.14 L 510.47 745.56 L 385.16 544.07 C 384.47 542.96 384.37 541.57 384.89 540.37 L 463.17 359.77 L 245.56 340.77 C 244.73 340.66 243.91 340.62 243.09 340.62 Z" fill="#101129" fill-rule="nonzero" group-id="1,2" node-id="61" stroke="none" target-height="538.40186" target-width="353.07336" target-x="166.47742" target-y="331.92807"/><path d="M 848.67 845.38 L 545.83 871.88 L 614.37 737.39 L 454.18 558.67 L 501.18 361.83 L 804.02 335.33 C 812.48 334.59 820.88 337.24 827.38 342.69 C 833.88 348.15 837.95 355.96 838.69 364.42 L 877.69 810.72 C 879.23 828.30 866.24 843.80 848.67 845.38 Z" fill="#ffffff" fill-rule="nonzero" group-id="1,2" node-id="63" stroke="none" target-height="537.29047" target-width="425.0473" target-x="454.18" target-y="334.58954"/><path d="M 545.83 875.88 C 544.44 875.88 543.15 875.15 542.42 873.97 C 541.69 872.78 541.64 871.30 542.27 870.06 L 609.56 738.06 L 451.20 561.34 C 450.33 560.36 449.99 559.02 450.29 557.75 L 497.29 360.90 C 497.69 359.22 499.12 357.99 500.84 357.84 L 803.70 331.35 C 823.50 329.62 840.96 344.27 842.70 364.07 L 881.70 810.37 C 882.53 819.88 879.55 829.34 873.41 836.65 C 867.27 843.96 858.48 848.54 848.97 849.37 L 546.18 875.86 Z M 458.56 557.57 L 617.35 734.72 C 618.45 735.95 618.68 737.74 617.93 739.21 L 552.67 867.21 L 848.32 841.40 C 855.72 840.75 862.56 837.20 867.33 831.51 C 872.11 825.82 874.43 818.47 873.78 811.07 L 834.78 364.77 C 833.43 349.37 819.85 337.97 804.45 339.32 L 504.45 365.56 Z" fill="#101129" fill-rule="nonzero" group-id="1,2" node-id="65" stroke="none" target-height="546.2626" target-width="432.54422" target-x="449.9877" target-y="329.6174"/><path d="M 206.00 425.61 L 430.60 445.26 L 468.50 356.26 L 245.90 336.75 C 228.30 335.21 212.79 348.23 211.24 365.83 Z" fill="#80adff" fill-rule="nonzero" group-id="1,2" node-id="67" stroke="none" target-height="110.046265" target-width="262.5" target-x="206" target-y="335.21375"/><path d="M 430.60 449.26 L 430.25 449.26 L 205.66 429.59 C 204.60 429.50 203.62 428.99 202.94 428.18 C 202.26 427.37 201.93 426.32 202.02 425.26 L 207.25 365.49 C 208.08 355.98 212.66 347.19 219.97 341.05 C 227.28 334.91 236.74 331.93 246.25 332.76 L 468.85 352.24 C 470.13 352.35 471.27 353.07 471.93 354.17 C 472.59 355.26 472.68 356.61 472.18 357.79 L 434.28 446.79 C 433.66 448.28 432.21 449.25 430.60 449.26 Z M 210.34 422.00 L 428.06 441.00 L 462.66 359.71 L 245.56 340.71 C 238.16 340.06 230.81 342.38 225.12 347.15 C 219.43 351.92 215.87 358.76 215.22 366.16 Z" fill="#101129" fill-rule="nonzero" group-id="1,2" node-id="69" stroke="none" target-height="117.33194" target-width="270.7538" target-x="201.9273" target-y="331.92807"/><path d="M 478.23 456.19 L 843.95 424.19 L 838.72 364.42 C 837.98 355.96 833.91 348.15 827.41 342.69 C 820.91 337.24 812.51 334.59 804.05 335.33 L 501.05 361.84 Z" fill="#80adff" fill-rule="nonzero" group-id="1,2" node-id="71" stroke="none" target-height="121.600464" target-width="365.72" target-x="478.23" target-y="334.58954"/><path d="M 478.22 460.19 C 477.00 460.19 475.84 459.62 475.08 458.66 C 474.33 457.70 474.05 456.44 474.34 455.25 L 497.20 360.90 C 497.62 359.25 499.04 358.04 500.74 357.90 L 803.74 331.40 C 823.54 329.67 841.00 344.32 842.74 364.12 L 847.97 423.89 C 848.06 424.95 847.73 426.00 847.05 426.82 C 846.37 427.63 845.39 428.14 844.33 428.23 L 478.61 460.23 Z M 504.30 365.57 L 483.42 451.72 L 839.61 420.56 L 834.73 364.77 C 833.38 349.37 819.80 337.97 804.40 339.32 Z" fill="#101129" fill-rule="nonzero" group-id="1,2" node-id="73" stroke="none" target-height="130.56259" target-width="374.01212" target-x="474.05215" target-y="329.66742"/><path d="M 384.89 540.37 L 397.78 510.64 L 264.83 499.00 L 262.00 530.89 L 384.54 541.61 C 384.59 541.18 384.71 540.76 384.89 540.37 Z" fill="#81e6c1" fill-rule="nonzero" group-id="1,2" node-id="75" stroke="none" target-height="42.609985" target-width="135.78" target-x="262" target-y="499"/><path d="M 446.94 643.43 L 253.68 626.53 L 250.89 658.40 L 468.06 677.40 L 446.94 643.43 Z" fill="#81e6c1" fill-rule="nonzero" group-id="1,2" node-id="77" stroke="none" target-height="50.869995" target-width="217.17" target-x="250.89" target-y="626.53"/><path d="M 487.87 775.50 L 242.52 754.04 L 239.73 785.92 L 465.15 805.64 L 487.87 775.50 Z" fill="#ffdc8a" fill-rule="nonzero" group-id="1,2" node-id="79" stroke="none" target-height="51.600037" target-width="248.14" target-x="239.73" target-y="754.04"/><path d="M 458.56 557.57 L 459.16 558.24 L 788.90 529.39 L 786.12 497.51 L 466.22 525.50 L 458.56 557.57 Z" fill="#81e6c1" fill-rule="nonzero" group-id="1,2" node-id="81" stroke="none" target-height="60.72998" target-width="330.34003" target-x="458.56" target-y="497.51"/><path d="M 542.59 651.32 L 565.96 677.38 L 800.06 656.90 L 797.27 625.02 L 542.25 647.34 L 542.59 651.32 Z" fill="#81e6c1" fill-rule="nonzero" group-id="1,2" node-id="83" stroke="none" target-height="52.359985" target-width="257.81" target-x="542.25" target-y="625.02"/><path d="M 584.80 804.23 L 811.22 784.42 L 808.43 752.54 L 601.93 770.60 L 584.80 804.23 Z" fill="#ffdc8a" fill-rule="nonzero" group-id="1,2" node-id="85" stroke="none" target-height="51.690002" target-width="226.41998" target-x="584.8" target-y="752.54"/><path d="M 801.44 386.85 C 801.44 400.10 790.69 410.85 777.44 410.85 C 764.19 410.85 753.44 400.10 753.44 386.85 C 753.44 373.60 764.19 362.85 777.44 362.85 C 790.69 362.85 801.44 373.60 801.44 386.85 Z" fill="#ffdc8a" fill-rule="nonzero" group-id="1,2" node-id="87" stroke="none" target-height="48" target-width="48" target-x="753.44" target-y="362.85"/><path d="M 777.39 414.85 C 762.17 414.84 749.74 402.68 749.41 387.46 C 749.07 372.25 760.96 359.55 776.16 358.88 C 791.37 358.21 804.33 369.80 805.34 384.99 C 806.35 400.18 795.04 413.39 779.88 414.74 C 779.05 414.81 778.21 414.85 777.39 414.85 Z M 777.45 366.85 C 776.87 366.85 776.28 366.85 775.69 366.92 C 764.69 367.88 756.55 377.59 757.51 388.59 C 758.48 399.59 768.18 407.73 779.18 406.77 C 790.18 405.80 798.32 396.10 797.36 385.10 L 797.36 385.10 C 796.45 374.78 787.81 366.86 777.45 366.85 Z" fill="#101129" fill-rule="nonzero" group-id="1,2" node-id="89" stroke="none" target-height="56.64447" target-width="57.27472" target-x="749.0741" target-y="358.20554"/><path d="M 899.55 484.00 C 897.50 484.01 895.78 482.48 895.55 480.44 L 891.99 448.44 C 891.75 446.23 893.34 444.24 895.55 444.00 C 897.76 443.76 899.75 445.35 899.99 447.56 L 903.54 479.56 C 903.66 480.62 903.36 481.68 902.69 482.52 C 902.03 483.35 901.06 483.88 900.00 484.00 Z" fill="#101129" fill-rule="nonzero" group-id="1,2" node-id="91" stroke="none" target-height="40.255432" target-width="11.916565" target-x="891.747" target-y="443.757"/><path d="M 917.33 644.00 C 915.28 644.01 913.56 642.48 913.33 640.44 L 899.11 512.44 C 898.87 510.23 900.46 508.24 902.67 508.00 C 904.88 507.76 906.87 509.35 907.11 511.56 L 921.33 639.56 C 921.45 640.62 921.14 641.68 920.48 642.50 C 919.81 643.33 918.85 643.86 917.79 643.98 Z" fill="#101129" fill-rule="nonzero" group-id="1,2" node-id="93" stroke="none" target-height="136.25546" target-width="22.580872" target-x="898.867" target-y="507.757"/></g></g></svg>